<?xml version="1.0" encoding="UTF-8"?><!DOCTYPE svg  PUBLIC '-//W3C//DTD SVG 1.1//EN'  'http://www.w3.org/Graphics/SVG/1.1/DTD/svg11.dtd'><svg xmlns="http://www.w3.org/2000/svg" xmlns:xlink="http://www.w3.org/1999/xlink" version="1.1"><defs><font horiz-adv-x="20.0" id="XingShu"><font-face font-family="XingShu" units-per-em="100.0" ascent="80.0" descent="-20.0" cap-height="50.0" x-height="30.0"/><missing-glyph horiz-adv-x="20.0"/><glyph unicode=" " glyph-name="space" horiz-adv-x="20.0"/><glyph unicode="。" glyph-name="。" d="M 38.751 11.391 C 38.751 8.46 37.571 5.651 35.467 3.58 C 33.364 1.509 30.513 0.344 27.538 0.344 C 21.347 0.344 16.324 5.289 16.324 11.391 C 16.324 14.32 17.507 17.129 19.609 19.2 C 21.713 21.271 24.564 22.436 27.538 22.436 C 30.513 22.436 33.364 21.271 35.467 19.2 C 37.571 17.129 38.751 14.32 38.751 11.391 Z" horiz-adv-x="77.502"/><glyph unicode="：" glyph-name="：" d="M 26.373 6.493 C 26.622 6.198 26.096 6.011 25.88 6.078 C 25.293 6.262 25.26 7.036 25.54 7.48 C 26.04 8.276 27.162 8.278 27.851 7.742 C 28.862 6.958 28.833 5.447 28.038 4.522 C 26.976 3.291 25.062 3.353 23.909 4.413 C 22.456 5.747 22.549 8.067 23.876 9.451 C 25.482 11.129 28.209 11 29.822 9.409 C 31.724 7.531 31.562 4.393 29.702 2.551 C 27.556 0.424 24.007 0.62 21.936 2.749 C 19.584 5.164 19.816 9.124 22.211 11.424 C 24.898 14.002 29.269 13.736 31.796 11.073 C 34.6 8.118 34.298 3.333 31.367 0.58 M 26.889 39.551 C 27.14 39.256 26.613 39.067 26.396 39.136 C 25.809 39.318 25.778 40.093 26.056 40.538 C 26.556 41.331 27.68 41.336 28.367 40.8 C 29.378 40.016 29.351 38.502 28.553 37.58 C 27.493 36.349 25.58 36.409 24.424 37.471 C 22.971 38.804 23.064 41.124 24.391 42.509 C 25.998 44.187 28.727 44.058 30.34 42.464 C 32.24 40.589 32.078 37.451 30.218 35.609 C 28.071 33.482 24.522 33.678 22.453 35.804 C 20.1 38.222 20.331 42.182 22.727 44.48 C 25.413 47.06 29.784 46.793 32.311 44.131 C 35.116 41.176 34.813 36.389 31.884 33.636" horiz-adv-x="68.511"/><glyph unicode="；" glyph-name="；" d="M 27.053 6.247 C 27.222 5.909 26.68 5.851 26.491 5.964 C 25.978 6.273 26.124 7.016 26.491 7.371 C 27.147 8.009 28.211 7.753 28.74 7.089 C 29.518 6.116 29.144 4.689 28.178 3.998 C 26.891 3.076 25.093 3.571 24.242 4.84 C 23.171 6.438 23.793 8.613 25.367 9.62 C 27.273 10.84 29.827 10.093 30.991 8.216 C 32.362 6 31.487 3.064 29.302 1.747 C 26.782 0.224 23.464 1.227 21.991 3.716 C 20.318 6.544 21.447 10.242 24.242 11.871 C 27.378 13.696 31.482 13.193 33.127 10.016 C 38.173 0.269 27.227 -8.96 21.847 -9.076 M 27.053 39.316 C 27.347 39.067 26.864 38.798 26.642 38.827 C 26.038 38.909 25.88 39.66 26.08 40.14 C 26.436 40.998 27.531 41.184 28.291 40.778 C 29.407 40.178 29.629 38.698 29.004 37.664 C 28.171 36.289 26.293 36.033 24.991 36.878 C 23.353 37.94 23.062 40.22 24.129 41.789 C 25.42 43.691 28.104 44.016 29.94 42.727 C 32.107 41.209 32.464 38.12 30.953 36.016 C 29.209 33.587 25.713 33.193 23.342 34.929 C 20.649 36.9 20.222 40.802 22.18 43.44 C 24.376 46.398 28.687 46.858 31.591 44.676 C 34.813 42.253 35.309 37.536 32.902 34.367" horiz-adv-x="68.849"/><glyph unicode="，" glyph-name="，" d="M 22.702 6.291 C 22.884 5.938 22.316 5.871 22.113 5.987 C 21.567 6.304 21.711 7.087 22.091 7.467 C 22.771 8.149 23.898 7.898 24.464 7.207 C 25.298 6.191 24.927 4.684 23.92 3.94 C 22.58 2.951 20.678 3.444 19.762 4.769 C 18.611 6.433 19.231 8.733 20.873 9.818 C 22.86 11.133 25.562 10.384 26.816 8.424 C 28.293 6.116 27.418 3.011 25.14 1.589 C 22.509 -0.051 19 0.951 17.411 3.549 C 15.607 6.502 16.736 10.413 19.653 12.169 C 22.927 14.14 27.567 13.053 29.167 9.644 C 33.913 -0.48 18.944 -12.516 15.387 -14.604" horiz-adv-x="60.178"/><glyph unicode="‘" glyph-name="‘" d="M 82.1 56.116 C 81.918 56.469 82.487 56.538 82.689 56.42 C 83.236 56.104 83.091 55.322 82.711 54.94 C 82.031 54.258 80.904 54.511 80.338 55.202 C 79.504 56.216 79.876 57.722 80.882 58.467 C 82.222 59.458 84.124 58.962 85.04 57.64 C 86.191 55.973 85.571 53.673 83.929 52.589 C 81.942 51.276 79.24 52.022 77.987 53.982 C 76.509 56.291 77.384 59.396 79.662 60.818 C 82.293 62.46 85.802 61.458 87.391 58.858 C 89.196 55.907 88.067 51.996 85.149 50.238 C 81.876 48.267 77.236 49.353 75.636 52.764 C 70.889 62.889 85.858 74.922 89.416 77.013" horiz-adv-x="178.831"/><glyph unicode="’" glyph-name="’" d="M 26.956 73.071 C 27.138 72.718 26.569 72.651 26.367 72.767 C 25.82 73.084 25.964 73.867 26.344 74.247 C 27.024 74.929 28.151 74.678 28.718 73.987 C 29.551 72.971 29.18 71.464 28.173 70.722 C 26.833 69.731 24.931 70.224 24.016 71.549 C 22.864 73.213 23.484 75.513 25.127 76.598 C 27.113 77.913 29.816 77.164 31.069 75.204 C 32.547 72.896 31.671 69.791 29.393 68.371 C 26.762 66.729 23.256 67.731 21.664 70.329 C 19.86 73.282 20.989 77.193 23.907 78.949 C 27.18 80.92 31.82 79.833 33.42 76.424 C 38.167 66.3 23.198 54.267 19.64 52.176" horiz-adv-x="68.684"/><glyph unicode="”" glyph-name="”" d="M 48.762 72.609 C 48.947 72.256 48.378 72.187 48.176 72.304 C 47.629 72.62 47.773 73.404 48.153 73.784 C 48.833 74.467 49.958 74.216 50.527 73.522 C 51.36 72.509 50.989 71.002 49.982 70.258 C 48.64 69.267 46.74 69.762 45.824 71.084 C 44.673 72.751 45.293 75.051 46.933 76.136 C 48.922 77.449 51.624 76.702 52.878 74.742 C 54.356 72.433 53.48 69.329 51.2 67.907 C 48.569 66.267 45.062 67.269 43.473 69.867 C 41.667 72.818 42.798 76.729 45.716 78.487 C 48.989 80.458 53.629 79.371 55.229 75.962 C 59.976 65.838 45.007 53.802 41.449 51.711 M 26.956 73.071 C 27.138 72.718 26.569 72.651 26.367 72.767 C 25.82 73.084 25.964 73.867 26.344 74.247 C 27.024 74.929 28.151 74.678 28.718 73.987 C 29.551 72.971 29.18 71.464 28.173 70.722 C 26.833 69.731 24.931 70.224 24.016 71.549 C 22.864 73.213 23.484 75.513 25.127 76.598 C 27.113 77.913 29.816 77.164 31.069 75.204 C 32.547 72.896 31.671 69.791 29.393 68.371 C 26.762 66.729 23.256 67.731 21.664 70.329 C 19.86 73.282 20.989 77.193 23.907 78.949 C 27.18 80.92 31.82 79.833 33.42 76.424 C 38.167 66.3 23.198 54.267 19.64 52.176" horiz-adv-x="112.298"/><glyph unicode="“" glyph-name="“" d="M 62.109 58.667 C 61.927 59.022 62.496 59.089 62.698 58.973 C 63.242 58.656 63.1 57.873 62.72 57.493 C 62.038 56.811 60.913 57.062 60.347 57.753 C 59.513 58.769 59.884 60.276 60.891 61.018 C 62.231 62.009 64.133 61.516 65.049 60.191 C 66.2 58.527 65.58 56.227 63.938 55.142 C 61.951 53.827 59.249 54.573 57.996 56.536 C 56.518 58.844 57.393 61.949 59.671 63.369 C 62.302 65.011 65.809 64.009 67.4 61.411 C 69.204 58.458 68.076 54.547 65.158 52.791 C 61.884 50.82 57.242 51.907 55.644 55.316 C 50.896 65.44 65.867 77.473 69.424 79.564 M 83.918 58.204 C 83.733 58.558 84.304 58.627 84.504 58.509 C 85.051 58.193 84.907 57.411 84.527 57.029 C 83.847 56.347 82.722 56.6 82.153 57.291 C 81.322 58.304 81.691 59.813 82.698 60.556 C 84.04 61.547 85.94 61.051 86.856 59.729 C 88.007 58.062 87.387 55.762 85.747 54.678 C 83.758 53.364 81.058 54.111 79.804 56.071 C 78.327 58.382 79.2 61.484 81.48 62.907 C 84.111 64.549 87.618 63.547 89.207 60.947 C 91.013 57.996 89.882 54.084 86.964 52.327 C 83.691 50.356 79.051 51.442 77.453 54.853 C 72.704 64.978 87.673 77.011 91.231 79.102" horiz-adv-x="182.462"/><glyph unicode="（" glyph-name="（" d="M 96.109 85.871 C 50.38 48.476 77.778 8.462 96.109 -1.582" horiz-adv-x="192.218"/><glyph unicode="）" glyph-name="）" d="M 14.698 85.573 C 60.427 48.178 33.031 8.164 14.698 -1.88" horiz-adv-x="79.471"/><glyph unicode="、" glyph-name="、" d="M 12.342 21.451 C 12.342 21.451 36.551 14.473 36.736 -2.049 C 36.833 -10.782 29.002 11.04 29.002 11.04" horiz-adv-x="73.476"/><glyph unicode="？" glyph-name="？" d="M 32.282 5.92 C 32.451 5.602 31.938 5.536 31.756 5.638 C 31.262 5.918 31.382 6.622 31.72 6.971 C 32.327 7.591 33.34 7.376 33.858 6.76 C 34.618 5.856 34.3 4.496 33.402 3.818 C 32.207 2.911 30.491 3.336 29.653 4.518 C 28.6 6.004 29.133 8.08 30.6 9.073 C 32.373 10.276 34.811 9.631 35.96 7.88 C 37.313 5.818 36.56 3.018 34.524 1.716 C 32.173 0.211 29.009 1.076 27.551 3.396 C 25.896 6.033 26.871 9.564 29.478 11.176 C 32.402 12.982 36.298 11.896 38.062 9.002 C 40.022 5.791 38.822 1.531 35.644 -0.389 M 21.249 58.393 C 19.236 71.58 28.907 77.124 37.291 76.669 C 45.676 76.211 50.882 68.92 49.747 58.393 C 48.913 50.664 40.831 45.611 37.176 39.767 C 33.522 33.922 32.307 21.811 32.307 21.811" horiz-adv-x="99.804"/><glyph unicode="《" glyph-name="《" d="M 100.213 91.947 L 75.916 40.211 L 100.213 -10.058 M 82.62 91.738 L 58.322 40.422 L 82.62 -10.476" horiz-adv-x="200.427"/><glyph unicode="》" glyph-name="》" d="M 9.969 91.947 L 34.267 40.211 L 9.969 -10.058 M 27.564 91.738 L 51.862 40.422 L 27.564 -10.476" horiz-adv-x="103.724"/><glyph unicode="！" glyph-name="！" d="M 33.178 5.789 C 33.433 5.48 32.887 5.296 32.664 5.367 C 32.062 5.564 32.04 6.364 32.333 6.818 C 32.86 7.629 34.018 7.616 34.72 7.056 C 35.749 6.233 35.7 4.676 34.867 3.733 C 33.756 2.48 31.784 2.571 30.609 3.68 C 29.131 5.076 29.26 7.464 30.647 8.873 C 32.324 10.578 35.133 10.409 36.776 8.744 C 38.709 6.782 38.498 3.551 36.556 1.68 C 34.313 -0.482 30.658 -0.229 28.553 1.991 C 26.164 4.516 26.458 8.593 28.958 10.927 C 31.762 13.547 36.264 13.211 38.831 10.433 C 41.678 7.347 41.302 2.42 38.242 -0.376 M 33.618 81.54 L 33.644 27.149" horiz-adv-x="81.533"/><glyph unicode="…" glyph-name="…" d="M 54.544 36.856 C 54.836 36.524 54.242 36.298 53.996 36.369 C 53.322 36.562 53.267 37.442 53.571 37.953 C 54.12 38.869 55.396 38.902 56.191 38.313 C 57.36 37.449 57.369 35.729 56.487 34.658 C 55.313 33.231 53.138 33.251 51.798 34.427 C 50.111 35.904 50.158 38.542 51.629 40.151 C 53.409 42.1 56.513 42.024 58.389 40.258 C 60.6 38.173 60.498 34.602 58.431 32.46 C 56.047 29.987 52.009 30.118 49.6 32.482 C 46.862 35.167 47.022 39.673 49.684 42.349 C 52.671 45.349 57.647 45.16 60.587 42.2 C 63.851 38.916 63.633 33.469 60.376 30.264 M 89.98 37.869 C 90.271 37.54 89.678 37.313 89.429 37.384 C 88.758 37.576 88.702 38.456 89.007 38.969 C 89.553 39.884 90.831 39.918 91.627 39.327 C 92.796 38.462 92.804 36.742 91.922 35.671 C 90.749 34.247 88.573 34.264 87.233 35.44 C 85.547 36.918 85.593 39.558 87.064 41.164 C 88.844 43.113 91.949 43.04 93.824 41.271 C 96.036 39.187 95.931 35.618 93.867 33.476 C 91.482 31.002 87.444 31.133 85.036 33.496 C 82.298 36.182 82.458 40.689 85.12 43.362 C 88.104 46.362 93.082 46.176 96.022 43.216 C 99.287 39.929 99.069 34.482 95.811 31.278 M 19.109 37.191 C 19.402 36.862 18.807 36.636 18.56 36.707 C 17.887 36.9 17.831 37.778 18.138 38.291 C 18.684 39.207 19.96 39.24 20.758 38.649 C 21.924 37.784 21.933 36.064 21.053 34.996 C 19.878 33.569 17.702 33.587 16.362 34.762 C 14.676 36.24 14.722 38.88 16.193 40.489 C 17.976 42.436 21.078 42.362 22.953 40.593 C 25.164 38.509 25.062 34.94 22.996 32.798 C 20.611 30.324 16.573 30.456 14.164 32.818 C 11.429 35.504 11.589 40.011 14.249 42.684 C 17.236 45.684 22.211 45.498 25.151 42.538 C 28.416 39.251 28.198 33.804 24.94 30.6" horiz-adv-x="196.729"/><glyph unicode="–" glyph-name="–" d="M 35.638 40.631 L 76.791 40.876" horiz-adv-x="153.582"/><glyph unicode="．" glyph-name="．" d="M 21.673 7.173 C 21.913 6.836 21.336 6.682 21.111 6.773 C 20.5 7.02 20.533 7.849 20.871 8.298 C 21.471 9.1 22.669 9.007 23.358 8.378 C 24.367 7.453 24.207 5.842 23.278 4.927 C 22.04 3.707 20.004 3.938 18.864 5.169 C 17.431 6.718 17.731 9.182 19.264 10.544 C 21.124 12.193 24.022 11.82 25.604 9.982 C 27.469 7.816 27.024 4.484 24.882 2.68 C 22.409 0.598 18.642 1.116 16.618 3.564 C 14.318 6.344 14.909 10.547 17.66 12.791 C 20.749 15.307 25.389 14.644 27.851 11.587 C 30.584 8.193 29.849 3.116 26.487 0.433" horiz-adv-x="59.044"/><glyph unicode="〖" glyph-name="〖" d="M 54.424 -6.687 L 54.424 87.742 L 94.409 87.742 C 62.673 51.318 65.484 23.94 94.833 -7.538 C 85.902 -6.687 54.424 -6.687 54.424 -6.687 Z" horiz-adv-x="189.667"/><glyph unicode="〗" glyph-name="〗" d="M 55.122 -6.687 L 55.122 87.742 L 15.138 87.742 C 46.873 51.318 44.062 23.94 14.713 -7.538 C 23.644 -6.687 55.122 -6.687 55.122 -6.687 Z" horiz-adv-x="110.244"/><glyph unicode="【" glyph-name="【" d="M 54.424 -6.687 L 54.424 87.742 L 94.409 87.742 C 62.673 51.318 65.484 23.94 94.833 -7.538 C 85.902 -6.687 54.424 -6.687 54.424 -6.687 Z" horiz-adv-x="189.667"/><glyph unicode="】" glyph-name="】" d="M 55.122 -6.687 L 55.122 87.742 L 15.138 87.742 C 46.873 51.318 44.062 23.94 14.713 -7.538 C 23.644 -6.687 55.122 -6.687 55.122 -6.687 Z" horiz-adv-x="110.244"/><glyph unicode="#" glyph-name="#" d="M 30.49 59.06 C 30.57 55.05 30.74 48.6 30.82 47.1 C 30.91 45.59 31.58 39.48 31.58 38.81 C 31.58 38.14 31.16 32.78 30.91 31.78 C 30.66 30.78 29.82 25.67 29.4 23.41 C 28.98 21.15 28.6 17.2 28.4 16.13 C 28.06 14.37 27.47 8.35 26.81 6.67 M 13.16 50.86 C 14.84 46.17 15.42 41.4 16.18 36.38 C 16.93 31.36 17.85 24.17 17.85 21.74 C 17.85 18.72 18.19 15.63 16.93 12.95 M 5.55 27.76 C 7.81 26.84 13.65 27.01 15.42 27.01 C 17.6 27.01 26.72 29.02 28.9 29.86 C 31.07 30.69 34 31.28 35.09 32.03 C 36.18 32.78 38.94 33.54 39.36 33.96 C 39.78 34.37 40.36 36.05 38.35 36.63 M 4.29 36.97 C 9.57 37.05 17.85 37.72 19.19 37.72 C 20.53 37.72 29.65 38.64 30.4 38.81 C 31.16 38.98 37.16 39.43 38.44 40.07 C 39.6 40.65 41.03 41.49 41.37 41.66 C 41.7 41.82 41.95 42.49 42.04 43.08" horiz-adv-x="42.04"/><glyph unicode="$" glyph-name="$" d="M 23.14 62.33 C 24.06 59.82 23.98 56.05 23.56 53.54 C 23.14 51.03 22.22 44.17 22.14 43.33 C 22.06 42.49 21.11 35.61 20.72 34.12 C 20.3 32.53 20.47 29.77 19.46 25.67 C 19.13 24.33 16.53 14.62 16.2 14.04 C 15.86 13.45 14.61 8.68 14.61 8.1 C 14.61 7.51 13.27 0.56 12.93 0.48 M 27.75 39.31 C 30.51 41.74 33.44 44.17 29.84 46.43 C 26.24 48.69 20.13 48.94 19.55 48.69 C 18.96 48.43 13.52 47.68 13.02 47.1 C 12.52 46.51 8.08 43.16 12.43 39.65 C 16.78 36.13 27.16 28.27 28.33 27.93 C 29.5 27.6 35.03 24.08 28.5 21.15 C 21.97 18.22 14.19 16.97 13.6 17.22 C 13.02 17.47 9.25 16.97 8.83 17.3 C 8.42 17.64 4.98 16.97 7.08 22.32 C 9.17 27.68 10.59 29.19 11.93 30.11" horiz-adv-x="31.63"/><glyph unicode="%" glyph-name="%" d="M 56.98 28.1 C 56.98 30.78 54.13 33.45 50.03 34.12 C 45.93 34.79 40.15 29.77 39.57 28.93 C 38.98 28.1 35.89 21.99 35.72 20.98 C 35.55 19.98 31.25 6 42.41 10.77 C 51.02 14.46 58.23 24.33 56.98 28.1 Z M 32.71 57.97 C 34.88 59.06 39.15 59.56 39.82 60.07 C 40.49 60.57 45.43 61.66 45.84 61.66 C 46.26 61.66 47.85 63.16 48.44 62.33 C 49.03 61.49 44.92 54.79 44.42 54.04 C 43.92 53.29 33.63 36.97 32.37 35.71 C 31.12 34.46 24.09 22.91 23.83 22.49 C 23.58 22.07 17.31 13.45 17.14 12.7 C 16.97 11.95 11.2 4.75 10.95 4.41 C 10.7 4.08 8.44 1.9 7.93 1.57 C 7.43 1.23 5.67 -1.11 5.93 4.41 M 32.54 58.14 C 29.19 59.9 23.92 60.57 22.83 59.9 C 21.74 59.23 16.39 55.55 15.38 54.38 C 15.11 54.06 8.94 50.28 16.47 46.43 C 24 42.58 29.36 45.42 29.78 45.67 C 30.2 45.92 34.8 49.35 35.55 51.53 C 36.3 53.71 32.54 58.14 32.54 58.14 Z" horiz-adv-x="57.12"/><glyph unicode="&amp;" glyph-name="&amp;" d="M 33.93 24.29 C 33.57 20.97 31.31 11.82 20.66 7.51 C 11.33 3.75 6.22 8.23 7.56 17.83 C 8.82 26.79 14.92 31.1 16.08 31.91 C 16.55 32.23 24.78 36.75 28.28 40.52 C 30.67 43.1 34.72 48.08 32.14 55.5 C 30.07 61.42 25.64 63 22.9 63.03 C 15.36 63.12 15.6 58.51 15.54 53.97 C 15.45 47.16 18.59 39.98 18.86 38.19 C 19.11 36.54 23.17 23.39 23.79 22.31 C 24.42 21.24 27.88 12.97 29.18 10.12 C 31.09 5.91 38.86 -3.25 39.4 -3.7" horiz-adv-x="39.4"/><glyph unicode="'" glyph-name="'" d="M 4.7 67.96 C 6.81 66.35 15.45 58.61 16.45 57.31 C 17.46 56 17.36 55.5 17.36 55.5" horiz-adv-x="17.36"/><glyph unicode="&quot;" glyph-name="&quot;" d="M 22.41 67.03 C 22.65 65.63 22.65 61.2 22.53 60.16 C 22.41 59.13 21.74 55.85 21.44 54.94 C 21.23 54.33 19.98 52.27 19.74 51.91 C 19.49 51.54 18.04 49.48 18.04 48.93 M 8.56 64.35 C 8.56 64.35 9.9 61.74 10.08 60.95 C 10.26 60.16 11.48 57.74 11.48 57.19 C 11.48 56.64 12.02 55.43 11.66 53.85" horiz-adv-x="22.61"/><glyph unicode="(" glyph-name="(" d="M 28.85 53.35 C 24.18 50.11 -5.34 31.63 30.76 12.02" horiz-adv-x="30.76"/><glyph unicode=")" glyph-name=")" d="M 10.84 52.49 C 25.31 43.92 36.15 41.4 27.5 23.64 C 20.36 8.97 8.17 9.54 8.07 12.21" horiz-adv-x="30.58"/><glyph unicode="*" glyph-name="*" d="M 10.63 51.06 C 13.01 49.25 16.63 46.4 18.06 45.73 C 19.48 45.06 25.39 42.11 25.39 42.11 C 25.39 42.11 33.77 36.59 35.01 35.35 C 36.24 34.11 42.82 29.35 43.58 28.59 M 43.67 52.87 C 37.01 49.16 32.63 46.01 31.58 44.97 C 30.53 43.92 27.2 41.44 26.15 40.4 C 25.1 39.35 21.1 38.02 21.1 38.02 C 21.1 38.02 16.25 35.35 15.86 35.35 C 15.48 35.35 10.53 33.06 10.53 33.06 L 6.44 29.73 M 26.15 58.11 C 26.44 52.87 25.77 37.35 26.15 36.21 C 26.53 35.06 25.86 32.21 26.15 31.83 C 26.44 31.44 25.67 22.02 25.67 22.02" horiz-adv-x="43.67"/><glyph unicode="+" glyph-name="+" d="M 23.28 58.01 C 24.99 56.3 26.32 52.49 26.32 51.73 C 26.32 50.97 26.61 49.16 26.89 46.11 C 26.94 45.64 26.99 41.06 27.08 40.4 C 27.18 39.73 27.47 33.25 27.37 32.11 C 27.28 30.97 26.7 24.97 26.7 24.49 C 26.7 24.02 25.75 17.06 25.85 16.68 C 25.94 16.3 25.56 9.54 25.56 9.54 L 26.04 5.16 M 4.23 33.44 C 9.75 32.97 16.51 33.35 18.32 33.44 C 20.13 33.54 25.94 33.54 27.09 33.82 C 28.23 34.11 40.99 35.54 40.99 35.54 L 43.47 36.02" horiz-adv-x="43.47"/><glyph unicode="-" glyph-name="-" d="M 6.59 32.84 C 9.61 31.11 11.02 30.78 13.18 30.78 C 15.34 30.78 22.26 32.4 23.66 32.3 C 25.07 32.19 35.66 34.03 36.09 34.03 C 36.53 34.03 39.77 34.13 40.85 34.78" horiz-adv-x="40.85"/><glyph unicode="/" glyph-name="/" d="M 31.91 55.75 C 31.81 52.83 30.36 50.12 29.65 48.4 C 29.1 47.1 28.02 44.18 26.08 41.48 C 24.78 39.67 20.89 32.19 19.7 31.11 C 18.88 30.36 14.3 21.6 13.76 20.84 C 13.22 20.08 8.89 11.76 8.89 11.76 C 8.89 11.76 6.73 6.36 6.19 5.49" horiz-adv-x="31.91"/><glyph unicode="," glyph-name="," d="M 6.24 14.6 C 6.24 14.6 7.67 13.74 7.06 12.83 C 6.07 11.34 4.55 12.28 4.1 12.92 C 3.63 13.57 3.91 15.09 5.27 15.82 C 6.12 16.27 8.26 15.86 8.53 15.34 C 8.96 14.5 9.93 12.55 8.75 11.37 C 8.28 10.88 5.88 9.52 4.97 9.76 C 3.66 10.1 1.96 11.55 2.01 12.51 C 2.16 15.34 2.89 16.9 3.99 17.41 C 5.48 18.09 8.34 17.64 8.95 17.35 C 10.41 16.68 11.17 14.44 11.32 13.52 C 11.53 12.24 11.26 9.59 10.82 7.9 C 10.51 6.74 9.94 5.76 9.44 5.15 C 8.85 4.42 6.76 1.77 6.18 1.77" horiz-adv-x="11.39"/><glyph unicode="." glyph-name="." d="M 12.23 13.1 C 12.55 13.22 12.58 12.39 12.32 12.09 C 11.95 11.68 11.14 12.34 10.91 12.53 C 10.69 12.72 10.74 13.55 11.25 14.14 C 11.64 14.57 12.62 14.14 12.72 14.01 C 12.95 13.72 13.24 13.29 13.3 12.9 C 13.4 12.26 13.11 11.46 12.69 11.17 C 12.23 10.86 10.38 11.03 10 11.76 C 9.46 12.81 9.77 13.88 10.2 14.6 C 10.66 15.37 12.17 15.41 12.59 15.23 C 13.15 15.01 14.08 14.31 14.34 13.61 C 14.49 13.2 14.62 12.35 14.48 11.9 C 14.28 11.29 13.62 10.23 12.76 9.96 C 11.39 9.54 10.59 9.74 10 10.13 C 9.19 10.68 8.37 11.36 8.37 12.01 C 8.37 12.71 8.39 14.42 9.17 15.28 C 10.01 16.22 11.03 16.37 11.71 16.47 C 12.38 16.56 14.57 15.62 15.15 14.64 C 15.65 13.77 15.6 12.42 15.52 11.55 C 15.44 10.56 14.92 10.08 14.46 9.58 C 13.69 8.74 11.53 8.34 10.78 8.66 C 10.24 8.89 8.59 9.3 7.99 9.89 C 7.53 10.34 6.74 12.85 7.03 13.68 C 7.41 14.78 7.55 16.31 8.78 17.34 C 9.35 17.81 12.23 18.17 13.46 17.58 C 14.73 16.97 15.69 16.6 16.18 15.79 C 17.12 14.24 16.8 11.43 16.64 10.73 C 16.47 10.02 15.8 9.24 15.16 8.69 C 14.61 8.21 13.08 7.79 12.28 8.03" horiz-adv-x="16.82"/><glyph unicode="!" glyph-name="!" d="M 10.13 6.52 C 10.66 6.78 11.84 5.99 11.17 4.95 C 10.68 4.19 9.23 4.42 8.79 5.47 C 8.56 6.04 8.84 7.12 9.11 7.37 C 9.44 7.68 10.38 7.94 11.15 7.62 C 11.72 7.39 12.56 6.74 12.75 5.82 C 12.82 5.44 12.73 3.97 11.45 3.3 C 10.41 2.76 9.51 2.81 8.63 3.43 C 7.75 4.04 7.34 5.27 7.3 5.91 C 7.23 7.02 7.54 8.38 8.88 9.09 C 9.51 9.42 10.81 9.18 11.69 8.72 C 12.24 8.43 13.46 7.69 13.98 6.09 C 14.39 4.81 13.77 3.77 13.27 3.01 C 12.57 1.96 11.09 1.42 9.92 1.34 C 8.69 1.25 7.48 1.87 6.51 3.45 C 5.8 4.62 5.9 5.45 5.9 6.53 C 5.9 8.46 7.1 9.34 7.65 9.78 C 8.53 10.48 9.18 10.57 10.11 10.57 C 11.69 10.57 13.36 9.42 14.06 8.46 C 15.03 7.14 15.03 5.03 14.85 4.24 C 14.68 3.45 12.78 1.53 11.19 1.31 M 19.86 54.91 C 19.86 54.03 18.98 47.89 18.89 47.1 C 18.81 46.31 17.66 41.56 17.66 41.13 C 17.66 40.69 16.26 35.86 16.35 35.42 C 16.43 34.98 14.77 27.87 14.77 27.87 L 13.89 23.39 C 13.89 23.39 12.48 18.47 12.31 17.94" horiz-adv-x="19.86"/><glyph unicode="0" glyph-name="0" d="M 22.47 52.78 C 20.83 53.32 16.24 55.3 9.21 44.17 C 6.36 39.64 5.39 27.76 5.25 25.44 C 5.15 23.78 2.79 8.35 11.26 5.48 C 19.74 2.61 26.99 14.77 28.22 18.19 C 29.45 21.61 32.15 35.28 31.09 40.34 C 30.31 44.01 29.17 51.27 22.47 52.78 Z" horiz-adv-x="31.33"/><glyph unicode="1" glyph-name="1" d="M 14.2 53.87 C 13.38 49.91 12.97 44.85 12.83 44.3 C 12.69 43.76 11.33 38.29 11.19 37.19 C 11.05 36.1 8.87 25.98 8.87 25.98 L 6.68 15.59 L 6.13 11.08 L 5.04 4.11 C 5.04 4.11 4.63 0.15 4.08 0.01" horiz-adv-x="14.2"/><glyph unicode="2" glyph-name="2" d="M 9.2 42.94 C 10.84 45.94 15.24 49.76 20.14 49.63 C 24.38 49.52 28.92 46.76 30.26 44.17 C 31.46 41.83 32.72 37.74 30.8 34.19 C 28.54 29.98 22.33 21.34 20.82 19.7 C 19.32 18.06 9.2 7.94 9.2 7.94 L 4.97 3.02 L 26.02 3.02 C 26.02 3.02 30.53 3.29 31.62 2.88" horiz-adv-x="31.79"/><glyph unicode="3" glyph-name="3" d="M 7.63 47.04 C 11.73 51 19.43 54.05 25.67 50.45 C 33.74 45.81 31.41 32.27 14.87 27.76 C 27.17 27.62 30.36 14.99 28.54 9.72 C 27.36 6.28 18.97 -5.73 2.84 8.49" horiz-adv-x="30.16"/><glyph unicode="4" glyph-name="4" d="M 35.99 51.68 C 34.48 47.17 33.12 42.39 31.88 38.83 C 30.65 35.28 28.33 29.54 28.19 28.45 C 28.06 27.35 25.87 22.7 25.32 21.2 C 24.78 19.7 24.04 15.86 23.41 13.82 C 22.85 12.01 19.58 4.11 17.39 0.97 M 25.32 58.38 C 9.88 35.28 8.37 32 8.37 32 C 6.59 28.86 2.9 23.93 11.11 23.93 C 21.77 23.93 30.53 24.04 33.12 23.8 C 34.91 23.63 36.26 23.52 37.49 23.25" horiz-adv-x="37.49"/><glyph unicode="5" glyph-name="5" d="M 14.04 50.18 C 18.14 50.32 21.97 50.18 23.47 50.04 C 24.98 49.91 35.09 50.18 35.09 50.18 M 15.68 55.92 C 14.72 53.05 12.13 44.99 11.99 44.17 C 11.85 43.35 10.49 37.47 8.98 28.99 C 10.62 30.22 19.94 31.07 20.87 31.32 C 26.62 32.82 36.37 28.44 32.63 13.82 C 29.61 2.03 13.36 -2.04 5.56 8.49" horiz-adv-x="35.09"/><glyph unicode="6" glyph-name="6" d="M 29.14 53.74 C 21.48 47.45 11.94 34.68 10 32 C 8.22 29.54 -2.46 2.21 16.97 2.47 C 32.67 2.68 30.95 18.83 30.78 20.24 C 29.55 30.36 19.16 29.7 16.56 29.13 C 12.66 28.26 10.27 26.8 7.54 25.57" horiz-adv-x="30.92"/><glyph unicode="7" glyph-name="7" d="M 2.82 50.18 C 10.2 50.18 21.41 49.63 21.41 49.63 C 21.41 49.63 26.47 50.73 23.46 44.03 C 20.45 37.33 19.36 33.23 18.81 32.41 C 18.27 31.59 14.85 20.65 14.03 19.83 C 13.21 19.01 10.06 9.85 10.06 9.85 L 8.01 4.39 L 6.1 0.15" horiz-adv-x="24.42"/><glyph unicode="8" glyph-name="8" d="M 21.61 29.95 C 23.8 30.91 26.7 31.79 28.58 33.78 C 30.93 36.26 38.87 50 23.66 52.78 C 10.24 55.23 9.85 40.89 12.45 38.01 C 13.81 36.51 16.13 33.34 17.92 32.14 C 19.54 31.05 25.98 28.58 27.76 26.8 C 29.23 25.33 32.33 18.55 31.59 14.64 C 30.82 10.57 29.68 3.4 19.56 2.2 C 12.68 1.38 6.52 7.37 6.57 13.95 C 6.62 19.98 9.72 24.21 16.96 28.45 C 18.02 29.06 21.61 29.95 21.61 29.95 Z" horiz-adv-x="32.75"/><glyph unicode="9" glyph-name="9" d="M 33.43 47.58 C 28.78 52.91 24.89 53.73 22.08 55.1 C 11.08 60.48 -4.39 41.2 11.15 29.68 C 14.52 27.17 22.67 29.21 25.09 31.18 C 27.13 32.84 29.33 34.87 30.56 37.74 C 30.94 38.63 33.16 45.53 33.16 45.53 C 33.16 45.53 31.44 38.99 28.37 31.32 C 27 27.88 25.09 24.34 24.41 22.02 C 23.72 19.7 22.12 15.85 20.72 12.18 C 19.6 9.25 17.85 2.88 15.93 -0.26" horiz-adv-x="33.43"/><glyph unicode=":" glyph-name=":" d="M 10.4 11.49 C 11.82 12.22 11.99 10.63 11.58 10.08 C 11.17 9.53 10.7 9.45 9.94 9.67 C 9.31 9.85 8.57 10.67 8.74 11.55 C 8.96 12.73 9.77 13.22 10.96 13.06 C 11.83 12.94 12.64 12.57 12.96 11.8 C 13.27 11.08 13.38 9.68 12.58 8.79 C 11.91 8.06 10.39 7.87 9.14 8.39 C 8.03 8.84 6.86 10.33 7.23 12.21 C 7.42 13.16 8.2 14.41 9.96 14.34 C 11.03 14.3 11.79 14.59 13.31 13.42 C 14.39 12.58 14.84 10.04 14.15 8.88 C 13.65 8.03 12.64 6.83 11.29 6.66 C 10.07 6.5 8.82 6.82 8.1 7.31 C 7.32 7.84 6.61 8.92 6.33 10.22 C 6.09 11.31 6.37 12.78 6.94 13.76 C 7.31 14.39 8.07 14.94 9.11 15.55 C 10.1 16.13 12.64 15.41 13.5 14.84 C 14.36 14.28 15.26 13.17 15.39 11.69 C 15.59 9.35 14.5 8.09 14.5 8.09 M 10.66 28.99 C 12.08 29.73 12.25 28.13 11.84 27.58 C 11.43 27.04 10.96 26.96 10.2 27.17 C 9.57 27.35 8.83 28.18 9 29.05 C 9.22 30.23 10.03 30.72 11.22 30.56 C 12.09 30.45 12.9 30.07 13.22 29.3 C 13.53 28.59 13.64 27.19 12.83 26.3 C 12.17 25.56 10.65 25.38 9.4 25.89 C 8.29 26.35 7.12 27.84 7.49 29.72 C 7.68 30.66 8.46 31.91 10.22 31.85 C 11.29 31.8 12.05 32.1 13.57 30.92 C 14.65 30.09 15.1 27.55 14.41 26.39 C 13.91 25.53 12.89 24.33 11.55 24.16 C 10.33 24 9.08 24.33 8.36 24.82 C 7.58 25.35 6.87 26.42 6.59 27.73 C 6.35 28.81 6.4 30.13 7.2 31.27 C 7.62 31.86 8.33 32.64 9.51 32.92 C 10.57 33.17 12.92 32.5 13.72 32.13 C 14.65 31.7 15.37 30.63 15.43 29.23 C 15.52 27.46 14.76 25.59 14.76 25.59" horiz-adv-x="15.44"/><glyph unicode=";" glyph-name=";" d="M 12.56 30.22 C 13.98 30.95 14.15 29.36 13.74 28.81 C 13.33 28.26 12.86 28.18 12.1 28.4 C 11.47 28.58 10.73 29.4 10.9 30.28 C 11.11 31.46 11.93 31.95 13.12 31.78 C 13.99 31.67 14.8 31.3 15.12 30.53 C 15.43 29.81 15.54 28.41 14.73 27.52 C 14.07 26.78 12.55 26.6 11.3 27.12 C 10.19 27.57 9.02 29.06 9.39 30.94 C 9.58 31.89 10.36 33.14 12.12 33.07 C 13.19 33.03 13.95 33.32 15.47 32.15 C 16.55 31.31 17 28.77 16.31 27.61 C 15.81 26.75 14.79 25.56 13.45 25.38 C 12.23 25.23 10.98 25.55 10.26 26.04 C 9.48 26.57 8.77 27.65 8.49 28.95 C 8.25 30.03 8.3 31.36 9.1 32.49 C 9.52 33.08 10.23 33.87 11.41 34.15 C 12.47 34.4 14.82 33.73 15.62 33.36 C 16.55 32.92 17.27 31.85 17.33 30.45 C 17.42 28.69 16.66 26.81 16.66 26.81 M 11.64 15.8 C 13.05 16.53 13.22 14.93 12.81 14.39 C 12.4 13.84 11.94 13.76 11.17 13.98 C 10.55 14.16 9.81 14.98 9.97 15.86 C 10.19 17.04 11 17.52 12.2 17.36 C 13.06 17.25 13.87 16.88 14.2 16.11 C 14.5 15.39 14.61 13.99 13.81 13.1 C 13.15 12.36 11.63 12.18 10.37 12.69 C 9.26 13.15 8.09 14.64 8.47 16.52 C 8.66 17.47 9.44 18.72 11.2 18.65 C 12.27 18.61 13.02 18.9 14.55 17.72 C 15.63 16.89 16.08 14.35 15.39 13.19 C 14.88 12.33 13.87 11.14 12.53 10.96 C 11.31 10.8 10.06 11.13 9.34 11.62 C 8.56 12.15 7.85 13.23 7.57 14.53 C 7.33 15.61 7.38 16.94 8.18 18.07 C 8.6 18.66 9.31 19.45 10.48 19.72 C 11.54 19.97 13.9 19.31 14.7 18.94 C 15.63 18.5 16.02 17.38 16.41 16.03 C 18.69 8.16 8.64 0.85 8.64 0.85" horiz-adv-x="17.34"/><glyph unicode="&lt;" glyph-name="&lt;" d="M 38.3 48.47 C 34.17 45.34 14.05 30.11 14.05 30.11 C 14.05 30.11 9.87 27.8 13.77 25.43 C 17.68 23.07 38.24 7.02 38.24 7.02" horiz-adv-x="38.3"/><glyph unicode="=" glyph-name="=" d="M 5.34 25.18 C 6.74 24.94 8.69 25.31 9.18 25.37 C 9.66 25.43 17.21 25.88 18.92 26.1 C 20.69 26.32 27.26 26.83 27.81 26.83 C 28.36 26.83 33.34 27.57 34.75 27.5 C 35.72 27.45 41.32 27.62 43.09 27.32 M 6.44 36.02 C 9.3 35.96 22.82 36.39 24.82 36.57 C 25.52 36.63 29.22 37.07 31.1 37.42 C 32.36 37.66 41.08 38.34 41.08 38.34" horiz-adv-x="43.09"/><glyph unicode="&gt;" glyph-name="&gt;" d="M 15.49 46.86 C 24.44 40.95 38.69 29.63 38.69 29.63 C 40.57 27.8 43.01 27.19 38.32 23.6 C 33.63 20.01 28.03 15.56 26.14 14.35 C 25.59 13.99 21.7 10.75 21.7 10.75 C 21.7 10.75 15.86 6.37 15.49 6.37" horiz-adv-x="41.03"/><glyph unicode="?" glyph-name="?" d="M 20.24 7.48 C 21.65 8.21 21.82 6.62 21.41 6.07 C 21 5.52 20.54 5.44 19.77 5.66 C 19.15 5.84 18.41 6.66 18.57 7.54 C 18.79 8.72 19.6 9.21 20.8 9.05 C 21.66 8.93 22.47 8.56 22.8 7.79 C 23.1 7.07 23.21 5.67 22.41 4.78 C 21.74 4.04 20.22 3.86 18.97 4.38 C 17.86 4.83 16.69 6.32 17.07 8.2 C 17.26 9.15 18.03 10.4 19.8 10.33 C 20.86 10.29 21.62 10.58 23.14 9.41 C 24.22 8.57 24.68 6.03 23.99 4.87 C 23.48 4.02 22.47 2.82 21.12 2.64 C 19.9 2.49 18.66 2.81 17.93 3.3 C 17.15 3.83 16.45 4.91 16.16 6.21 C 15.93 7.29 15.97 8.62 16.78 9.75 C 17.2 10.35 17.9 11.13 19.08 11.41 C 20.14 11.66 22.5 10.99 23.29 10.62 C 24.23 10.18 24.94 9.11 25.01 7.71 C 25.09 5.95 24.33 4.07 24.33 4.07 M 10.83 38.31 C 8.48 40.53 9.16 45.87 10.96 48.76 C 12.27 50.85 18.33 54.47 23.57 51.83 C 30.69 48.25 31.54 41.05 27.17 34.97 C 24.11 30.74 23.17 28.82 22.4 27.72 C 21.03 25.76 19.13 19.82 19 19.1" horiz-adv-x="29.84"/><glyph unicode="@" glyph-name="@" d="M 30.36 34.52 C 30.73 36.14 29.65 37.59 28.73 38.38 C 27.81 39.17 25.19 40.71 23.06 39.88 C 21.5 39.28 17.15 30.29 16.97 28.22 C 16.69 25.2 16.04 23.14 18.01 21.26 C 19.26 20.07 23.69 22.41 24.86 23.81 C 26.01 25.2 27.5 26.43 29.7 33.74 C 28.6 30.03 28.98 28.75 28.7 26.83 C 28.36 24.57 31.63 20.16 34.42 24.15 C 37.35 28.34 38.57 33.3 39.41 36.49 C 40.68 41.27 39.25 51.33 30.09 52.66 C 21.37 53.92 15.83 52.65 12.03 46.48 C 8.5 40.77 4.6 32.86 4.74 25.35 C 4.95 13.51 12.09 13.2 15.78 12.21 C 21.99 10.55 28.51 13.23 30.08 14.25 C 31.37 15.09 33.66 15.91 34.69 16.28" horiz-adv-x="39.81"/><glyph unicode="A" glyph-name="A" d="M 17.62 31.37 L 24 31.06 L 33.48 30.65 M 3.82 5.01 C 12.37 17.88 27.92 54.34 30.7 55.88 C 30.7 55.88 32.31 51.95 33.68 32.71 C 34.26 24.56 35.92 15.52 35.95 12.84 C 35.98 9.23 35.95 4.8 35.95 4.8" horiz-adv-x="35.96"/><glyph unicode="B" glyph-name="B" d="M 4.46 9.89 L 4.46 11.57 L 5.72 20.81 C 5.72 20.81 8.77 42.34 8.67 43.07 C 8.56 43.81 10.35 54.94 10.35 55.67 C 10.35 56.41 11.4 58.93 11.4 58.93 L 14.76 58.72 C 14.76 58.72 17.31 58.08 18.75 57.77 C 20.36 57.44 22.78 55.7 23.47 55.25 C 28.2 52.21 25.99 45.21 25.99 43.7 C 25.99 41.81 23.54 39.28 21.79 37.51 C 20.06 35.76 16.02 34.57 8.04 35.62 C 17.52 34.64 18.92 33.72 20.43 32.26 C 24.1 28.69 26.11 25.11 26.52 22.38 C 27.6 15.19 23.48 12.1 21.79 10.41 C 19.38 8 13.7 6.52 10.77 6.84 C 8.2 7.12 5.93 8.1 4.46 9.05" horiz-adv-x="26.7"/><glyph unicode="C" glyph-name="C" d="M 31.27 47.43 C 31.17 49.16 31.87 53.88 26.27 54.16 C 22.42 54.35 16.36 51.01 9.16 34.45 C 7.04 29.59 4.22 15.51 8.1 10.22 C 14.02 2.15 23.39 8.74 25.88 11.08 C 27.94 13.01 30.4 17.91 30.79 18.58" horiz-adv-x="31.27"/><glyph unicode="D" glyph-name="D" d="M 12.83 52.84 C 17.45 52.38 22.51 51.73 25.07 49.84 C 31.08 45.4 32.14 41.53 32.35 38.87 C 33.27 26.97 29.78 20.46 28.19 17.38 C 24.38 9.99 19.18 9.17 15.94 8.14 C 12.63 7.09 8.21 6.99 4.62 7.22 M 12.13 53.08 C 11.32 50.19 11.09 44.53 10.63 44.41 C 10.17 44.3 6.59 23.27 6.59 23.27 C 6.59 23.27 4.16 9.41 4.16 6.99" horiz-adv-x="32.5"/><glyph unicode="E" glyph-name="E" d="M 8.03 31.93 C 10.81 31.74 31.08 31.93 31.08 31.93 M 10.62 51.92 C 10.33 49.53 8.99 37.86 8.9 37.1 C 8.8 36.33 6.12 22.56 6.22 21.89 C 6.31 21.22 5.55 14.47 5.45 12.81 C 5.34 10.8 4.78 8.12 5.17 7.83 C 5.55 7.55 29.93 7.36 30.41 7.07 M 11.19 52.02 C 14.25 52.02 33.47 52.4 33.47 52.4" horiz-adv-x="33.47"/><glyph unicode="F" glyph-name="F" d="M 9.08 32.54 C 10.74 32.54 30.71 32.32 30.71 32.32 M 12.94 54.27 C 11.84 51.07 11.73 48.87 11.62 48.2 C 11.51 47.54 9.52 37.17 9.52 37.17 C 9.52 37.17 8.93 31.11 8.09 25.81 C 7.41 21.51 6.78 17.98 6.43 16.65 C 5.89 14.58 4.23 6.5 3.9 5.17 M 13.49 54.38 C 19.89 54.38 36.89 54.16 36.89 54.16" horiz-adv-x="36.89"/><glyph unicode="G" glyph-name="G" d="M 36.69 47.72 C 37 51.18 29.87 60.04 19.29 49.65 C 7.87 38.46 2.82 15.42 7.27 10.26 C 11.54 5.31 19.39 5.07 25.29 13.82 C 29.22 19.65 33.54 24.2 35.17 33.06 C 33.84 26.34 31.92 21.46 32.01 18.5 C 32.11 15.04 30.48 7.51 30.89 5.37" horiz-adv-x="36.7"/><glyph unicode="H" glyph-name="H" d="M 34.63 53.37 C 34.63 51.17 33.77 48.78 33.77 46.1 C 33.77 43.92 32.72 35.3 32.62 34.53 C 32.53 33.77 30.68 23.6 30.61 21.82 C 30.52 19.33 29.75 10.54 29.66 9.1 C 29.56 7.67 28.61 3.56 28.61 3.56 M 8.43 32.43 C 15.32 32.05 32.14 31.38 32.14 31.38 M 11.78 55.18 C 11.59 52.12 11.3 48.68 11.11 47.34 C 10.92 46.01 10.28 42.25 9.49 39.12 C 9.1 37.6 8.58 32.05 7.86 28.99 C 7.05 25.58 7.18 21.6 6.33 17.23 C 5.75 14.21 4.8 9.49 4.8 9.49 C 4.8 9.49 3.75 6.62 3.94 5.76" horiz-adv-x="34.63"/><glyph unicode="I" glyph-name="I" d="M 2.69 6.65 C 8.87 6.96 21.04 6.54 21.04 6.54 M 17.05 49.43 C 17.05 48.27 14.88 34.75 14.43 30.66 C 13.91 25.94 11.6 7.07 11.6 7.07 M 8.87 49.74 C 16.74 49.32 24.5 49.74 24.5 49.74" horiz-adv-x="24.5"/><glyph unicode="J" glyph-name="J" d="M 26.08 55.9 C 25.62 48.5 25.85 47.11 25.39 44.69 C 24.93 42.26 22.25 21.5 21.69 18.92 C 21.25 16.86 20.41 13.74 19.5 11.07 C 18 6.68 11.18 3.1 3.09 10.26" horiz-adv-x="26.08"/><glyph unicode="K" glyph-name="K" d="M 35.76 55.18 C 29.53 49.4 25.72 45.36 25.72 45.36 L 19.03 39.01 C 19.03 39.01 12.21 33.59 9.56 33.01 C 8.87 32.86 12.21 31.51 13.71 29.55 C 15.22 27.58 22.31 17.9 23.07 16.73 C 24.8 14.08 32.53 4.03 32.53 4.03 M 12.56 56.91 C 12.33 52.41 11.52 46.75 10.25 41.09 C 9.93 39.66 6.8 18.21 5.98 15 C 5.16 11.8 3.79 5.3 3.79 4.84" horiz-adv-x="35.76"/><glyph unicode="L" glyph-name="L" d="M 10.37 55.74 C 10.23 51.66 9.84 46.68 8.82 40.27 C 7.89 34.38 5.99 17.09 5.31 13.27 C 4.02 6.02 4.89 6.66 8.12 6.52 C 11.91 6.35 30.9 6.24 30.9 6.24" horiz-adv-x="30.9"/><glyph unicode="M" glyph-name="M" d="M 3.48 4.9 C 7.33 14.42 8.19 17.2 8.19 17.2 L 20.48 50.13 C 20.48 50.13 22.94 28.42 22.94 28 C 22.94 24.15 24.22 16.02 24.22 16.02 L 24.65 5.22 C 25.51 9.71 32.78 25.86 33.95 28.64 C 35.06 31.25 42.81 52.12 43.04 50.24 C 43.36 47.67 46.78 7.26 47.43 5.33" horiz-adv-x="47.43"/><glyph unicode="N" glyph-name="N" d="M 4.24 4.8 C 5.84 11.32 6.48 22.87 6.48 22.87 C 6.48 22.87 7.87 37.41 8.09 38.9 C 8.3 40.4 8.3 51.73 9.15 50.45 C 10.01 49.17 17.36 33.8 17.81 33.13 C 19.42 30.78 26.15 15.06 26.15 15.06 C 26.15 15.06 28.45 9.67 29.79 6.19 C 30.54 12.39 31.27 20.72 31.5 24.9 C 31.69 28.32 31.93 33.79 32.68 38.05 C 33.1 40.51 34.07 45.64 34.07 47.35 C 34.07 49.06 34.71 52.59 34.71 52.59" horiz-adv-x="34.71"/><glyph unicode="O" glyph-name="O" d="M 25.3 54.51 C 22.84 55.58 19.55 55.76 16.22 53.55 C 7.61 47.85 5.1 31.1 4.67 24.36 C 4.24 17.63 7.02 8.65 11.73 7.36 C 16.18 6.15 22.5 7.21 25.95 12.49 C 29.15 17.41 32.15 27.78 32.25 33.98 C 32.34 39.12 33.39 44.15 31.61 47.67 C 29.41 52.02 26.05 54.19 25.3 54.51 Z" horiz-adv-x="32.64"/><glyph unicode="P" glyph-name="P" d="M 4.69 3.29 C 4.69 5.13 5.22 9.94 5.7 12.66 C 6.68 18.2 10.25 42.23 10.11 46.45 C 9.99 50.04 11.49 55.18 11.67 55.55 C 17.64 55.91 24.19 55.24 27.65 50.13 C 30.67 45.66 32.12 37.34 26.73 31.39 C 22.83 27.08 17.46 25.4 14.52 25.33 C 12.18 25.28 9.93 25.24 7.72 26.07" horiz-adv-x="30.35"/><glyph unicode="Q" glyph-name="Q" d="M 17.6 18.81 C 21.36 16.88 24.58 16.33 26.23 13.12 C 27.88 9.9 30.36 5.68 30.92 4.39 C 31.47 3.1 34.22 -1.67 34.41 -2.13 M 26.97 55.82 C 21.67 58.01 14.27 54.41 10.71 46.55 C 7.58 39.64 5.02 24.23 4.56 18.99 C 4.25 15.52 6.47 4.1 16.5 6.59 C 22.01 7.97 25.18 9.43 31.47 25.88 C 35.47 36.36 34.5 40.21 33.58 46.91 C 32.98 51.31 32.39 53.58 26.97 55.82 Z" horiz-adv-x="34.41"/><glyph unicode="R" glyph-name="R" d="M 4.06 5.03 C 4.06 5.58 4.88 13.87 5.34 15.96 C 6.04 19.15 7.18 30.75 7.18 30.75 C 7.18 30.75 8.8 46.65 9.2 51.78 C 9.38 54.1 9.66 58.21 10.76 59.31 C 15.63 59.68 22.08 57.29 23.71 56.28 C 29.96 52.42 28.95 44.8 24.54 38.46 C 23.54 37.03 16.33 30.79 7.64 34.51 C 10.82 32.75 10.63 33.71 13.06 30.57 C 14.53 28.66 16.37 24.95 17.01 24.14 C 18.66 22.02 21.6 17.62 22.24 16.42 C 22.88 15.23 27.11 7.88 29.68 5.22" horiz-adv-x="29.68"/><glyph unicode="S" glyph-name="S" d="M 30.47 50.31 C 30.19 54.26 17.62 60.23 12.19 53.71 C 8.06 48.75 11.82 41.5 12.83 40.39 C 13.84 39.29 28.22 26.1 28.81 24.87 C 32.3 17.62 25.27 9.43 23.3 8.25 C 16.69 4.3 10.5 6.74 8.97 8.16 C 7.62 9.41 3.56 13.67 3.46 14.22" horiz-adv-x="30.47"/><glyph unicode="T" glyph-name="T" d="M 19.68 52.33 C 18.3 45.72 17.2 39.84 17.29 39.38 C 17.38 38.92 16.65 33.41 16.74 32.77 C 16.83 32.13 15.5 22.86 14.9 19.27 C 14.37 16.09 13.49 10.72 13.43 10.18 L 12.97 5.68 M 2.78 52.61 C 9.12 52.06 18.58 52.7 19.13 52.42 C 19.68 52.15 35.29 53.25 35.84 52.79" horiz-adv-x="35.84"/><glyph unicode="U" glyph-name="U" d="M 7.05 56.47 C 6.96 53.43 6.72 50.31 5.59 43.06 C 3.84 31.93 3.93 19.45 8.34 11.83 C 10.94 7.33 18.93 5.52 23.86 12.56 C 28.36 18.99 29.53 25.19 30.93 32.95 C 32.11 39.46 34.33 52.79 33.69 53.53" horiz-adv-x="33.8"/><glyph unicode="V" glyph-name="V" d="M 4.07 57.29 C 4.81 52.79 9.13 16.79 9.13 16.79 C 9.13 16.79 10.14 5.77 10.59 5.77 C 11.05 5.77 18.31 20.37 22.17 29.65 C 26.02 38.92 34.57 57.84 34.57 57.84" horiz-adv-x="34.57"/><glyph unicode="W" glyph-name="W" d="M 4.68 50.95 C 5.13 46.27 9.45 5.4 9.82 4.67 C 10.19 3.93 16.25 20.65 16.25 20.65 L 29.11 50.59 L 34.25 4.94 L 51.61 51.78" horiz-adv-x="51.61"/><glyph unicode="X" glyph-name="X" d="M 38.98 56.83 C 37.61 54.17 36.5 51.23 35.4 50.13 C 34.3 49.03 2.98 5.13 2.98 5.13 M 10.88 55.82 C 12.99 51.51 26.68 24.41 27.04 23.77 C 27.41 23.13 36.32 5.68 36.32 5.68" horiz-adv-x="38.98"/><glyph unicode="Y" glyph-name="Y" d="M 34.17 56.28 C 31.59 51.87 21.21 38.67 15.43 32.77 C 14.52 28.99 13.96 25.79 13.96 25.79 C 13.96 25.79 13.05 19.28 12.77 14.59 C 12.63 12.24 11.57 4.76 11.57 4.76 M 3.49 56.19 C 5.33 52.61 15.25 32.59 15.25 32.59" horiz-adv-x="34.17"/><glyph unicode="Z" glyph-name="Z" d="M 9.05 51.14 C 17.41 51.23 34.49 51.23 34.49 50.77 C 34.49 50.31 10.98 16.61 10.61 16.42 C 10.25 16.24 5.65 8.25 5.65 8.25 L 5.1 7.15 L 19.25 6.96 C 19.25 6.96 32.29 7.33 33.57 6.59" horiz-adv-x="34.49"/><glyph unicode="[" glyph-name="[" d="M 26.92 56.65 C 24.9 56.92 17.28 58.21 16.73 56.37 C 16.73 56.37 16.85 34.9 17 31.39 C 17.19 27.06 17 -2.41 17 -2.41 C 17.28 -4.89 18.84 -4.79 20.58 -4.7 C 22.63 -4.59 26.64 -5.53 28.3 -5.07" horiz-adv-x="28.3"/><glyph unicode="\" glyph-name="\" d="M 4.93 53.43 C 8.57 49.16 11.48 45.13 13.29 41.13 C 14.36 38.76 16.33 36.85 16.96 35.25 C 18.38 31.6 22.02 23.27 24.4 19.54 C 27.27 15.05 26.85 14.42 28.71 11.28" horiz-adv-x="28.71"/><glyph unicode="]" glyph-name="]" d="M 7.46 58.21 C 10.58 58.85 16.02 58.38 17.28 58.39 C 19.65 58.43 19.31 57.29 19.21 53.07 C 19.2 52.22 19.13 -0.08 18.94 -2.13 C 18.79 -3.71 14.53 -3.23 7.37 -3.69" horiz-adv-x="19.28"/><glyph unicode="^" glyph-name="^" d="M 4.57 51.69 C 9.07 55.46 18.5 67.33 19.82 70.15 L 24.32 60.32 C 24.32 60.32 28.45 53.16 29.46 52.06" horiz-adv-x="29.46"/><glyph unicode="_" glyph-name="_" d="M 4.45 5.6 C 16.51 6.77 50 6.87 55.72 6.77 C 59.97 6.69 66.27 6.92 67.74 5.94" horiz-adv-x="67.74"/><glyph unicode="a" glyph-name="a" d="M 22.49 26.36 C 19.58 44.35 -3.03 12.8 6.42 6.37 C 13.04 1.86 16.97 13.9 17.77 15.01 C 18.57 16.11 22.09 24.95 22.49 26.36 C 22.89 27.77 18.77 16.82 18.77 15.71 C 18.77 14.61 17.37 -2.47 28.42 13.8" horiz-adv-x="28.42"/><glyph unicode="b" glyph-name="b" d="M 13.12 60.84 C 14.19 59.27 7.15 23.89 6.3 17.85 C 6.23 17.36 5.43 11.03 4.74 6.49 C 5.54 13.16 6.87 21.34 7.51 25.67 C 8.39 29.01 21.2 38.63 23.35 24.89 C 24.49 17.62 16.51 5.31 9.85 5.56 C 7.97 5.64 4.95 6.35 4.74 6.63" horiz-adv-x="23.46"/><glyph unicode="c" glyph-name="c" d="M 20.75 28.72 C 20.04 30.22 18.53 31.31 17.27 31.85 C 8.95 35.4 -0.56 13.8 6.61 8.26 C 11.05 4.84 18.97 7.84 21.6 13.09" horiz-adv-x="21.6"/><glyph unicode="d" glyph-name="d" d="M 24.04 33.27 C 22.12 33.56 11.44 36.24 4.64 15.58 C 2.94 10.4 6.42 1.99 16.79 12.88 C 22.89 19.29 23.61 33.13 24.25 35.55 C 24.89 37.96 28.3 62.4 28.3 62.4 L 23.33 29.29 C 23.33 29.29 20.91 16.01 20.91 14.94 C 20.91 13.88 20.2 3.22 29.87 12.53" horiz-adv-x="29.87"/><glyph unicode="e" glyph-name="e" d="M 6.02 18.92 C 8.22 18.64 18.34 19.31 19.23 28.01 C 19.43 29.95 15.04 33.13 12.13 30.36 C 7.97 26.4 1.2 11.76 6.37 7.77 C 11.94 3.46 17.81 11.11 18.95 13.38" horiz-adv-x="19.24"/><glyph unicode="f" glyph-name="f" d="M 0.25 36.21 C 7.52 35.84 18.48 36.7 18.48 36.7 M 23.29 66.9 C 17.62 66.03 11.4 60.79 10.47 51.86 C 9 37.57 8.09 19.53 8.01 17.97 C 7.76 12.92 7.82 -1.33 5.42 -6.06 C 1.48 -13.82 -0.86 -18.01 -7.52 -19.24" horiz-adv-x="23.29"/><glyph unicode="g" glyph-name="g" d="M 23.86 33.99 C 21.4 37.69 9.77 35.14 5.13 18.47 C 2.17 7.85 12.62 5.95 18.56 13.78 C 20.85 16.79 23.25 22.41 24.35 33.38 C 22.51 20.81 21.27 18.47 21.27 14.52 C 21.27 12.92 20.73 -2.48 18.44 -8.28 C 16.02 -14.39 9.64 -20.82 3.53 -15.79 C -1.4 -11.74 0.57 -3.59 2.17 1.46" horiz-adv-x="24.35"/><glyph unicode="h" glyph-name="h" d="M 13.22 61.72 L 4.1 3.55 L 7.18 22.9 C 7.18 22.9 13.92 35.61 22.58 31.41 C 25.71 29.89 21.91 16.89 20.37 12.43 C 18.8 7.91 22.21 1.58 29.12 12.06" horiz-adv-x="29.12"/><glyph unicode="i" glyph-name="i" d="M 2.08 20.81 L 11.57 32.14 L 7.63 11.93 C 7.63 11.93 5.66 -4.7 13.67 11.93 M 13.79 41.71 C 14.06 41.6 14.08 42.29 13.86 42.54 C 13.56 42.88 12.88 42.34 12.69 42.18 C 12.51 42.02 12.55 41.33 12.98 40.84 C 13.3 40.48 14.11 40.84 14.19 40.95 C 14.39 41.19 14.63 41.55 14.68 41.87 C 14.76 42.4 14.52 43.06 14.17 43.3 C 13.79 43.56 12.25 43.42 11.94 42.82 C 11.49 41.94 11.75 41.06 12.1 40.46 C 12.48 39.82 13.73 39.79 14.09 39.94 C 14.55 40.12 15.32 40.7 15.54 41.28 C 15.66 41.62 15.76 42.33 15.65 42.7 C 15.49 43.21 14.94 44.09 14.22 44.31 C 13.09 44.66 12.43 44.49 11.94 44.16 C 11.26 43.71 10.58 43.14 10.58 42.61 C 10.58 42.03 10.6 40.61 11.25 39.89 C 11.94 39.12 12.79 38.99 13.35 38.91 C 13.91 38.83 15.27 39.43 15.75 40.25 C 16.17 40.97 16.21 41.78 16.15 42.5 C 16.09 43.32 15.69 43.81 15.31 44.22 C 14.67 44.92 13.15 44.82 12.53 44.55" horiz-adv-x="16.18"/><glyph unicode="j" glyph-name="j" d="M 1.2 16.13 C 4.47 19.55 10.37 29.49 10.68 28.09 C 10.99 26.7 9.44 2.77 8.04 -4.54 C 6.64 -11.84 3.69 -16.35 -7.5 -17.75 M 12.42 37.14 C 12.75 37.27 12.78 36.43 12.52 36.14 C 12.15 35.72 11.34 36.38 11.11 36.57 C 10.88 36.77 10.94 37.6 11.45 38.18 C 11.84 38.62 12.81 38.18 12.91 38.06 C 13.15 37.77 13.44 37.34 13.5 36.95 C 13.6 36.31 13.31 35.51 12.88 35.22 C 12.43 34.91 10.57 35.07 10.2 35.8 C 9.66 36.86 9.97 37.92 10.4 38.65 C 10.85 39.41 12.36 39.45 12.79 39.28 C 13.34 39.05 14.28 38.36 14.54 37.65 C 14.69 37.25 14.81 36.4 14.67 35.95 C 14.48 35.33 13.81 34.27 12.95 34.01 C 11.59 33.58 10.79 33.78 10.2 34.18 C 9.38 34.72 8.57 35.41 8.57 36.05 C 8.57 36.76 8.58 38.47 9.36 39.33 C 10.2 40.26 11.22 40.42 11.9 40.51 C 12.57 40.61 14.23 39.71 14.8 38.72 C 15.31 37.85 15.46 36.88 15.18 36.05 C 14.91 35.21 14.17 34.68 13.71 34.19" horiz-adv-x="15.32"/><glyph unicode="k" glyph-name="k" d="M 10.75 61.04 C 9.66 51.87 5.16 14.11 5.16 14.11 L 3.6 5.25 L 6.55 25.14 C 6.55 25.14 9.47 29.09 11.68 30.27 C 14.01 31.51 20.03 34.81 21.78 30.27 C 23.62 25.5 19.35 24.88 17.59 24.21 C 15.43 23.39 15.1 22.5 6.55 24.68 C 8.11 23.59 10.81 23.99 12.46 22.5 C 15.72 19.55 16.03 15.04 16.03 15.04 C 16.5 8.67 25.2 1.21 30.33 13.18" horiz-adv-x="30.33"/><glyph unicode="l" glyph-name="l" d="M 11.6 61.04 C 10.82 49.38 7.43 27.15 5.85 20.32 C 2.27 4.94 8.33 -0.19 14.08 12.4" horiz-adv-x="14.08"/><glyph unicode="m" glyph-name="m" d="M 3.74 28.87 C 6.27 30.6 11.19 33.45 12.13 29.96 C 12.44 26.7 11.53 22.65 10.27 17.68 C 9.24 13.64 8.4 7.43 7.31 4.94 C 8.71 6.65 10.27 21.26 12.29 25.92 C 14 29.88 23.72 37.94 21.3 20.64 C 19.95 10.99 20.37 15.04 18.81 4.94 C 20.06 10.85 21.29 22.74 21.61 24.68 C 22.54 30.43 35.59 36.62 33.89 25.92 C 32.72 18.59 32.24 15.25 31.71 12.24 C 31.24 9.6 36.99 3.23 38.55 13.8" horiz-adv-x="38.55"/><glyph unicode="n" glyph-name="n" d="M 1.94 27.47 C 1.79 29.8 13.71 34.17 12.66 27.32 C 11.53 19.9 9.25 14.26 7.69 4.79 C 8.47 8.98 10.96 19.55 12.35 24.83 C 13.75 30.11 24.16 36.64 22.92 25.76 C 21.55 13.79 19.66 13.02 20.12 8.83 C 20.34 6.92 21.21 -0.34 27.58 13.02" horiz-adv-x="27.58"/><glyph unicode="o" glyph-name="o" d="M 7.81 6.72 C 11.18 5.01 16.82 5.94 20.09 16.97 C 23.35 28.01 20.09 30.65 19 30.96 C 17.91 31.27 10.63 36.32 6.72 23.34 C 3.9 13.96 3.65 8.83 7.81 6.72 Z" horiz-adv-x="21.5"/><glyph unicode="p" glyph-name="p" d="M 9.07 33.55 C 12.61 36.59 25.38 41.27 23.99 25.21 C 22.6 9.16 12.36 9.28 7.8 9.16 M 2.12 30.39 C 5.53 33.18 9.32 39.12 9.19 44.3 C 8.56 36.21 9.19 28.37 8.82 22.18 C 8.58 18.34 7.68 6.12 7.55 3.09 C 7.43 0.05 5.53 -13.85 -4.84 -19.54" horiz-adv-x="24.09"/><glyph unicode="q" glyph-name="q" d="M 24.48 31.53 C 23.47 39.37 15.36 41.85 5.14 21.42 C -1.31 8.52 13.25 8.66 16.77 14.59 C 21.93 23.28 20.69 18.51 24.36 30.9 C 21.57 24.07 18.03 4.98 17.4 0.05 C 16.84 -4.35 14.58 -16.97 15.89 -16.63 C 18.15 -16.05 22.97 -13.22 23.6 -12.08" horiz-adv-x="24.48"/><glyph unicode="r" glyph-name="r" d="M 2.35 23.44 C 6.14 27.99 8.67 28.37 9.43 27.11 C 10.19 25.84 6.52 11.94 5.13 4.98 C 6.65 11.43 9.05 22.3 9.56 24.2 C 10.07 26.11 24.47 39.5 23.59 25.21" horiz-adv-x="23.63"/><glyph unicode="s" glyph-name="s" d="M 23.58 28.88 C 18.4 35.83 4.35 29.29 12.96 21.8 C 25.79 10.63 13.09 -0.58 4.11 10.55" horiz-adv-x="23.58"/><glyph unicode="t" glyph-name="t" d="M 2.21 32.54 C 8.27 32.42 16.49 32.67 19.02 32.42 M 4.86 25.97 C 12.57 31.15 11.75 37.49 12.32 43.92 C 11.67 34.29 8.81 17.01 8.4 12.82 C 7.96 8.29 11.69 1.44 18.64 15.35" horiz-adv-x="19.02"/><glyph unicode="u" glyph-name="u" d="M 2.96 24.58 C 6.5 27.11 8.39 27.36 9.53 32.54 C 10.67 22.18 6.02 9.98 7.51 7.64 C 14.68 -3.64 23.56 18.51 25.08 33.43 C 24.45 21.42 18.2 12.54 20.78 7.77 C 21.84 5.8 26.6 6.63 31.4 13.96" horiz-adv-x="31.4"/><glyph unicode="v" glyph-name="v" d="M 2.57 24.83 C 6.87 27.23 8.38 24.45 10.41 34.31 C 8.76 27.74 6.31 6 8.13 5.24 C 8.56 5.06 23.43 18.76 25.45 32.92" horiz-adv-x="25.45"/><glyph unicode="w" glyph-name="w" d="M 2.68 23.95 C 4.83 24.83 11.28 28.24 11.28 33.43 C 9.66 18.15 10.31 2.62 11 5.41 C 12.97 13.43 19.81 27.73 25.23 33.58 C 24.18 25.03 26.2 12.56 26.58 5.24 C 26.71 2.6 39.09 22.05 39.6 33.43" horiz-adv-x="39.6"/><glyph unicode="x" glyph-name="x" d="M 35.54 31.53 C 33.02 36.4 21.33 27.22 19.28 18.57 C 17.56 11.3 27.26 0.5 31.12 12.44 M 7.1 28.24 C 18.73 41.52 29.73 10.67 2.93 5.87" horiz-adv-x="35.54"/><glyph unicode="y" glyph-name="y" d="M 1.53 25.97 C 6.71 27.36 9.11 29.26 9.11 37.22 C 10.13 30.52 7.2 18.75 7.09 16.61 C 6.82 11.14 10.83 4.39 19.35 16.74 C 23.02 22.05 23.15 25.72 24.28 37.22 C 23.78 32.04 21.87 16.24 21.88 14.97 C 22.01 5.11 19.78 -8.45 17.08 -11.45 C 12.53 -16.51 10 -18.78 0.64 -18.15" horiz-adv-x="24.28"/><glyph unicode="z" glyph-name="z" d="M 7.34 32.42 C 15.55 32.29 20.45 31.98 25.03 32.29 C 23.61 27.95 16.91 22.63 13.78 19.27 C 12.12 17.48 3.42 7.89 5.19 7.64 C 6.96 7.39 22.63 7.01 22.63 7.01" horiz-adv-x="25.03"/><glyph unicode="{" glyph-name="{" d="M 23.38 70.09 C 21.86 70.72 8.12 73.86 9.98 58.08 C 11.37 46.32 14.53 48.85 15.67 41.52 C 16.3 37.45 10.61 31.28 7.71 30.27 C 14.91 30.9 15.29 25.97 15.8 23.57 C 17.29 16.48 16.56 4.98 16.43 -0.33 C 16.39 -2.03 18.58 -4.37 21.11 -3.61" horiz-adv-x="23.38"/><glyph unicode="|" glyph-name="|" d="M 14.27 62.38 C 13.51 57.19 13.95 51.89 13.89 49.23 C 13.74 42.24 12.23 26.4 12.25 19.14 C 12.28 10.16 11.62 1.7 11.62 1.7" horiz-adv-x="14.27"/><glyph unicode="}" glyph-name="}" d="M 5.41 68.83 C 8.19 70.72 16.03 70.47 17.8 63.77 C 19.57 57.07 14.38 49.35 14.26 48.47 C 13.88 45.56 9.08 40.13 25.39 38.48 C 21.21 38.23 19.57 34.44 19.19 32.92 C 18.81 31.41 18.43 24.83 18.69 21.17 C 18.82 19.21 19.32 8.65 19.19 6.12 C 19.07 3.59 19.24 -0.1 19.44 -2.73 C 19.67 -5.67 14.51 -6.14 9.84 -3.23" horiz-adv-x="25.39"/><glyph unicode="~" glyph-name="~" d="M 4.14 29.38 C 12.74 34.82 22.72 39.75 27.91 33.05 C 33.09 26.35 45.23 30.9 46.11 32.29" horiz-adv-x="46.11"/><glyph unicode="£" glyph-name="£" d="M 8.8 32.87 C 17.39 32.87 33.1 33.37 33.1 33.37 C 33.1 33.37 46.32 33.7 47.15 33.37 M 55.74 64.28 C 45 73.21 21.19 72.21 21.86 44.44 C 22.52 16.67 11.28 4.61 7.47 3.95 C 3.67 3.28 55.74 3.61 56.57 3.12" horiz-adv-x="56.57"/><glyph unicode="¢" glyph-name="¢" d="M 38.38 68.02 C 36.85 58.06 35.32 35.44 34.49 26.02 C 34.33 18.25 31.32 -8.54 31.32 -8.54 M 54.42 46.35 C 3.4 74.81 -8.32 -13.89 54.37 7.1" horiz-adv-x="54.42"/><glyph unicode="¤" glyph-name="¤" d="M 64.36 15.19 C 65.85 13.7 69.81 8.24 70.48 7.42 C 71.14 6.59 71.47 3.28 71.47 3.28 M 36.75 13.37 C 36.09 11.05 29.98 2.29 29.32 2.29 M 71.14 61.47 C 70.81 58.33 65.85 48.91 64.86 48.91 M 26.67 60.81 C 30.14 58 36.26 50.23 36.92 49.57 M 66.18 48.08 C 58.74 54.2 40.56 51.39 32.95 38.33 C 25.35 25.27 37.01 11.2 52.46 12.54 C 68.3 13.92 79.9 28.74 66.18 48.08 Z" horiz-adv-x="72.27"/><glyph unicode="¥" glyph-name="¥" d="M 8.84 11.71 C 13.96 12.54 25.87 12.87 26.53 12.38 C 27.19 11.88 38.1 12.54 38.76 12.38 C 39.42 12.21 53.64 12.54 53.64 12.54 M 9.17 25.6 C 15.29 26.1 25.37 25.6 27.19 25.77 C 29.01 25.93 36.78 25.43 38.93 25.6 C 41.07 25.77 52.81 26.26 53.8 25.6 M 52.65 72.88 C 51.49 70.89 48.02 61.8 47.03 60.15 L 46.03 58.49 C 46.03 58.49 37.27 42.3 37.11 41.47 C 36.94 40.64 32.48 32.87 32.15 30.06 C 31.82 27.25 31.65 9.07 31.65 9.07 L 31.16 0.47 M 9.5 72.71 C 10.82 68.74 22.4 48.74 22.4 48.74 C 22.4 48.74 32.15 31.72 31.98 29.9" horiz-adv-x="53.8"/><glyph unicode="¦" glyph-name="¦" d="M 22.42 19.65 C 22.09 14.19 22.09 8.3 22.09 5.93 L 22.09 -8.29 L 22.42 -19.36 M 22.75 75.69 C 23.08 66.43 22.91 62.96 22.58 56.68 C 22.25 50.4 22.75 45.11 22.75 45.11 C 22.75 45.11 22.58 37.83 22.25 37.17" horiz-adv-x="22.93"/><glyph unicode="§" glyph-name="§" d="M 46.41 44.44 C 41.28 41.47 32.94 36.77 36.32 30.89 C 40.79 23.12 48.69 23.56 54.01 21.63 C 58.74 19.92 76.68 15.01 58.31 5.27 C 48.4 0.01 39.39 1.45 35.33 2.46 C 32.09 3.26 31.2 8.57 35.33 11.55 M 61.12 53.7 C 68.56 55.19 51.93 66.47 41.12 58.66 C 35.18 54.37 43.95 44.43 49.55 42.3 C 62.43 37.37 60.03 31.78 50.87 29.57 C 44.58 28.05 37.98 28.74 37.98 28.74" horiz-adv-x="66.41"/><glyph unicode="¨" glyph-name="¨" d="M 59.98 69.4 C 62.79 67.26 64.94 66.93 64.94 66.93 M 35.19 67.09 C 38.16 64.78 40.97 63.78 41.64 63.45" horiz-adv-x="64.94"/><glyph unicode="©" glyph-name="©" d="M 67.78 54.69 C 57.86 61.3 32.15 62.33 32.4 41.96 C 32.71 16.49 59.34 12.54 66.95 24.44 M 66.12 76.02 C 51.08 80.48 13.46 80.99 11.08 38 C 9.34 6.64 44.8 0.31 52.07 0.14 C 59.34 -0.02 87.19 8.16 89.76 37.01 C 91.65 58.26 78.19 71.88 66.12 76.02 Z" horiz-adv-x="89.94"/><glyph unicode="«" glyph-name="«" d="M 56.25 49.9 C 52.28 47.09 48.95 43.65 46.5 41.47 C 42.47 37.88 37.9 35.35 37.9 35.35 L 33.27 32.05 C 33.27 32.05 35.78 29.23 39.55 26.43 C 41.39 25.06 45.24 21.3 47.65 19.98 C 50.12 18.63 54.76 14.69 55.42 14.36 M 35.09 51.06 C 30.13 46.59 23.39 40.54 20.05 38.16 C 18.05 36.75 10.62 31.72 10.62 31.72 C 10.62 31.72 15.42 28.08 17.4 26.1 C 20.21 24.61 22.45 22.87 25.17 20.81 C 27.42 19.11 34.1 13.7 34.76 13.53" horiz-adv-x="56.25"/><glyph unicode="®" glyph-name="®" d="M 37.3 10.89 C 37.63 11.55 37.47 18.32 37.47 22.13 C 37.47 27.25 37.63 34.53 37.8 36.84 C 37.94 38.85 38.3 45.44 39.12 53.37 C 57.97 56.18 80.12 44.11 55.49 33.86 C 50.32 31.72 46.56 31.72 38.13 33.04 C 49.7 30.72 51.36 33.59 54.66 29.4 C 58.35 24.71 60.19 22.61 62.26 19.81 C 64.15 17.28 66.11 15.41 66.89 14.69 C 68.88 12.87 69.87 10.72 69.87 10.72 M 54 71.39 C 38.46 74.2 15.98 61.8 11.02 41.47 C 6.06 21.14 17.63 8.08 19.45 6.26 C 21.27 4.44 32.51 -4.65 34.16 -5.31 C 35.82 -5.97 45.24 -10.93 56.15 -7.3 C 67.06 -3.66 76.81 -0.08 81.11 7.09 C 87.06 17 90.56 27.34 89.54 35.85 C 88.55 44.11 83.99 54.79 77.47 60.64 C 64.41 72.38 57.64 70.07 54 71.39 Z" horiz-adv-x="89.72"/><glyph unicode="¯" glyph-name="¯" d="M 0.13 84.61 C 8.56 83.79 19.8 84.45 19.8 84.45 C 19.8 84.45 33.36 85.11 35.34 84.61 C 37.33 84.12 47.9 84.94 50.22 84.61 C 52.53 84.28 61.13 84.61 63.28 84.78" horiz-adv-x="63.28"/><glyph unicode="°" glyph-name="°" d="M 25.83 64.73 C 22.74 70.8 12.55 71.48 12.09 60.49 C 11.64 49.5 21.31 53.46 22.74 55.57 C 24.83 58.67 27.55 60.61 25.83 64.73 Z" horiz-adv-x="26.38"/><glyph unicode="±" glyph-name="±" d="M 27.19 11.49 C 31.74 11.07 36.51 11.28 39.05 11.7 C 41.6 12.12 47.95 12.44 52.72 12.97 C 57.49 13.5 65.01 13.71 67.66 12.97 C 70.31 12.23 70.63 11.91 71.58 10.11 M 47.95 54.71 C 49.12 52.81 50.17 49.96 50.6 47.3 C 50.98 45 51.31 41.87 51.56 39.03 C 51.87 35.35 52.72 30.88 52.72 27.8 C 52.72 24.73 51.56 19.65 51.34 18.8 M 35.03 35.96 C 41.28 35.54 43.29 35.9 45.52 35.86 C 48.49 35.79 51.25 36.27 53.46 35.96 C 55.47 35.68 58.52 35.55 59.18 35.64 C 62.06 36.05 62.95 36.23 63.84 38.61" horiz-adv-x="71.58"/><glyph unicode="´" glyph-name="´" d="M 39.78 81.73 C 39.67 80.25 38.93 78.76 37.02 76.33 C 35.12 73.89 33.21 70.18 32.26 68.38 C 31.3 66.58 30.14 64.46 29.82 63.93" horiz-adv-x="39.78"/><glyph unicode="·" glyph-name="·" d="M 48.82 35.64 C 46.92 34.41 46.46 37.1 47.54 38.19 C 48.55 39.19 49.99 38.5 50.4 37.97 C 51.28 36.88 51.47 36.08 51.04 34.8 C 50.65 33.63 49.07 33.01 48.41 33.17 C 47.3 33.44 46.24 33.11 45.53 34.48 C 44.64 36.21 44.55 37.21 45.21 38.52 C 45.87 39.83 46.95 40.97 47.97 41.1 C 49.06 41.24 50.47 41.55 51.78 40.62 C 52.48 40.13 53.17 38.31 53.58 36.92 C 54.09 35.21 53.45 33.09 52.31 32.04 C 51.48 31.28 50.34 30.45 48.5 30.56 C 47.12 30.64 46.23 30.78 44.79 31.83 C 43.21 32.99 42.23 35 42.16 36.28 C 42.06 38.18 42.5 40.73 43.14 41.79 C 43.77 42.85 45.89 44.06 47.23 44.86 C 49.1 45.99 51.99 44.86 52.52 44.54 C 53.05 44.23 55.64 41.4 56.12 39.78 C 56.73 37.75 56.89 36.02 56.68 33.91 C 56.47 31.76 55.49 30.59 54.22 29.71 C 52.79 28.72 51.03 28.12 49.77 27.91 C 48.6 27.72 46.13 27.87 45.53 28.33 C 44.56 29.29 44.31 28.75 43.09 31.09 C 42.63 32.41 42.09 33.89 41.93 34.58" horiz-adv-x="56.77"/><glyph unicode="»" glyph-name="»" d="M 29.4 50.86 C 31.53 48.89 36.38 46 39.42 43.27 C 42.45 40.54 48.22 35.83 48.83 35.23 C 49.44 34.62 52.02 32.49 52.62 31.89 C 53.23 31.28 48.22 27.49 44.58 24.75 C 40.94 22.02 37.9 18.83 36.84 18.08 C 35.78 17.32 30.46 13.67 29.55 12.76 M 8.3 49.34 C 9.37 48.13 12.32 46.54 14.98 44.49 C 17.02 42.91 19.38 41.6 21.96 39.63 C 24.02 38.06 30.7 32.95 30.77 32.19 C 30.92 30.37 25.32 26.64 23.18 25.36 C 20.27 23.62 18.48 21.66 16.96 20.35 C 13.02 17 9.97 13.98 8.76 13.98" horiz-adv-x="52.67"/><glyph unicode="一" glyph-name="一" d="M 21 22.52 C 24.74 20.07 27.18 19.78 28.34 19.35 C 29.49 18.92 36.39 19.5 37.69 20.07 C 38.98 20.65 46.32 23.24 46.89 23.38 C 47.47 23.52 59.91 26.17 60.85 26.54 C 66.6 28.85 91.05 30 64.73 19.93" horiz-adv-x="76.7"/><glyph unicode="丁" glyph-name="丁" d="M 15.44 39.77 C 25.83 33.32 33.79 41.58 48.08 44.64 C 62.82 47.8 80.33 50.04 82.97 49.12 M 47.16 43.98 C 52.16 36.88 51.5 31.35 51.5 18.45 C 51.5 5.15 50.64 -3.78 48.87 -3.14 C 46.23 -2.18 41.76 1.99 39.52 5.41" horiz-adv-x="82.97"/><glyph unicode="丂" glyph-name="丂" d="M 20.11 55.79 C 30.63 55.35 33.24 55.49 35.59 55.68 C 39.42 56 47.34 56.79 55.88 57.48 C 59.51 57.86 69.23 60.17 73.8 57.13 M 43.56 55.04 C 41.33 46.85 40.76 44.62 39.78 41.63 C 39.03 39.36 37.26 33.58 36.88 31.35 C 36.57 29.48 43.04 32.74 44.77 33.33 C 50.7 35.1 56.71 37.57 62.91 37.48 C 68.08 37.41 66.61 33.44 66.27 31.42 C 65.92 29.4 59.83 -0.68 55.86 0.14 C 53.82 0.56 51.73 2.9 50.01 7.37" horiz-adv-x="73.8"/><glyph unicode="七" glyph-name="七" d="M 22.93 11.15 C 25.95 10.86 28.54 11.44 29.98 12.16 C 31.42 12.88 36.88 16.04 37.75 16.91 C 38.61 17.77 45.66 23.52 45.66 23.52 C 45.66 23.52 58.28 31.8 61.34 33.45 C 63.67 34.71 67.81 36.47 67.81 36.47 C 67.81 36.47 77.44 37.13 69.68 40.21 C 61.34 43.52 49.14 45.4 44.65 49.27 C 47.38 46.11 49.63 48.68 51.41 40.07 C 52.07 36.91 53 28.13 53 24.96 C 53 21.8 52.13 16.47 54.72 13.17 C 56.73 10.6 60.04 9.86 62.63 9.86 C 65.22 9.86 73.13 11.3 74 11.3 C 74.86 11.3 73.29 10.87 69.54 8.56 C 67.22 7.14 65.51 5.69 62.78 4.1" horiz-adv-x="74.23"/><glyph unicode="丄" glyph-name="丄" d="M 50.81 55.22 C 49.59 41.83 50.49 43.14 50.24 37.9 C 50.06 33.97 50.13 23.38 50 20.76 C 49.82 17.02 50.99 7.91 49.6 8.76 C 47.33 10.16 48.07 9.37 46.27 11.68 M 25.21 6.44 C 21.5 2.83 35.53 6.6 39.06 6.81 C 44.45 7.13 50.91 7.47 61.44 8.38 C 69.74 9.09 74.69 8.22 77.94 6.9" horiz-adv-x="77.94"/><glyph unicode="丅" glyph-name="丅" d="M 27.64 49.47 C 32.92 50.15 38.27 50.79 40.5 50.96 C 42.45 51.11 46.06 52.13 50.5 52.37 C 53.77 52.55 57.79 53.15 62.4 54.39 C 66.28 55.44 74.92 54.21 71.17 52.8 M 50.69 51.91 C 50.34 47.29 49.83 41.69 49.78 37.08 C 49.72 31.43 49.45 24.08 49.38 19.5 C 49.3 14.45 49.18 10.85 49.53 7.19" horiz-adv-x="72.09"/><glyph unicode="丆" glyph-name="丆" d="M 23.82 47.04 C 26.39 47.12 36.69 49.46 38.84 49.73 C 44.18 50.41 51.28 51.7 54.64 51.85 C 58.01 52 71.77 51.33 68.72 48.62 M 48.46 50.08 C 48.51 46.47 47.42 39.1 46.41 33.83 C 45.23 27.73 44.57 24.11 41.63 18.99 C 38.69 13.87 29.52 5.89 28.78 5.51" horiz-adv-x="69.16"/><glyph unicode="万" glyph-name="万" d="M 20.97 35.97 C 20.76 33.35 23.37 31.78 27.14 33.56 C 34.53 37.05 60.44 49.36 64.72 50.83 C 68.07 51.98 75.18 54.18 79.68 51.67 M 51.01 44.55 C 55.09 42.45 41.06 13.46 29.03 11.58 M 49.44 34.5 C 49.44 34.5 59.31 37.63 62.1 37.54 C 65.35 37.43 68.01 38.91 66.18 30.73 C 64.32 22.41 56.71 3.49 50.59 3.83 C 45.7 4.11 45.67 12.73 44.31 18.49" horiz-adv-x="79.68"/><glyph unicode="丈" glyph-name="丈" d="M 23.93 38.06 C 24.84 36.45 22.61 31.58 34.19 38.76 C 49.32 48.15 53.38 52.33 59.92 53.24 C 50.67 57.05 45.44 66.2 42.93 72.03 C 59.14 68.37 35.49 -11.79 14.59 9.51 M 18.81 26.2 C 27.15 30.52 38.81 23.99 43.63 18.86 C 47.66 14.59 66.05 -4.36 85.14 -1.34" horiz-adv-x="85.14"/><glyph unicode="三" glyph-name="三" d="M 32.84 41.94 C 35.86 41.22 39.02 40.88 41.03 41.94 C 44.78 43.9 47.66 44.42 49.95 45.82 C 53.33 46.92 58.41 47.98 60.45 48.98 M 35.57 28.27 C 35.14 26.4 37.15 25.97 39.74 26.4 C 42.33 26.83 43.59 27.48 45.78 28.27 C 51.46 30.31 54.46 31.27 57 32.3 M 22.19 9.57 C 21.61 5.25 23.85 5.47 25.93 6.12 C 30.39 7.5 37.45 9.6 41.9 10.58 C 49.41 12.22 56.85 13.92 61.17 14.46 C 65.64 15.02 72.68 16.47 77.86 12.3" horiz-adv-x="77.86"/><glyph unicode="上" glyph-name="上" d="M 42.4 52.87 C 47.14 49.56 47.58 47.55 47.72 44.24 C 47.86 40.93 46.71 31.29 46.71 31.29 C 46.71 31.29 45.99 25.97 45.99 24.82 C 45.99 23.67 45.85 17.91 45.85 17.91 M 47.14 36.18 C 50.02 37.76 52.33 39.01 54.91 40.35 C 56.64 41.25 59.08 41.79 60.95 42.08 M 20.39 12.01 C 24.1 8.92 26.81 9.14 29.88 10.72 C 32.66 12.15 36.64 13.74 37.65 14.17 C 38.66 14.6 54.91 20.36 56.78 20.93 C 58.65 21.51 68.87 25.25 79.08 19.35" horiz-adv-x="79.08"/><glyph unicode="下" glyph-name="下" d="M 19.45 42.94 C 23.33 42.08 26.35 42.51 31.82 43.95 C 37.29 45.39 48.08 49.42 51.82 49.85 C 55.56 50.28 64.19 52.87 65.63 53.01 C 67.06 53.16 76.41 55.31 79 53.16 M 43.9 47.69 C 45.49 45.53 46.49 42.8 46.64 40.35 C 46.78 37.91 45.77 24.39 45.49 19.78 C 45.2 15.18 44.34 4.25 43.33 1.8 C 42.32 -0.64 42.9 8.42 40.88 10.72 M 46.35 36.33 C 52.54 35.46 57.42 34.76 58.58 34.31 C 61.17 33.3 63.76 32.15 65.48 29.85" horiz-adv-x="79.0"/><glyph unicode="丌" glyph-name="丌" d="M 21.1 39.06 C 23.69 35.46 26.67 35.41 31.31 37.04 C 36.87 39 41.67 41.36 46.99 43.81 C 49.06 44.76 64.11 49.7 65.26 49.7 C 66.41 49.7 73.17 52.15 77.92 49.99 M 36.92 36.18 C 37.21 33.02 38.84 30.11 39.51 27.84 C 40.2 25.53 39.08 20.79 37.07 16.19 C 35.05 11.58 32.75 6.55 31.89 5.83 M 56.49 46.83 C 59.65 43.81 60.95 42.8 61.38 39.63 C 61.81 36.47 61.4 33.25 60.95 29.71 C 60.61 27.08 59.9 23.89 59.8 20.65 C 59.65 16.17 59.8 11.18 59.8 6.84 C 59.8 2.52 59.88 -0.64 59.51 -4.53 C 59.11 -8.73 58.21 -14.74 57.78 -16.04" horiz-adv-x="77.92"/><glyph unicode="不" glyph-name="不" d="M 18 42.65 C 23.18 42.22 28.12 43.93 30.66 44.81 C 38.32 47.46 54.57 53.09 57.42 53.87 C 60.55 54.74 69.07 58.05 74.54 53.44 M 50.51 51.72 C 49.94 47.11 48.36 44.3 46.49 41.22 C 43.36 36.06 40.3 29.56 35.84 22.08 C 33.75 18.57 30.52 12.16 26.2 6.84 C 24.45 4.68 21.31 1.23 21.89 8.56 M 35.99 35.46 C 40.44 36.9 45.09 38.82 47.93 31.72 C 50.24 25.91 49.14 17.46 48.79 14.32 C 48.33 10.22 47.73 5.12 47.35 2.09 C 47.02 -0.51 45.19 -5.25 41.74 4.1 M 59.29 25.68 C 65.76 25.25 70.22 22.23 71.8 21.51 C 73.39 20.79 89.64 12.45 71.37 14.03" horiz-adv-x="79.98"/><glyph unicode="与" glyph-name="与" d="M 39.94 48.12 C 44.25 48.55 52.31 51.29 53.6 52.15 C 54.9 53.01 72.51 58.63 52.16 58.77 C 46.98 58.8 44.11 64.09 40.94 66.97 C 42.81 64.95 47.56 60.2 45.98 55.31 C 44.4 50.42 40.75 40.13 38.93 34.74 C 35.84 25.59 35.87 24.99 41.66 28.56 C 52.78 35.42 81.19 47.81 75.18 25.97 C 69.28 4.53 66.67 -15.09 57.34 -2.66 C 48.4 9.28 44.11 8.71 39.51 11.73 M 23.83 12.45 C 22.24 9.28 22.39 7.56 25.27 7.99 C 28.14 8.42 32.6 10.86 35.33 11.73 C 38.07 12.59 45.12 14.89 47.27 15.75 C 49.43 16.62 60.8 19.5 61.8 18.78" horiz-adv-x="76.01"/><glyph unicode="丏" glyph-name="丏" d="M 24.71 57.52 C 29.62 58.24 35.35 59.97 41.75 60.83 C 45.53 61.34 58.49 65.12 62.44 65.36 C 65.73 65.57 80.52 68.68 74.71 64.2 M 48.52 60.95 C 48.15 53.93 48.03 48.76 47.7 42.56 C 47.56 39.89 47.6 22.72 46.1 25.39 C 44.74 27.81 44.65 29.61 43.98 31.3 M 36.98 42.64 C 35.49 46.27 34.67 36.73 33.67 29.43 C 33.01 24.68 32.4 20.72 32.44 18.09 C 32.51 13.08 42.2 21.22 44.36 21.95 C 48.56 23.36 50.93 24.69 53.81 25.75 C 58.07 27.33 59.88 27.4 61.66 27.93 C 64.96 28.92 67.77 32.24 64.79 32.43 M 47.66 34.67 C 51.01 37.81 56.77 41.64 59.95 42.64 C 64.72 44.15 74.75 49.3 72.21 26.97 C 71.08 17.02 65.86 -11.66 53.06 6.86" horiz-adv-x="76.05"/><glyph unicode="丐" glyph-name="丐" d="M 32.31 50.79 C 37.52 47.81 58.56 60.47 63.21 57.68 M 43.85 51.91 C 45.71 49.12 48.32 45.02 48.51 42.04 C 48.73 38.39 47.58 27.15 47.2 24.73 M 48.32 37.01 C 51.48 39.62 58.19 42.6 60.42 42.04 M 36.41 36.83 C 36.78 35.53 38.64 34.41 35.66 28.08 C 32.68 21.75 29.7 15.61 33.05 17.28 C 38.72 20.11 55.1 25.9 58.75 26.59 C 62.65 27.33 66.19 24.73 65.26 19.51 C 64.33 14.3 58.67 -12.15 55.95 -12.88 C 53.16 -13.62 42.18 -10.08 40.5 -8.41" horiz-adv-x="65.41"/><glyph unicode="丑" glyph-name="丑" d="M 32.9 52.52 C 37.42 51.67 51.15 57.05 53.84 58.04 C 56.53 59.03 62.92 62.6 62.76 54.08 C 62.45 38.65 54.84 10.63 53.7 11.06 C 51.43 11.91 49.74 17.42 49.74 19.12 M 41.81 47.57 C 43.37 40.92 39.3 15.52 33.46 14.03 C 29.29 12.97 26.1 23.37 29.5 24.78 C 35.33 27.21 47.78 40.13 50.44 37.24 C 57.92 29.13 19.45 4.97 17.89 2.56 C 16.34 0.16 18.74 -0.97 24.69 1.29 C 35.75 5.51 65.59 19.12 84.27 8.79" horiz-adv-x="84.27"/><glyph unicode="丒" glyph-name="丒" d="M 25.63 56.6 C 30.8 59.57 62.15 67.19 63.32 65.26 C 64.49 63.32 73.38 71.2 71.13 56.09 C 68.88 40.97 64.69 9.72 60.29 12.95 C 55.9 16.18 53.46 21.47 53.46 21.47 M 56.48 61.12 C 56.39 54.92 46.43 35.16 43.89 31.42 C 41.35 27.67 30.12 16.05 28.46 14.88 C 26.8 13.72 23.58 12.17 27.58 21.73 M 35.49 44.85 C 37.05 50.4 38.71 50.14 41.64 45.62 C 44.57 41.1 50.82 28.58 51.31 26.12 C 51.8 23.67 49.94 23.28 49.94 23.28 M 21.14 3 C 20.26 1.45 17.72 -0.23 22.31 0.68 C 26.9 1.58 40.86 3.39 43.5 3.52 C 46.13 3.65 72.59 9.2 76.3 6.62" horiz-adv-x="76.3"/><glyph unicode="专" glyph-name="专" d="M 39.3 51.55 C 42.44 46.82 55.73 53.99 63.08 56.62 C 59.76 53.47 25.7 24.68 27.05 23.57 C 28.7 22.21 60.11 38.26 72.7 43.68 C 58.71 38.61 45.94 85.65 48.21 74.81 C 60.46 66.24 47.83 24.1 47.69 21.29 C 48.73 15.19 64.85 31.69 66.58 21.64 C 70.83 -3.08 48.07 -7.88 40.17 -1.79 C 32.51 4.11 47.81 14.11 49.26 9.75 C 49.96 7.65 45.77 -2.14 45.77 -2.14" horiz-adv-x="72.7"/><glyph unicode="且" glyph-name="且" d="M 33.36 51.94 C 37.23 49.49 40.33 44.33 40.33 40.84 C 40.33 37.36 39.81 33.1 39.56 31.42 C 39.3 29.74 37.88 21.09 37.88 20.45 C 37.88 19.8 37.23 10.12 37.23 9.09 C 37.23 8.05 35.68 9.35 35.43 11.02 M 38.91 45.49 C 40.46 51.68 48.37 58.03 52.08 59.17 C 55.43 60.2 60.36 62.14 58.27 48.33 C 57.51 43.27 56.72 34.77 57.5 29.48 C 58.07 25.55 55.95 15.54 55.69 12.7 C 55.57 11.42 58.14 0.18 46.65 19.28 M 40.33 37.48 C 41.88 39.94 45.79 42.98 47.95 44.07 C 49.77 44.99 55.14 44.32 48.46 37.61 C 36.9 26 37 21.28 42.65 25.09 C 54 32.76 54.79 30.64 48.07 25.48 C 41.13 20.14 40.98 18.9 40.07 18.64 M 18.39 2.25 C 15.55 -1.24 18.89 -3.88 24.07 -1.76 C 52.98 10.12 69.19 10.34 75.83 9.22 C 80.66 8.4 86.02 9.22 69.37 2.63" horiz-adv-x="80.66"/><glyph unicode="丕" glyph-name="丕" d="M 31.66 42.52 C 36.3 39.68 47.92 45.24 51.66 48.33 C 56.05 51.94 58.25 50.39 53.47 43.29 C 48.69 36.19 27.78 -0.98 25.2 -3.95 C 22.62 -6.92 21.46 -6.53 21.85 -2.01 M 39.53 29.87 C 43.14 28.58 46.37 24.19 46.89 22.12 C 47.4 20.06 46.37 9.22 46.24 8.18 C 46.11 7.15 45.21 1.86 43.66 9.6 M 55.79 23.29 C 59.02 25.22 67.83 25.22 72.7 24.45 C 75.4 24.02 79.03 22.51 74.38 19.67 C 66.04 14.57 61.6 12.57 59.28 11.67 M 31.66 -7.82 C 33.72 -10.02 37.61 -10.74 39.79 -9.5 C 43.4 -7.43 61.24 -1.14 64.31 -0.85 C 66.91 -0.61 78.12 1.47 61.6 -5.5" horiz-adv-x="76.61"/><glyph unicode="世" glyph-name="世" d="M 19.63 29.22 C 18.46 25.87 18.34 20.83 27.24 24.71 C 36.15 28.58 40.02 30.64 43.51 32.58 C 46.99 34.52 77.32 46.52 81.32 40.45 M 36.53 43.79 C 31.79 47.68 34.21 41.83 35.01 39.66 C 39.57 27.36 35.66 -2.14 39.27 9.99 M 41.83 42.78 C 40.41 47.16 44.15 48.92 46.34 44.45 C 48.19 40.71 50.73 36.58 49.57 26.25 M 57.19 61.88 C 59.64 63.17 64.93 66.27 66.35 55.17 C 67.77 44.07 60.03 29.61 51.12 20.83 C 42.21 12.06 46.6 15.54 53.19 16.57 C 59.77 17.61 84.94 27.16 60.67 9.99" horiz-adv-x="81.32"/><glyph unicode="丘" glyph-name="乒" d="M 52.66 62.23 C 54.76 61.35 52.82 55.69 51.08 53.42 C 49.33 51.15 41.45 38.71 34.11 36.09 C 35.17 30.68 38.03 29.39 36.56 17.23 C 36.06 13.04 37.43 6.92 37.43 6.92 C 37.43 6.92 35.69 19.33 37.43 21.42 C 39.18 23.51 56.64 39.24 71.66 37.84 M 57.61 34.48 C 60.76 33.44 60.53 28.15 59.48 25.18 C 58.01 20.99 54.8 11.19 53.23 9.97 M 14.91 1.27 C 19.1 -0.31 26.78 2.8 43.58 7.52 C 52.78 10.1 70.66 14.58 83.89 6.1" horiz-adv-x="83.89"/><glyph unicode="丙" glyph-name="丙" d="M 33.69 52.52 C 39.29 51.54 55.97 61.52 58.16 61.16 C 59.27 60.97 55.72 56.78 38.56 46.67 M 24.2 35.11 C 21.64 30.85 21.45 24.26 24.2 22.33 C 25.42 21.48 22.5 8.58 23.96 5.29 M 24.2 22.21 C 35.03 29.88 54.74 40.11 57.92 40.95 C 62.05 42.05 76.7 47.58 75.93 36.33 C 75.2 25.62 71.06 6.39 70.7 4.56 C 70.43 3.25 70.94 -10.65 55.48 9.55 M 43.19 49.23 C 45.01 45.7 48.06 38.15 46.72 35.72 C 45.38 33.29 35.88 6.26 35.15 12.59 M 41.12 21.36 C 42.21 26.23 75.32 24.89 52.68 17.58" horiz-adv-x="75.96"/><glyph unicode="业" glyph-name="业" d="M 41.03 49.11 C 43.95 42.41 44.07 32.07 41.15 16.61 M 50.28 65.54 C 56.73 63.11 59.9 63.23 57.46 50.45 C 55.03 37.67 56.56 26.77 54.54 19.17 C 51.33 7.08 50.04 11.98 45.78 18.44 M 30.44 28.17 C 24.84 20.38 21.43 11.62 29.47 18.92 C 37.5 26.23 56.1 44.43 66.71 40.47 C 69.86 39.29 69.63 38.64 66.71 32.68 C 65.67 30.55 62.45 24.4 55.39 19.65 M 18.63 3.94 C 20.7 1.87 25.03 2.78 34.21 4.91 C 44.11 7.21 65.99 18.17 79.98 8.8" horiz-adv-x="79.98"/><glyph unicode="丛" glyph-name="丛" d="M 35.18 58.24 C 42.82 55.8 24.28 21.25 23.47 20.03 C 22.82 19.06 20.22 21.66 20.54 22.8 M 31.92 37.26 C 34.36 35.8 42.49 30.27 41.68 26.53 M 60.86 64.58 C 64.76 60.51 62.14 56.95 62 50.92 C 61.84 43.77 51.27 27.02 51.27 27.02 C 51.27 27.02 56.98 37.58 59.4 39.21 C 60.7 40.1 73.4 44 76.95 37.91 C 78.53 35.22 56.8 22.31 54.2 20.52 M 38.43 7.84 C 35.83 6.21 29 0.75 31.6 -0.94 C 35.57 -3.52 63.46 11.58 76.63 6.54 C 80.29 5.14 64.27 -1.26 62.32 -1.26" horiz-adv-x="77.17"/><glyph unicode="东" glyph-name="东" d="M 23.57 46.07 C 40.36 45.09 43.5 53.42 59.23 56.78 C 56.41 57.1 46.74 64.34 45.36 66.15 C 40.2 72.89 45.3 76.03 48.4 69.68 C 50.26 65.86 41.47 45.94 37.57 38.28 C 29.46 22.39 25.79 21.47 33.43 25.37 C 44.22 30.89 57.65 39.74 61.79 39.86 M 40.73 44.48 C 43.16 43.51 49.25 45.58 47.91 30.49 C 46.39 13.38 45.1 -5.05 44.87 -1.4 C 44.51 4.08 46.45 -16.38 33.31 8.21 M 25.64 17.46 C 24.42 14.78 23.08 6.75 22.84 3.34 M 57.16 22.57 C 60.45 20.99 70.79 18.94 73.72 16.37 C 75.78 14.54 77 12.59 77.49 10.77" horiz-adv-x="77.49"/><glyph unicode="丝" glyph-name="丝" d="M 38.21 63.71 C 39.67 62.38 42.22 62.25 40.88 57.39 C 39.55 52.52 24.94 35.84 22.63 34.38 C 28.96 40.71 39.23 41.85 36.62 34.5 C 34.3 27.94 30.89 24.58 28.96 20.99 C 20.91 6.07 34.8 23.55 45.87 31.7 M 58.53 67.61 C 61.94 67.73 62.31 59.58 50.5 44.73 C 57.07 47.77 57.59 49.23 64.38 51.42 C 66.2 51.18 62.42 45.46 61.45 43.87 C 58.31 38.7 55.05 33.08 52.93 29.51 C 57.42 30.85 59.87 32.19 62.31 33.29 C 68.3 35.98 72.53 31.46 45.87 13.81 M 11.31 3.46 C 15.45 1.76 19.06 3.07 23.48 4.8 C 46.33 13.76 48.14 16.55 74.84 18.07 C 78.68 18.29 86.28 15.39 88.11 14.18" horiz-adv-x="88.11"/><glyph unicode="丞" glyph-name="丞" d="M 28.24 48.19 C 28.24 48.19 29.21 45.76 33.33 47.69 C 41.47 51.52 51.74 56.67 54.06 57.87 C 57.66 59.73 63.27 59.8 62.37 57.87 C 60.89 54.68 45.37 39.13 42.89 38.39 C 52.82 36.77 48.82 7.62 44.62 7.11 C 38.92 6.42 36.19 11.58 34.57 16.17 M 23.77 24.61 C 26.63 26.84 31.34 33.42 32.83 31.06 C 34.32 28.71 25.51 7.11 24.27 4.01 M 60.01 43.72 C 61.75 45.34 67.21 47.62 67.83 45.46 C 70.32 36.9 61.75 26.97 52.57 21.63 C 60.01 24.86 68.95 26.72 75.65 23 C 78.76 21.27 57.9 12.57 54.06 9.35 M 29.23 -3.69 C 30.97 -5.8 33.25 -7.88 36.93 -6.91 C 46.06 -4.51 62.62 2.27 71.93 -1.45 C 73.82 -2.21 65.72 -5.18 61.63 -6.42" horiz-adv-x="75.97"/><glyph unicode="丢" glyph-name="丢" d="M 63.25 25.68 C 67.45 23.06 74.27 18.97 78.58 12.35 C 79.97 10.21 79 3.85 79.31 2.8 M 55.69 28.83 C 52.96 23.48 43.09 10.04 34.69 3.95 C 49.08 10.15 65.45 17.92 71.33 19.28 M 18.95 18.23 C 19.37 15.4 21.67 13.23 26.4 15.29 C 49.34 25.29 75.01 40.49 81.62 34.61 M 36.16 33.56 C 43.41 35.55 68.5 46.58 63.14 44.69 C 60.13 43.26 52.54 52.25 47.92 55.5 C 52.65 52.25 56.22 48.57 55.8 46.37 C 55.38 44.16 52.23 27.99 50.02 26.73 M 53.8 67.15 C 60.94 66.1 69.76 64.53 40.36 53.51" horiz-adv-x="81.62"/><glyph unicode="两" glyph-name="两" d="M 33.54 49.35 C 38.31 48.03 42.14 52.78 46.23 54.02 C 49.83 55.11 55.58 55.75 58.22 56.05 M 20.94 31.27 C 21.35 29.44 24.29 23.45 24.6 21.52 C 24.9 19.59 24.6 7.4 23.18 3.03 M 24.39 22.13 C 28.36 26.6 47.86 42.11 69.49 43.15 C 78.57 43.59 76.5 35.24 74.27 30.15 C 73.58 28.6 73.7 24.26 72.34 19.79 C 71.08 15.67 70.1 11.26 69.8 8.01 C 69.58 5.68 67.16 -16.27 55.48 5.77 M 35.47 42.34 C 40.14 39.09 39.63 6.79 30.29 11.06 M 38.41 26.49 C 42.58 24.46 44.81 23.04 45.62 19.49 M 49.08 50.36 C 54.26 45.08 55.66 44.22 55.48 38.07 C 55.27 31.17 50.69 17.58 46.94 12.99 C 42.81 7.91 40.85 10.14 40.34 10.65 M 52.33 23.95 C 57.23 20.47 64.81 17.36 64.21 17.96" horiz-adv-x="76.19"/><glyph unicode="严" glyph-name="严" d="M 42.01 63.67 C 46.88 60.72 57.04 66.99 61.71 69.66 C 65.98 72.1 68.41 71.79 72.58 71.49 M 52.97 64.38 C 51.35 60.11 49.32 39.7 49.22 37.77 C 49.12 35.84 50.94 39.7 51.45 40.41 M 58.97 67.33 C 62.42 63.47 62.62 60.01 61.71 54.12 C 60.8 48.23 58.87 40.41 58.66 39.39 C 58.46 38.38 56.63 39.7 55.72 40.71 M 42.82 50.77 C 42.82 50.77 35.1 38.58 41.6 43.25 C 48.1 47.93 60.99 58.5 64.86 58.9 C 71.87 59.61 76.44 60.32 68.92 54.02 C 61.41 47.72 34.59 31.88 34.39 30.05 C 34.18 28.22 76.23 45.79 75.73 43.56 C 75.22 41.32 72.27 40.31 70.95 40.1 M 43.12 32.28 C 45.36 30.46 40.38 -7.84 21.18 -11.59" horiz-adv-x="75.73"/><glyph unicode="丧" glyph-name="丧" d="M 31.05 53.91 C 37.32 51.53 47.59 63.18 55.23 62.43 M 38.7 78.84 C 43.96 78.72 46.11 77.09 45.96 69.7 C 45.84 63.31 41.7 32.74 41.7 32.74 C 41.7 32.74 39.45 32.36 39.07 36.37 M 28.05 45.39 C 25.92 42.26 27.33 34.91 30.55 38 C 39.02 46.13 44.49 49.96 46.34 50.9 C 51.25 53.43 61.67 57.19 55.48 49.4 C 53.96 47.49 52.41 45.6 50.6 44.27 C 47.81 42.21 35.94 33.24 34.19 31.99 M 11.26 21.59 C 13.14 19.09 15.02 17.08 20.91 20.71 C 26.79 24.35 57.11 40.88 59.49 41.01 C 61.87 41.13 64.75 41.13 65.25 40.88 M 29.8 20.96 C 29.68 15.2 25.79 -0.33 26.29 -1.83 C 26.79 -3.34 23.16 -13.23 30.8 -4.47 C 38.44 4.3 49.59 15.2 49.59 15.2 M 57.86 34.37 C 58.99 33.12 66.51 30.49 56.61 26.6 C 46.71 22.72 43.71 22.34 42.45 22.34 M 31.3 26.6 C 36.31 23.97 56.48 12.57 58.24 11.07 C 59.99 9.57 68.51 6.18 70.26 5.81 C 72.02 5.43 84.29 2.42 88.05 4.43" horiz-adv-x="88.05"/><glyph unicode="丨" glyph-name="丨" d="M 48.24 56.54 C 50.12 54.66 52.13 51.91 51.62 47.27 C 51.08 42.22 51.14 30.67 50.37 20.84 C 50.04 16.58 50.81 7.56 50.37 3.05 C 50.04 -0.39 48.37 -8.47 48.37 -9.35" horiz-adv-x="51.7"/><glyph unicode="个" glyph-name="个" d="M 45.54 64.94 C 47.54 63.06 50.93 62.05 46.42 52.66 C 41.91 43.26 35.89 30.23 23.62 14.7 C 32.89 26.73 36.45 33.82 66.59 44.64 C 68.7 45.4 72.25 45.48 75.66 44 C 72.68 34.37 58.88 28.86 57.44 27.48 M 45.67 27.85 C 50.68 15.7 50.55 7.18 49.17 -9.35 C 48.42 -10.1 46.42 -7.22 46.42 -7.22" horiz-adv-x="75.66"/><glyph unicode="丫" glyph-name="丫" d="M 33.29 45.14 C 35.55 40.63 44.82 34.24 46.44 34.37 M 63.36 59.92 C 64.73 57.92 65.8 55.95 65.74 54.66 C 65.49 49.28 56.22 34.87 50.58 29.48 C 53.84 20.71 50.58 -7.6 49.58 -10.85" horiz-adv-x="65.74"/><glyph unicode="丬" glyph-name="丬" d="M 54.99 61.43 C 61.75 59.17 59.06 55.76 59.62 36.12 C 60.2 16.28 58.08 -4.34 55.87 -4.34 C 53.86 -4.34 50.73 1.05 48.35 4.68 M 40.58 37.38 C 47.97 35.37 49.1 36.25 48.23 30.23 M 39.58 15.7 C 39.46 12.45 38.7 8.56 40.33 8.19 C 41.21 7.98 57.62 35.75 59.12 42.51" horiz-adv-x="59.72"/><glyph unicode="中" glyph-name="中" d="M 24.45 36.75 C 28.84 33.49 32.97 26.1 31.84 14.33 M 30.34 27.23 C 37.35 33.99 61.28 46.52 73.06 43.51 C 69.17 39.25 55.27 26.98 49.76 24.1 C 45.68 21.96 40.86 18.46 31.97 15.58 C 46.37 21.34 61.41 28.98 64.29 26.85 C 57.02 30.61 47.14 49.34 46 56.79 C 44.27 68.08 48.63 67.94 50.63 57.67 C 52.53 47.97 48.13 15.7 48.38 13.45 C 48.63 11.19 48.38 -15.49 39.98 -22.38" horiz-adv-x="73.06"/><glyph unicode="丰" glyph-name="丰" d="M 29.17 46.21 C 40.83 46.7 47.29 52.54 62.3 57.25 C 53.49 53.9 29.98 33.58 30.41 30.82 C 30.7 28.91 50.64 41.74 59.7 42.73 C 56.22 40.13 23.37 16 24.2 14.68 C 24.91 13.55 60.07 35.29 76.45 27.71 C 72.6 30.2 69.01 28.21 64.54 36.4 M 47.53 71.65 C 50.89 68.17 52 62.71 51.51 54.52 C 51.03 46.62 49.52 -7.91 46.91 -13.99" horiz-adv-x="76.45"/><glyph unicode="串" glyph-name="串" d="M 32.15 56.2 C 36.53 53.65 39.36 36.63 39.08 37.8 C 37.1 46.15 37.1 53.23 40.92 55.64 C 44.74 58.04 55.28 63.93 57.62 64.55 C 59.74 65.12 63.99 65.26 62.86 60.73 C 61.84 56.65 56.35 48.7 38.8 41.34 C 50.97 47.29 58.04 51.39 61.16 51.67 M 28.04 29.88 C 31.01 25.77 36.34 9.61 35.4 11.48 C 34.27 13.75 33.56 18.7 31.86 21.95 C 28.89 27.66 52.6 38.93 55.36 40.92 C 58.89 43.46 73.47 47.99 69.65 40.92 C 65.56 33.34 59.83 29.19 37.1 13.89 C 48.56 21.95 57.05 27.47 70.64 27.76 C 68.09 28.75 65.55 29.74 63.85 31.58 M 48.99 78.56 C 57.34 66.53 49.55 -6.07 48.85 -14.84" horiz-adv-x="70.64"/><glyph unicode="临" glyph-name="临" d="M 20.82 34.77 C 21.81 28.28 18.84 11.49 17.29 8.53 M 30.41 52.39 C 33.79 54.23 35.77 52.39 35.77 47.88 C 35.77 43.37 33.51 27.01 33.65 25.32 C 33.79 23.62 29.56 2.05 29.28 0.07 C 29 -1.9 27.87 4.16 28.01 6.42 M 53.82 67.34 C 66.66 55.92 50.58 38.71 44.65 34.77 C 56.78 44.21 71.45 50.56 73.14 49.72 C 69.9 47.46 67.5 44.07 63.41 42.66 M 50.01 31.38 C 59.74 28.7 61.44 25.88 43.24 16.85 C 45.36 13.05 47.19 4.02 48.18 -1.06 C 47.76 3.31 44.19 12.75 47.76 14.17 C 54.46 16.85 77.37 28.98 81.61 23.48 C 78.08 19.53 72.02 -0.07 70.75 -0.07 C 69.48 -0.07 67.22 3.74 66.8 5.43 M 58.48 18.69 C 58.19 10.51 58.33 6.84 58.33 6.84 C 58.33 6.84 58.66 4.74 49.03 2.75 C 60.17 5.71 65.1 9.1 68.07 6.7" horiz-adv-x="81.61"/><glyph unicode="丶" glyph-name="丶" d="M 40.67 28.98 C 48.43 27.71 58.72 20.8 57.74 14.74" horiz-adv-x="57.8"/><glyph unicode="丸" glyph-name="执" d="M 36.45 64.75 C 38.82 63.56 39.51 57.02 39.79 53.68 C 40.15 49.29 34.95 21.4 29.25 12.24 C 26.24 7.45 21.85 -2.51 17.92 8.81 M 17.4 24.04 C 30.14 34.08 46.68 47.01 48.64 48.4 C 50.66 49.82 57.56 51.6 56.14 48.97 C 54.75 46.34 52.78 42.84 52.37 40.77 C 51.55 36.7 50.14 28.33 49.55 25.07 C 48.69 20.36 47.41 15.5 47.96 12.39 C 48.63 8.73 47.96 -1.39 58.98 -0.91 C 71.4 -0.44 76.81 1.08 77.45 1.08 C 81.4 1.24 82.61 7.61 76.79 21.24 M 26.57 25.78 C 29.87 24.11 37.44 19.97 39.79 15.9" horiz-adv-x="80.79"/><glyph unicode="丹" glyph-name="丹" d="M 33.86 52.76 C 37.7 48.41 38.94 44.69 38.08 36.87 C 36.99 27.12 31.25 2.24 29.76 3.24 C 28.27 4.23 27.65 5.6 27.53 7.33 M 36.59 49.16 C 41.8 53.38 50.11 58.96 53.47 59.71 C 56.82 60.45 62.92 65.07 62.15 53.5 C 59.81 18.37 66.74 -6.32 63.27 -5.7 C 58.53 -4.85 56.57 3.86 53.22 10.44 M 14.5 19.25 C 15.24 18.13 15.25 14.9 21.82 17.14 C 32.7 20.84 71.83 38.86 85.36 28.31 M 45.27 44.57 C 47.63 41.21 52.22 37.12 50.98 28.06" horiz-adv-x="85.36"/><glyph unicode="为" glyph-name="为" d="M 31.09 42.63 C 32.49 30.56 37.03 35.98 39.31 44.03 M 57.67 66.06 C 64.14 66.41 58.8 51.85 57.32 46.82 C 54.85 38.39 37.19 0.09 33.36 -3.72 C 29.3 -7.76 16.92 4.5 28.81 12.37 C 40.71 20.24 52.6 27.76 56.1 28.81 C 59.59 29.86 67.55 33.27 66.41 25.49 C 65.19 17.1 54.7 5.2 53.3 3.8 C 59.07 5.54 76.96 11.65 72.36 3.45 C 70.44 0.04 65.89 -3.37 52.42 -7.39" horiz-adv-x="73.11"/><glyph unicode="主" glyph-name="主" d="M 40.72 64.38 C 48.62 65.93 53.7 64.81 56.66 62.83 C 54.69 60.43 48.2 58.18 48.2 58.18 M 29.86 44.5 C 30.71 41.68 33.39 41.54 37.9 43.09 C 45.24 45.61 55.11 50.7 60.04 53.24 C 52.15 50.14 52.76 48.7 52.43 46.75 C 51.28 40.06 48.34 19.25 47.92 15.16 C 43.54 15.58 37.2 14.6 37.9 18.97 C 38.45 22.38 56.8 35.86 58.92 31.24 C 63.43 21.37 38.18 6.14 38.61 0.92 C 38.61 -2.19 62.72 12.62 66.39 7.97 C 68.93 5.01 55.81 -5.15 50.74 -4.58" horiz-adv-x="66.71"/><glyph unicode="丽" glyph-name="丽" d="M 17.28 44.64 C 26.87 38.29 37.99 43.49 48.59 49.72 C 57.09 54.71 76.09 58.74 81.16 55.64 M 39.84 44.78 C 37.3 43.65 35.61 19.96 30.11 7.69 C 30.25 12.76 36.87 36.33 42.94 34.34 C 49.96 32.04 47.29 7.74 43.23 8.96 C 37.86 10.57 39.14 18.41 42.1 22.64 C 44.91 26.65 50.02 41.32 55.64 39.84 C 62.24 38.11 57.33 12.06 56.62 11.64 C 55.92 14.17 62.45 47.19 70.02 45.91 C 78.34 44.5 75.24 8.39 73.13 4.87 C 68.19 7.26 60.01 13.75 62.41 28.14 C 63.6 29.07 70.59 26.44 73.27 24.19" horiz-adv-x="81.16"/><glyph unicode="举" glyph-name="举" d="M 35.45 65.79 C 35.73 62.41 39.26 56.77 39.82 57.9 C 40.39 59.02 42.93 65.51 43.35 66.08 C 43.77 66.64 45.23 68.7 46.78 69.23 C 48.6 69.86 50.68 68.33 52.09 68.61 C 53.5 68.9 60.21 75.55 60.81 75.91 C 61.84 76.52 67.19 78.95 68.04 78.38 C 68.89 77.82 63.31 67.78 62.25 66.64 C 61.6 65.95 49.83 51.58 45.64 52.27 M 24.18 42.01 C 31.09 40.98 42.89 46.83 53.11 54.28 C 56.17 56.51 67.58 62.3 69.28 62.08 C 66.16 60.14 56.59 57.35 55.18 53.96 C 53.77 50.58 44.18 34.65 43.07 31.66 C 40.73 25.35 31 11.45 18.24 6.14 C 16.8 5.53 14.02 4.76 12.46 6.56 M 38.27 32.79 C 46.59 36.88 74.62 48.97 86.04 42.6 C 83.59 39.88 67.04 35.61 64.22 33.92 M 42.08 22.64 C 39.98 18.96 40.71 17.86 46.8 21.3 C 55.9 26.46 67.02 30.93 67.76 29.74 C 69 27.76 47.13 11.68 45.04 10.37 C 38.71 6.37 37.4 2.69 39.23 2.97 C 41.06 3.25 50.71 7.83 53.22 9.52 C 54.98 10.7 63.62 14.66 65.49 15.3 C 68.29 16.27 72.65 17.06 75.84 16.61 C 71.17 19.21 70.92 20.94 68.24 26.08 M 53.8 51.11 C 56.89 43.92 57.97 39.82 58.25 36.86 C 58.53 33.9 59.35 21.17 59 17.14 C 58.66 13.11 59.57 -0.78 59.15 -3.03 C 58.72 -5.29 58.58 -17.7 56.04 -20.52" horiz-adv-x="86.04"/><glyph unicode="丿" glyph-name="丿" d="M 57.04 58.4 C 63.32 54.11 61.83 9.85 38.05 -7.49" horiz-adv-x="60.21"/><glyph unicode="乃" glyph-name="乃" d="M 47.26 53.45 C 52.47 53.7 19.18 -19.88 27.86 18.29 M 28.45 39.58 C 32.68 41.16 55.42 61.34 58.72 60.05 C 67.27 56.69 54.38 37.61 55.87 34.86 C 57.48 31.88 72.05 43.75 72.78 31.28 C 73.11 25.54 70.14 4.38 63.87 -4.53 C 58.42 -12.28 56.51 -5.08 47.86 4.98" horiz-adv-x="72.8"/><glyph unicode="久" glyph-name="久" d="M 43.92 54.01 C 45.3 52.91 46.41 51.97 46.54 50.71 C 47.23 44.1 28.14 21.82 24.37 17.24 C 27.26 24.56 52.46 47.95 58.25 43.41 C 59.74 40.41 32.63 -11.4 20.65 -2.31 M 46.95 11.19 C 60.72 11.6 72.7 6.09 76.15 1.82 C 73.94 -1.48 65.13 -1.62 65.13 -1.62" horiz-adv-x="76.15"/><glyph unicode="乇" glyph-name="乇" d="M 47.33 53.46 C 48.02 53.18 52.83 52.77 54.9 52.91 C 50.08 50.43 38.93 42.17 33.83 41.75 M 14.97 15.45 C 14.28 13.11 16.96 11.05 21.16 13.11 C 24.45 14.73 30.31 17.91 37.02 23.29 C 43.64 28.61 53.34 30.76 55.73 32.94 C 44.17 32.98 40.99 33.63 38.51 36.94 C 39.89 33.49 42.13 33.41 41.54 31.43 C 37.96 19.31 37.92 6.37 38.79 1 C 44.05 -3.79 52.15 -3.96 57.79 -4.65 C 61.22 -5.07 70.58 -3.98 73.9 -2.86 C 77.77 -1.55 84.78 -2.72 83.4 8.57 C 82.33 17.4 82.44 21.79 82.44 21.79" horiz-adv-x="83.58"/><glyph unicode="么" glyph-name="么" d="M 50.13 55.8 C 55.09 53.32 54.86 52.61 53.02 47.95 C 50.68 42.03 35.53 23.58 25.62 14.49 C 25.07 15.18 26.86 17.66 29.34 21.1 M 57.57 39.14 C 61.7 38.73 63.76 38.04 60.32 33.08 C 57.26 28.67 48.89 18.9 48.2 18.07 C 47.51 17.24 37.87 6.92 34.43 2.37 C 36.77 1.68 62.11 13.11 67.62 15.32 M 63.07 21.24 C 65.96 18.76 70.78 12.84 72.16 8.84 C 73.54 4.85 73.26 0.58 73.54 -0.24" horiz-adv-x="73.54"/><glyph unicode="义" glyph-name="义" d="M 34.7 47.21 C 37.71 43.06 33.72 31.69 36.09 34.06 C 37.01 34.98 37.13 36.25 37.59 37.4 M 42.55 51.02 C 50.29 54.25 57.21 61.29 52.25 44.1 C 47.2 26.6 32.16 0.7 16.47 6.01 M 18.55 28.98 C 25.36 29.44 32.26 26.16 36.09 23.09 C 41.28 18.93 64.25 -7.5 83.64 -0.92" horiz-adv-x="83.64"/><glyph unicode="之" glyph-name="之" d="M 32.93 54.7 C 42.67 54.02 47.97 54.23 49.04 52.36 C 46.7 50.84 43.94 49.19 42.98 49.19 M 27.69 36.11 C 22.74 22.06 20.26 23.58 20.26 23.58 C 22.12 26.19 32.36 28.82 39.07 33.55 C 46.09 38.49 50.19 43.21 56.06 44.92 C 54.6 37.39 42.98 26.19 40.91 24.27 C 38.85 22.34 31.04 14.58 29.9 13.25 C 28.24 11.32 15.3 5.82 15.16 7.61 C 15.16 7.61 26.26 11.06 29.9 10.36 C 34.16 9.53 60.06 -1.73 63.49 -3.27 C 70.68 -6.51 83.46 -4.1 87.73 -4.79" horiz-adv-x="87.73"/><glyph unicode="乌" glyph-name="乌" d="M 42.75 65.16 C 44.27 63.51 49.5 50.57 31.6 44.78 C 33.8 43.55 55.42 58.69 57.9 58.28 C 63.27 57.18 50.05 29.22 50.05 26.88 C 45.5 31.57 43.03 42.03 42.61 50.02 C 46.33 39.97 41.32 30.82 33.66 18.62 C 36.28 13.66 56.8 38.73 73.73 27.85 C 77.86 27.16 68.36 -9.06 60.24 -7.4 C 53.13 -5.96 49.64 4.99 47.02 9.81 M 22.92 8.16 C 22.92 6.23 22.49 3.84 26.09 4.71 C 30.63 5.82 39.76 12.44 44.27 13.94 C 51.5 16.34 55.14 16.01 59.27 14.9" horiz-adv-x="74.73"/><glyph unicode="乍" glyph-name="乍" d="M 47.51 59.97 C 49.94 57.69 47.11 54.22 46.29 52.07 C 40.42 36.73 27.76 12.59 24.27 19.42 M 40.37 38.56 C 48.87 39.16 66.34 54.2 72.56 51.77 M 52.06 43.26 C 53.58 40.99 54.34 32.64 53.58 23.37 C 52.94 15.58 53.88 -16.6 51.76 -14.9 C 51 -14.29 48.11 -6.55 49.48 -3.51 M 54.34 30.36 C 60.57 32.63 68.41 33.51 68.77 31.57 C 69.21 29.2 59.96 17.75 61.17 15.47 C 62.9 12.23 73.02 14.56 74.84 14.1" horiz-adv-x="74.84"/><glyph unicode="乎" glyph-name="乎" d="M 44.78 70.81 C 50.83 67.09 56.34 65.24 50.42 58.97 C 44.31 52.49 37.21 49.01 38.58 48.92 C 40.51 48.78 53.26 43.9 53.45 26.61 C 53.59 14.08 53.18 -0.66 48.49 -4.51 C 44.19 -4.67 38.72 -0.24 34.17 8.02 M 25.22 37.07 C 29.08 32.39 37.05 26.97 39.13 33.08 C 41.47 39.96 55.38 51.67 59.1 51.94 C 64.1 52.32 69.84 52.36 61.99 41.75 C 51.73 27.9 35.96 17.38 34.04 16 C 32.11 14.63 23.85 10.77 22.19 10.36 C 29.9 14.77 40.65 18.07 44.64 19.17 C 48.63 20.27 57.22 21.73 64.47 23.85 C 69.8 25.42 77.14 24.82 79.06 22.34" horiz-adv-x="79.06"/><glyph unicode="乏" glyph-name="乏" d="M 38.33 69.8 C 45.53 69.02 43.27 63.93 41.47 62.85 C 40.21 62.1 29.56 54.9 25.34 52.82 M 20.91 46.37 C 22.23 45.41 37.54 46.62 42.39 46.69 C 42.83 45.41 33.44 42.43 32.86 42.75 M 12.54 25.57 C 12.12 23.16 16.88 22.66 20.25 24.09 C 26.19 26.61 49.29 44.44 55.05 41.73 C 55.78 39.65 38.02 20.22 25.05 11.1 C 23.57 10.05 16 5.69 10.52 5.59 C 8.58 5.55 20.57 6.04 23.75 5.24 C 37.02 1.88 68.85 -12.73 89.42 -8.32" horiz-adv-x="89.42"/><glyph unicode="乐" glyph-name="乐" d="M 48.14 67.66 C 50.96 66.41 53.15 67.51 55.5 65.47 C 50.33 60.93 36.09 48.1 30.61 54.52 C 33.12 49.67 34.68 47.63 35.31 44.03 C 35.93 40.43 32.02 25.88 28.26 21.02 C 33.59 26.19 57.22 41.84 64.1 41.84 C 56.59 46.85 48.92 48.73 44.85 48.26 C 53.62 45.91 48.45 2.56 45.95 -3.55 C 39.53 -2.14 34.52 8.35 33.9 9.76 M 23.41 16.17 C 25.6 9.76 22.47 4.28 24.98 5.06 C 27.48 5.84 38.12 17.27 39.53 17.11 M 59.41 24.16 C 65.04 24.31 75.51 19.97 74.9 18.83 C 73.65 16.49 64.1 14.61 62.54 14.61" horiz-adv-x="74.93"/><glyph unicode="乒" glyph-name="乒" d="M 52.71 60.78 C 54.59 59.99 59.76 60.15 58.19 58.12 C 56.63 56.08 45.98 46.85 41.76 44.81 M 37.06 44.19 C 40.35 39.65 42.92 38.49 41.6 27.6 C 41.15 23.84 42.38 18.36 42.38 18.36 C 42.38 18.36 40.82 29.48 42.38 31.35 C 43.95 33.23 59.6 47.32 73.06 46.07 M 56 41.53 C 58.82 40.59 61.16 37.77 60.23 35.11 C 58.9 31.35 56.16 23.84 54.75 22.75 M 17.34 8.82 C 21.1 7.41 23.45 7.72 36.91 15.7 C 40.81 18.02 71.65 29.95 81.98 26.82 M 40.35 12.1 C 43.17 7.41 33.78 -3.86 24.54 -5.27" horiz-adv-x="81.98"/><glyph unicode="乓" glyph-name="乓" d="M 51.01 64.85 C 52.26 64.53 58.05 66.1 57.11 63.91 C 56.17 61.72 43.5 51.39 40.21 50.13 M 33.48 46.69 C 36.77 45.44 40.05 47.94 39.27 28.54 C 39.14 25.31 38.33 21.16 38.96 20.24 C 40.25 22.32 37.86 32.29 41.15 34.64 C 44.44 36.99 57.11 49.98 69.48 47.63 M 55.55 45.28 C 57.43 42 58.68 39.81 57.43 36.99 C 56.17 34.17 53.67 26.03 52.57 24.94 M 14.39 13.51 C 17.67 9.44 29.26 14.61 35.52 17.43 C 43.18 20.87 73.23 35.11 84.19 28.85 M 56.96 12.73 C 58.05 11.63 67.75 5.37 68.38 4.59 C 69.01 3.81 71.2 1.15 71.98 -1.82" horiz-adv-x="84.19"/><glyph unicode="乔" glyph-name="乔" d="M 49.77 70.01 C 54.31 69.38 58.54 69.23 57.13 68.29 C 55.72 67.35 42.11 60.78 40.54 60.62 M 19.73 41.21 C 20.98 39.65 23.33 36.83 27.71 39.02 C 32.09 41.21 59.63 56.24 60.42 57.8 C 56.03 57.49 46.02 55.93 45.55 57.65 C 44.92 53.73 38.51 37.77 35.53 31.82 C 33.9 28.56 16.44 4.59 15.5 17.89 M 47.9 39.81 C 59.63 42 74.26 43.28 82.64 39.65 C 84.98 38.64 76.07 36.52 74.35 35.42 M 39.76 29.01 C 44.45 13.67 31.46 -7.62 31.15 4.44 M 51.34 33.86 C 54.94 30.88 57.13 29.48 56.19 23.06 C 54.85 13.88 55.56 -2.92 55.56 -6.36 C 55.56 -8.49 53.84 -14.19 53.22 -17.16" horiz-adv-x="83.03"/><glyph unicode="乖" glyph-name="乖" d="M 54.07 71.52 C 60.04 70.6 61.37 67.15 54.2 64.1 C 47.04 61.04 32.74 51.74 30.45 48.71 C 21.57 36.9 28.58 34.6 32.31 34.51 C 37.88 34.38 57.39 46.98 63.49 48.84 C 56.59 51.09 52.88 58.26 52.35 61.84 C 53.54 46.98 52.35 -11.26 48.23 -7.94 C 45.07 -5.39 42 0.81 41.47 2.01 M 22.89 18.46 C 27.4 14.48 40.54 23.76 42 26.02 C 38.02 24.83 32.44 26.82 33.9 29.34 C 36.29 21.77 29.93 7.49 34.04 8.77 C 37.64 9.9 43.19 18.72 45.31 20.45 C 51.8 25.72 68.93 36.5 74.1 36.77 C 65.08 34.91 63.75 39.42 61.76 43 C 64.95 33.85 58.4 21.76 60.31 19.92 C 64.15 16.2 71.32 23.51 73.97 23.1 C 79.14 22.3 64.55 8.64 58.85 7.58" horiz-adv-x="75.06"/><glyph unicode="乘" glyph-name="乘" d="M 53.56 73.66 C 57.41 71.66 59.69 72.52 56.84 70.95 C 53.99 69.38 39.31 61.83 37.17 61.83 M 25.2 46.01 C 27.91 44.16 35.18 43.88 42.87 48.58 C 50.57 53.28 60.12 57.41 60.4 57.41 C 57.98 56.7 50.71 59.12 48.86 66.68 C 52.42 49.29 46.72 -10.7 45.44 -7.28 C 44.16 -3.86 40.45 5.4 39.6 8.39 M 37.03 42.88 C 38.03 39.74 37.74 13.52 35.89 14.24 C 34.04 14.95 25.18 29.71 24.49 31.91 C 23.78 34.19 32.04 36.18 30.76 31.62 C 28.84 24.79 19.83 12.53 25.35 16.52 C 33.04 22.07 36.75 29.77 42.16 36.32 C 48.33 43.8 55.78 51.93 57.27 50.15 C 60.27 46.54 57.89 36.84 58.12 33.33 C 58.26 31.19 60.26 28.04 66.1 28.63 C 73.97 29.42 71.8 32.05 67.67 40.6 C 66.44 43.15 63.96 44.02 66.81 50.43 C 61.97 38.6 22.21 -4.43 18.65 1.41 M 46.44 15.23 C 59.12 17.8 77.07 16.23 80.63 8.82 C 81.03 8 67.38 3.83 65.1 4.97" horiz-adv-x="80.64"/><glyph unicode="乙" glyph-name="亿" d="M 23.08 37.81 C 29.81 38.23 51.67 51.44 51.92 50.23 C 52.76 46.23 44.08 45.31 30.44 14.44 C 25.67 3.64 37.97 2.75 50.45 2.87 C 58.86 2.95 66.93 3.71 69.8 6.44 C 73.09 9.56 77.5 19.9 71.88 27.11" horiz-adv-x="74.57"/><glyph unicode="乚" glyph-name="乚" d="M 39.19 49.48 C 39.19 43.9 38.19 22.92 38.21 20.37 C 38.3 10.73 36.86 5.17 48.31 5.72 C 61.01 6.32 66.69 5.65 69.67 6.57 C 76.33 8.64 71.99 17.82 71.99 17.82" horiz-adv-x="73.38"/><glyph unicode="乜" glyph-name="乜" d="M 14.54 16.17 C 16.89 15.55 21.13 16.76 23.78 18.83 C 25.24 19.98 41.89 33.08 52.04 39.1 C 57.46 42.31 64.23 48.57 65.87 46.07 C 65.87 42.94 53.82 14.92 49.44 15.39 C 47.25 16.33 44.12 20.4 42.56 25.88 M 36.45 42.47 C 35.72 51.58 44.01 51.62 42.71 43.25 C 41.87 37.81 36.72 18.67 36.45 14.92 C 35.72 4.43 39.9 0.84 48.97 2.87 C 58.05 4.91 78.71 3.97 81.06 7.25 C 83.4 10.54 84.81 23.84 84.81 28.38" horiz-adv-x="84.81"/><glyph unicode="九" glyph-name="九" d="M 32.71 54.99 C 35.84 55.77 46.87 54.26 34.9 22.12 C 24.42 -6.05 21.29 3.65 19.88 6 M 13.78 18.36 C 22.38 23.53 28.96 29.95 32.09 32.29 C 35.22 34.64 43.2 42.31 47.11 44.81 C 47.82 45.27 53.53 48.88 55.09 46.22 C 56.21 44.33 50.09 22.28 49.3 16.8 C 48.75 12.97 48.68 4.12 56.81 1.62 C 62.81 -0.23 79.75 0.28 82.79 1.62 C 88.12 3.97 84.05 14.3 82.32 18.99" horiz-adv-x="85.44"/><glyph unicode="乞" glyph-name="乞" d="M 34.3 59.99 C 37.74 57.96 39.66 54.26 35.7 49.04 C 32.14 44.34 30.74 41.45 29.29 39.65 C 25.31 34.74 24.75 38.71 26.31 42.31 M 35.08 48.57 C 41.65 50.29 54.8 57.96 57.93 57.02 C 58.24 54.05 39.3 41.06 36.8 38.4 C 34.3 35.74 20.52 23.22 19.11 18.52 C 23.18 17.89 35.39 26.19 40.56 30.57 C 44.87 34.23 50.1 38.08 55.89 39.49 C 52.92 34.95 45.44 18.15 44 13.51 C 41.18 4.44 45.88 -0.1 55.58 -0.26 C 64.39 -0.4 69.28 -0.32 73.73 -0.1 C 81.7 0.28 82.65 6.16 76.71 25.25" horiz-adv-x="80.54"/><glyph unicode="也" glyph-name="也" d="M 13.97 19.46 C 16.47 18.36 19.44 18.05 22.42 20.4 C 25.39 22.75 63.42 51.7 68.74 47.47 C 66.71 42.62 56.07 20.56 53.56 22.28 C 47.93 18.52 45.27 39.18 43.86 41.37 M 41.98 54.36 C 44.95 56.08 47.84 56.63 48.71 52.17 C 50.2 44.5 46.5 25.19 45.42 22.9 C 43.08 17.89 42.92 11.79 37.91 25.41 M 32.9 40.43 C 35.88 34.8 35.09 32.45 34.16 25.72 C 33.48 20.89 32.04 14.18 34.78 10.85 C 39.1 5.62 47.62 5.37 52.15 5.06 C 56.69 4.75 61.73 4.44 64.83 4.91 C 70 5.69 90.03 0.84 81.58 23.53" horiz-adv-x="83.63"/><glyph unicode="习" glyph-name="习" d="M 34.51 46.88 C 42.19 47.38 43.96 48.56 45.53 49.15 C 47.11 49.74 62.06 58.69 64.33 56.23 C 66.59 53.77 69.44 55.84 67.67 46.49 C 66.42 39.86 65.61 23.37 65.71 20.91 C 65.8 18.45 63.84 6.44 63.44 4.38 C 63.05 2.31 62.28 -6.2 59.6 -6.15 C 57.42 -6.11 49.08 2.41 47.6 5.85 M 31.76 29.76 C 34.12 28.88 42.09 31.63 42.88 30.94 C 43.66 30.26 40.02 27.4 39.53 27.3 M 32.25 13.43 C 29.2 6.74 30.87 4.38 30.87 4.38 L 49.86 27.6" horiz-adv-x="68.23"/><glyph unicode="乡" glyph-name="乡" d="M 51.44 68.04 C 54.1 68.24 57.45 69.52 57.64 67.15 C 58.02 62.63 42.29 45.61 37.28 39.6 C 50.85 43.44 58.97 50.08 60.6 50.72 C 63.35 51.8 64.53 58.69 63.55 60.66 C 67.29 53.67 47.61 33.9 36.88 20.42 C 54.1 32.32 63.13 33.76 65.32 34.88 C 68.76 36.65 67.85 39.58 67.39 43.74 C 71.91 37.83 52.53 -9 30.09 -9.2" horiz-adv-x="68.05"/><glyph unicode="乩" glyph-name="乩" d="M 26.51 54.66 C 29.36 50.82 30.64 48.16 28.87 43.15 C 27.1 38.13 27.69 28.19 27.79 27.21 M 29.56 45.8 C 36.55 48.46 42.65 50.33 43.24 50.13 M 13.42 27.7 C 17.56 24.45 20.51 22.19 18.44 5.46 C 19.72 14.51 18.74 18.25 19.52 19.53 C 20.31 20.81 38.32 36.55 39.5 32.52 C 40.68 28.48 30.84 12.35 20.11 8.22 C 26.51 11.36 35.76 17.46 36.25 17.37 M 50.03 66.66 C 53.77 63.81 57.17 60.96 55.63 53.67 C 52.6 39.23 49.41 19.51 49.34 16.87 C 49.04 6.64 55.3 2.88 61.64 2.61 C 69.11 2.29 75.17 3.73 80.13 4.48 C 86.36 5.42 87.81 14.51 82.5 25.83" horiz-adv-x="85.76"/><glyph unicode="书" glyph-name="书" d="M 29.54 33.21 C 32 32.52 34.75 32.22 37.02 33.8 C 38.28 34.68 59.39 44.09 57.97 41.96 C 52.91 34.35 44.1 14.41 27.28 7.33 C 32.59 9.3 47.14 20.24 49.02 20.81 C 53.55 22.19 68.8 27.8 70.57 23.47 C 72.34 19.14 62.42 -3.6 57.78 -4.18 C 54.63 -4.58 45.18 18.55 42.92 25.14 M 34.75 50.13 C 36.62 52.39 40.95 55.64 42.03 47.38 C 43.12 39.11 41.25 20.12 40.85 14.32 C 40.55 9.87 40.15 3.17 39.97 1.62 C 39.57 -1.82 39.18 -5.36 39.18 -6.15 M 57.29 53.87 C 61.02 51.61 67.32 50.53 68.6 48.07 C 69.19 46.93 69.59 45.21 69.59 44.82" horiz-adv-x="70.78"/><glyph unicode="买" glyph-name="买" d="M 34.43 55.4 C 36.52 54.53 37.22 52.43 50.13 58.89 C 63.04 65.34 68.8 62.72 67.4 59.76 C 64.29 53.15 58.15 44.58 57.11 44.41 M 35.13 41.44 C 37.57 41.96 41.78 41.8 42.1 39.87 C 42.45 37.79 29.02 29.58 31.29 27.66 C 33.1 26.13 46.43 28.95 45.59 28.71 C 43.15 28.01 19.07 15.21 20.47 12.13 C 22.04 8.71 29.37 13.01 41.23 18.94 C 53.09 24.87 61.12 28.71 78.22 30.1 C 63.91 25.74 54.84 38.48 48.91 48.59 C 61.99 44.76 44.02 -10.37 26.4 -4.44 M 55.89 7.6 C 67.92 4.81 79.61 -2.17 78.56 -4.79 C 77.52 -7.41 68.62 -7.41 67.4 -6.71" horiz-adv-x="78.63"/><glyph unicode="乱" glyph-name="乱" d="M 34.63 63.53 C 36.49 62.06 41.64 61.77 42.35 60.3 C 42.77 59.42 24.87 48.49 22.62 46.05 M 6.12 27.1 C 7.88 25.74 13.15 24.8 18.62 27.88 C 24.67 31.3 44.1 45.36 47.72 46.54 C 37.86 45.93 35.05 47.22 31.31 50.34 C 39.03 44.19 34.32 36.77 33.75 34.04 C 33.17 31.2 29.26 20.85 28.77 20.07 C 25.45 20.66 22.52 18.61 19.01 18.61 C 20.57 16.95 22.52 11.97 22.43 10.4 C 22.33 8.84 21.75 -4.94 22.23 -5.9 C 22.52 -6.49 22.62 6.79 21.84 13.14 C 23.89 17.05 40.22 28.08 42.25 26.71 C 45.15 24.75 33.95 6.21 25.55 -0.53 C 36.39 6.89 40.1 10.6 42.93 10.7 M 52.4 65.09 C 54.65 66.94 59.82 62.29 61 60.6 C 62.75 58.06 62.52 48.3 61.39 43.22 C 60.22 37.94 59.73 19.68 59.43 13.73 C 59.33 11.64 58.31 -1.92 75.84 -0.34 C 86.87 0.66 96.74 1.32 89.32 22.9" horiz-adv-x="91.89"/><glyph unicode="乳" glyph-name="乳" d="M 39.21 67.27 C 41.03 66.59 44.61 66.73 44.43 65.45 C 44.09 62.95 31.5 55.8 30.02 55.69 M 22.98 47.75 C 24.12 45.14 28.32 36.51 28.89 37.31 C 29.45 38.1 29.34 44.91 30.36 44.8 C 31.27 44.7 33.15 46.8 34.33 46.27 C 36.37 45.36 38.87 49.9 38.87 49.9 C 38.87 49.9 44.43 55.46 45.57 53.99 C 46.7 52.51 44.32 48.2 42.28 46.27 C 40.23 44.34 31.5 29.36 14.7 19.15 C 27.41 27.66 38.99 39.01 41.37 37.87 C 43.75 36.74 34.63 23.94 32.4 23.12 C 41.11 18.29 37.24 -4.17 33.99 -3.66 C 28.66 -2.82 27.52 -0.17 26.16 1.45 C 24.55 3.37 21.28 3.04 21.28 3.04 C 26.05 6.1 40.91 27.09 44.32 33.34 C 47.72 39.58 56.23 50.81 58.39 52.4 C 61.87 54.95 59.39 70.49 59.75 68.85 C 61.17 62.48 58.22 20.58 58.28 18.13 C 58.5 8.48 63.95 4.62 72.12 6.33 C 78.34 7.62 88.01 3.26 84.72 32.77" horiz-adv-x="85.38"/><glyph unicode="乾" glyph-name="乾" d="M 25.99 62.25 C 28.28 58.14 30.1 57.66 26.35 49.93 C 22.6 42.19 20.07 34.7 13.06 25.76 C 18.25 32.16 39.89 54.74 42.06 48.11 C 42.86 45.65 40.24 37.48 36.14 35.06 C 33 33.22 30.82 30.35 29.01 33.13 C 27.73 35.09 28.84 39.37 31.3 37 C 34.96 33.47 31.91 17.18 31.79 11.87 C 31.74 9.73 29.43 -8.98 27.32 -6.38 C 24.11 -2.44 15.14 3.28 16.68 4.37 C 26.1 11.02 38.92 29.27 41.21 31.2 C 43.51 33.13 49.79 43.52 50.64 45.34 M 51.97 66.84 C 56.19 65.39 60.54 65.39 59.09 58.75 C 57.26 50.32 52.93 43.76 55.71 45.46 C 58.49 47.15 65.61 53.32 66.71 52.22 C 70.45 48.48 39.52 17.42 42.9 19.6 C 46.29 21.77 72.51 40.62 69.97 36.64 C 67.43 32.65 61.05 11.69 60.91 8.12 C 60.54 -0.82 68.7 -0.27 72.87 -0.1 C 81.33 0.27 90.87 -3.12 84.23 21.29" horiz-adv-x="86.45"/><glyph unicode="了" glyph-name="了" d="M 29.71 41.74 C 31.56 39.89 34.63 39.14 39.53 41.74 C 42.19 43.16 62 53.95 64.22 52.28 C 66.44 50.61 74.07 51.78 53.79 35.82 C 51.02 33.63 50.12 34.24 48.05 34.15 C 58.67 32.34 60.48 0.58 50.83 -8.65 C 49 -10.4 42.68 -1.61 42.68 -1.61" horiz-adv-x="67.48"/><glyph unicode="予" glyph-name="予" d="M 43.36 56.6 C 51.45 56.34 65.79 64.86 63.43 59.88 C 62.38 57.67 51.55 45.54 51.02 45.54 M 45.18 46.07 C 50.62 45.54 52.47 44.75 53.4 43.95 M 24.44 24.62 C 21.52 22.9 25.04 19.04 28.09 21.3 C 33.24 25.1 40.09 28.89 43.59 31.48 C 48.91 35.42 73.48 44.42 74.14 41.37 C 74.78 38.41 60.44 30.8 51.76 34.2 C 59.46 30.75 56.67 -12.37 52.13 -14.33 C 48.75 -15.78 44.79 -12.92 40.9 -6.89" horiz-adv-x="74.16"/><glyph unicode="争" glyph-name="争" d="M 41.02 66.42 C 44.9 63.59 46.55 60.77 42.67 55.12 C 38.79 49.48 32.2 44.18 33.38 45.13 C 34.55 46.07 54.21 60.54 56.08 59.01 C 59.37 56.3 44.79 41.36 42.79 39.6 C 40.79 37.83 25.73 27.36 26.67 28.07 C 27.61 28.77 62.44 49.86 66.2 46.65 C 71.51 42.11 61.84 30.54 58.31 23.01 M 19.5 16.07 C 37.26 25.6 69.49 41.95 80.31 36.66 M 29.85 10.78 C 42.43 17.6 57.02 24.19 64.43 23.83 M 44.55 38.07 C 48.9 35.36 53.48 31.63 51.84 10.31 C 50.67 -4.99 51.83 -11.41 48.08 -13.57 C 46.72 -14.36 35.49 -9.34 33.96 -5.93" horiz-adv-x="80.31"/><glyph unicode="事" glyph-name="事" d="M 27.43 55.83 C 26.37 51.48 30.04 50.98 31.9 51.6 C 34.72 52.54 47.49 58.72 48.6 59.24 C 50.84 60.3 56.6 63.48 70.36 63.12 C 61.42 64.36 45.07 43.48 43.31 43.6 C 43.31 43.6 56.8 51.57 56.72 50.42 C 56.25 44.18 36.95 30.89 36.13 30.19 C 35.31 29.48 68.22 51.49 70.13 43.71 C 70.82 40.9 62.6 25.25 60.6 23.48 M 44.25 23.13 C 38.48 23.72 42.48 25.6 43.89 26.3 C 46.78 27.75 56.54 33.62 56.95 32.3 C 57.54 30.42 40.25 14.42 37.31 12.66 C 52.6 23.25 61.51 23.28 64.36 23.83 C 65.76 24.11 68.48 23.48 69.66 22.66 M 45.42 72.65 C 50.6 66.65 53.54 62.06 53.54 59.12 C 53.54 56.18 51.54 21.25 51.78 15.48 C 51.85 13.6 54.13 -7.22 49.07 -8.28 C 44.09 -8.11 40.6 -5.69 40.13 -4.75" horiz-adv-x="70.36"/><glyph unicode="二" glyph-name="二" d="M 32.33 34.07 C 49.81 36.78 56.55 43.34 59.04 40.18 C 54.31 39.74 48.45 34.42 48.45 34.42 M 18.69 13.6 C 20.45 11.48 23.16 10.42 28.22 12.54 C 33.8 14.88 45.51 17.74 47.51 17.95 C 50.8 18.31 56.92 20.89 58.45 21.48 C 59.98 22.07 72.92 25.48 79.74 18.31" horiz-adv-x="79.74"/><glyph unicode="亍" glyph-name="亍" d="M 37.71 52.07 C 40.18 51.36 48.3 52.65 51.94 53.48 C 53.79 53.9 59.82 57.12 60.41 57.12 M 19.24 29.72 C 18.89 28.66 20.67 26.02 23.71 27.01 C 30.37 29.18 39.24 33.09 44.89 35.48 C 47.45 36.57 57.5 40.76 60.06 41.48 C 63 42.3 71.82 45.83 81.47 39.13 M 44.77 35.24 C 47.47 32.07 53.71 27.01 53.35 21.48 C 52.95 15.14 52.27 -3.04 52.06 -4.4 C 51.71 -6.75 51.37 -14.4 48.53 -13.57 C 45.71 -13.34 39.36 -8.52 38.3 -6.28" horiz-adv-x="81.47"/><glyph unicode="于" glyph-name="于" d="M 36.15 49.24 C 39.79 46.42 61.67 56.89 63.44 56.54 C 58.03 54.07 55.79 51.71 54.97 51.12 M 30.97 30.19 C 26.26 24.66 27.44 22.42 30.97 24.66 C 34.5 26.89 67.91 45.48 73.44 41.24 M 46.62 46.89 C 46.85 47.71 45.79 53.48 48.62 49.36 C 51.44 45.24 55.33 38.72 54.14 25.95 C 53.16 15.26 54.22 -8.13 50.26 -10.16 C 47.92 -11.37 36.97 -3.46 36.85 -2.16" horiz-adv-x="73.44"/><glyph unicode="亏" glyph-name="亏" d="M 44.7 57.04 C 46.84 56.32 65.08 62.74 66.22 63.45 C 67.36 64.16 21.47 29.68 28.03 29.53 C 34.58 29.39 68.5 50.2 73.2 47.49 M 55.39 41.36 C 54.1 39.08 45.55 20.7 43.7 19.99 C 47.12 21.84 57.08 27.82 59.66 29.11 C 62.51 30.53 71.8 33.55 71.35 27.25 C 69.77 5.6 61.17 -8.78 56.81 -8.94 C 52.82 -9.08 46.55 -2.53 44.13 0.04" horiz-adv-x="73.2"/><glyph unicode="云" glyph-name="云" d="M 43.47 42.37 C 46.95 41.42 56.75 39.84 64.18 43.79 M 21.33 15.96 C 22.44 14.86 27.57 13.93 43.94 19.6 C 52.17 22.45 72.09 31.46 78.1 28.77 C 62.82 29.31 55.17 23.23 53.75 20.55 C 52.32 17.86 42.36 3.32 35.41 -0.95 C 43.67 1.45 58.17 5.06 62.28 8.53 C 64.59 10.48 66.24 12.17 66.24 12.17 M 61.49 16.76 C 65.76 12.8 70.03 12.01 73.51 -0.95" horiz-adv-x="78.1"/><glyph unicode="互" glyph-name="互" d="M 36.03 52.2 C 43.18 48.77 56.77 59.85 55.06 56.73 C 46.71 52.09 38.55 21.18 32.11 16.15 C 30.7 16.95 52.95 27.53 53.75 27.43 M 42.38 35.48 C 51.94 39.61 54.72 41.69 58.18 43.33 C 59.8 44.1 63.32 41.92 63.02 40.01 C 61.26 28.92 49.2 9.75 47.01 8.9 C 45.2 8.2 17.91 0.64 15.19 0.44 C 47.11 8.4 68.05 14.84 84.56 7.29" horiz-adv-x="84.56"/><glyph unicode="亓" glyph-name="亓" d="M 37.89 52.9 C 42.32 49.38 57.32 54.01 65.18 59.24 M 20.47 29.44 C 23.8 25.92 30.34 30.25 32.86 31.86 C 35.37 33.47 48.56 40.21 55.51 43.03 C 57.02 43.64 74.34 47.56 79.07 46.25 M 43.03 37.09 C 45.85 28.33 36.48 9.5 33.16 4.37 C 32 2.58 30.14 0.95 28.53 4.07 M 61.86 44.04 C 62.76 39.31 62.36 28.84 62.66 23.3 C 62.92 18.44 62.96 -4.59 60.75 -10.23" horiz-adv-x="79.07"/><glyph unicode="五" glyph-name="五" d="M 36.23 49.98 C 43.17 47.36 54.13 54.85 54.65 54.51 C 56.44 53.36 41.14 24.51 38.74 17.96 C 37.97 15.86 29.76 3.88 27.47 24.41 C 30.99 25.92 40.56 29.04 42.67 31.45 C 44.78 33.87 52.9 39.2 58.58 38.4 C 66.03 37.35 59.08 27.33 55.26 23.3 C 51.43 19.27 46.4 11.72 45.09 10.81 C 43.78 9.91 37.94 6.58 18.81 2.56 C 23.74 2.05 70.96 19.98 79.62 12.42" horiz-adv-x="79.62"/><glyph unicode="井" glyph-name="井" d="M 31.87 48.42 C 37.11 47.57 62.43 60.84 62.73 58.89 C 63.35 54.81 21.4 21.53 23.38 22.09 C 46.31 38.65 55.93 40.78 75.32 42.62 C 62.44 43.89 40.22 59.03 34.84 63.84 C 43.05 56.2 43.94 21.39 32.3 6.95 C 30.34 4.53 29.18 4.69 28.62 6.39 M 55.08 74.74 C 58.19 73.18 59.33 69.36 58.9 62.99 C 58.04 49.98 60.74 -1.82 56.21 -11.73" horiz-adv-x="75.32"/><glyph unicode="亘" glyph-name="亘" d="M 36.47 57.98 C 44.37 48.6 61.78 59.73 58.7 57.85 C 56.18 56.3 40.89 48.2 39.41 47.13 M 30.7 39.09 C 35.8 32.13 34.86 10.82 35.53 9.08 C 35.13 17.12 34.86 17.66 34.59 23.82 C 36.47 26.1 52.9 42.01 56.83 42.58 C 61.52 43.25 67.55 42.84 62.72 30.12 C 60.19 23.43 56.69 19.67 52.94 17.39 C 51.42 16.46 42.09 14.58 42.49 21.01 C 42.76 25.19 56.29 30.65 55.36 25.43 C 53.65 15.93 45.44 12.83 41.15 9.75 C 37.92 7.43 32.85 4.39 28.29 1.31 C 26.15 -0.14 20.03 -2.09 19.85 -3.65 C 19.18 -9.67 30.97 -4.58 35.13 -1.5 C 39.28 1.58 73.44 10.02 80.41 6 C 81.99 5.09 76.25 5.73 67.14 1.04" horiz-adv-x="80.67"/><glyph unicode="亚" glyph-name="亚" d="M 33.84 53.43 C 39.61 53.02 55.82 62.4 59.3 60.26 C 53.27 60.93 43.09 55.84 41.62 52.76 C 40.32 50.04 38.26 17.87 37.86 10.82 C 38.64 10.14 40.41 14.04 40.41 14.04 M 49.92 56.78 C 53.14 52.76 54.88 47 54.34 42.58 C 53.88 38.77 53.14 32.26 52.6 29.98 C 52.07 27.7 51.13 14.44 51.13 14.44 C 51.13 14.44 47.78 19 44.56 19.93 M 27.55 29.31 C 22.99 24.76 19.64 16.18 22.06 17.12 C 24.47 18.06 38.53 30.92 41.35 32.13 C 44.16 33.33 62.92 43.91 64.66 42.17 C 65.73 41.1 78.59 40.7 42.55 15.11 M 12.28 7.21 C 12.41 3.19 14.83 0.35 22.99 4.13 C 37.78 10.97 57.42 20.74 87.97 12.16" horiz-adv-x="87.97"/><glyph unicode="些" glyph-name="些" d="M 29.85 57.76 C 38.74 54.45 34.64 43.36 35.29 40.25 C 35.77 37.95 36.75 40.12 38.08 45.16 M 42.99 62.41 C 46.83 64.4 47.99 59.21 47.76 58.16 C 43.59 39.09 43.52 30.97 35.56 36.27 M 20.03 39.32 C 24.01 34.15 24.52 23.57 22.95 19.69 C 22.43 18.4 72.84 64.13 79.87 61.88 C 62.75 61.61 61.16 67.85 55.46 74.88 C 68.59 64.93 60.13 50.7 59.97 45.16 C 59.44 27.65 83.05 40.78 75.89 36.94 C 68.72 33.09 52.4 28.05 44.71 23.27 C 38.74 19.03 42.85 16.64 46.83 17.04 C 54.81 17.83 57.71 20.09 62.09 20.22 C 56.78 19.29 44.31 8.01 41.39 6.16 C 38.49 4.31 33.23 -6.07 44.44 -2.47 C 55.99 1.25 68.59 4.96 72.97 2.71 C 75.36 1.48 64.34 -1.67 58.11 -4.46" horiz-adv-x="79.87"/><glyph unicode="亟" glyph-name="亟" d="M 32.05 53.29 C 38.21 53.69 45.05 58.65 48.8 60.53 C 52.55 62.4 57.5 64.41 61.26 63.07 C 57.37 61.47 47.92 43.06 44.11 42.31 C 48.64 48.6 56.42 29 48.39 7.88 C 46.72 11.5 43.72 13.91 38.88 19 M 20.53 36.41 C 22.94 33.87 25.75 23.42 25.35 14.31 C 24.95 5.2 24.41 23.42 26.69 26.9 C 28.97 30.38 38.48 37.08 38.48 34.67 C 38.48 32.26 30.17 11.23 31.25 11.9 C 32.32 12.57 50 31.99 50.94 33.2 C 51.88 34.4 65.28 44.72 65.28 44.72 C 65.28 44.72 69.56 40.83 68.76 36.55 C 67.95 32.26 61.26 22.75 59.78 23.15 C 58.31 23.55 51.61 26.1 55.36 29.04 C 59.11 31.99 59.51 32.93 59.51 32.93 C 59.51 32.93 75.19 36.55 72.64 31.59 C 70.1 26.63 62.06 16.45 54.02 13.5 M 23.61 -1.23 C 24.01 -4.18 28.57 -4.85 36.34 -2.31 C 50.3 2.27 57.64 5.33 60.59 5.6 C 63.53 5.87 74.12 6.27 79.21 2.92" horiz-adv-x="79.21"/><glyph unicode="亠" glyph-name="亠" d="M 41.08 48.94 C 43.52 46.89 57.97 45.33 50.16 38.11 M 21.36 24.05 C 24 23.37 32.03 23.05 40.49 25.42 C 55.56 29.63 70.85 35.27 78.66 31.96" horiz-adv-x="78.66"/><glyph unicode="亡" glyph-name="亡" d="M 43.37 51.31 C 49.35 53.07 58.27 51.03 58.31 49.54 C 58.38 46.69 53.15 44.38 45.54 40.31 M 20.56 24.28 C 31.29 22.11 71.89 38.68 78.41 35.83 M 39.3 26.86 C 43.37 20.62 44.05 10.03 35.77 2.97 C 44.05 6.77 67.81 15.73 77.05 10.84" horiz-adv-x="78.41"/><glyph unicode="亢" glyph-name="亢" d="M 40.03 67.49 C 46.08 67.49 51.96 68.22 53.62 65.72 C 54.03 65.11 51.45 63.14 41.49 57.04 M 18.07 40.16 C 21.39 38.89 28.02 41.24 30.27 42.6 C 42.96 50.21 61.9 57.92 68.63 55.09 C 61.51 54.41 61.11 53.24 57.5 51.38 M 34.47 36.15 C 41.79 28.34 33 3.45 26.66 0.23 C 24.41 2.28 28.39 14.09 29.68 14.09 L 30.37 14.09 M 36.91 29.42 C 42.76 32.15 49.33 38.33 50.96 39.37 C 53.4 40.94 57.91 41.33 53.4 28.44 C 52.02 24.49 49.73 11.87 52.13 6.97 C 57.31 -3.57 76.32 -1.62 78.78 2.38 C 80.75 5.56 78.98 19.56 77.71 25.22" horiz-adv-x="79.66"/><glyph unicode="交" glyph-name="交" d="M 39.11 63.02 C 45.19 65.38 56.11 64.75 54.13 61.53 C 52.14 58.3 42.21 53.46 40.6 53.58 M 25.09 42.66 C 21.36 38.32 28.18 37.18 34.27 40.18 C 43.86 44.91 61.95 56.56 59.59 53.09 C 57.23 49.61 46.18 29.26 38.24 21.69 C 40.1 26.53 54.5 30.75 54.62 24.79 C 54.74 19.05 48.29 -1.02 42.34 -3.38 C 34.37 -6.54 27.58 -2.8 25.95 -0.53 C 24.16 1.98 20 8.28 28.06 8.53 C 40.82 8.93 50.09 7.25 55.37 5.18 C 61.08 2.95 71.93 -10.51 70.88 -5.37 C 70.13 -1.68 65.67 2.95 64.92 9.53 M 62.19 35.46 C 67.78 35.59 76.47 30.38 75.1 25.66" horiz-adv-x="75.24"/><glyph unicode="亥" glyph-name="亥" d="M 41.8 66.79 C 48.06 65.58 53.81 64.85 54.98 62.18 C 54.98 62.18 51.36 60.09 47.62 59.21 M 20.49 42.73 C 23.02 39.33 25.97 37.63 32.24 41.09 C 38.84 44.71 60.7 58.11 62.67 57.23 C 53.01 44.49 30.49 23.95 29.28 20.54 C 31.37 21.42 47.97 32.57 49.82 33.07 C 52.68 33.84 54.65 35.26 55.86 42.18 C 53.45 27.24 34.33 3.74 26.86 -3.18 C 25.78 -4.18 18.84 -10.87 24.34 2.09 M 55.09 26.48 C 59.71 25.27 58.29 21.53 57.51 19.34 C 53.47 8.05 45.76 0 43.67 -1.43 C 41.58 -2.85 37.08 -5.05 34.55 -1.32 M 51.69 7.69 C 58.5 7.03 67.52 5.52 72.01 2.86 C 76.23 0.36 78.71 -1.18 76.73 -3.18 C 75.96 -3.97 70.36 -3.18 66.74 -1.43" horiz-adv-x="77.43"/><glyph unicode="亦" glyph-name="亦" d="M 40.5 59.42 C 49.39 42.83 20.34 23.86 26.57 27.84 C 32.81 31.82 46.6 52.38 69.69 51.46 M 38.25 37.92 C 44.35 33.15 37.18 0.25 36.39 1.44 C 35.59 2.63 34.93 9 34.93 10.33 M 48.46 46.02 C 58.01 39.78 54.03 -7.58 51.51 -6.65 C 49.04 -5.74 45.68 0.11 44.61 2.37 M 23.52 20.15 C 21.8 18.02 19.66 9.05 21.26 4.89 C 21.93 3.16 22.99 7.14 24.85 8.74 M 58.28 28.11 C 64.51 25.72 76.72 23.06 78.58 17.63" horiz-adv-x="78.58"/><glyph unicode="产" glyph-name="产" d="M 54.43 68.55 C 57.94 68.11 63.07 67.12 64.76 64.59 C 65.69 63.19 62.56 63.6 60.58 63.5 M 47.62 58.66 C 47.4 51.52 63.44 59.76 68.38 64.04 C 62.89 58.44 53.88 45.37 45.64 43.5 C 55.42 46.91 64.54 54.05 70.69 54.38 C 64.1 38.45 49.49 34.06 36.08 28.12 C 46.74 31.31 71.46 48.01 77.72 42.62 M 47.4 33.07 C 46.74 13.18 35.43 -6.92 22.13 -11.97" horiz-adv-x="77.72"/><glyph unicode="亩" glyph-name="亩" d="M 39.75 59.98 C 44.11 60.75 56.92 61.39 56.54 58.96 C 56.15 56.52 47.18 52.55 47.18 52.55 M 20.53 37.17 C 20.4 35.12 22.2 30.76 29.5 34.48 C 36.8 38.2 58.3 44.99 65.25 46.53 C 69.51 47.47 74.99 49.09 80.37 46.53 M 31.93 25.38 C 36.68 19.87 35.39 10.39 36.16 -1.15 C 35.65 15.51 35.65 13.34 35.01 18.85 C 39.37 21.67 57.18 30.76 61.02 31.15 C 64.87 31.53 73.58 32.43 70.25 21.92 C 66.92 11.41 63.46 -7.55 62.18 -6.14 C 60.9 -4.73 56.67 3.6 56.54 4.37 M 49.49 26.02 C 50.39 17.69 49.23 10.13 48.08 5.39 C 46.42 6.42 40.78 10.39 35.91 9.62 C 39.62 12.05 56.7 21.44 58.85 19.49 C 61.19 17.35 51.03 12.82 46.8 5.9 C 46.37 5.2 43.6 3.72 36.55 -0.89 C 46.42 5.01 56.01 8.3 59.36 6.8 C 60.07 6.48 56.92 5.01 56.92 4.49" horiz-adv-x="80.37"/><glyph unicode="亨" glyph-name="亨" d="M 41.03 70.75 C 46.85 70.53 53.11 70.09 54.98 67.89 M 23.23 57.78 C 26.2 52.18 37.51 58.37 41.68 59.98 C 46.52 61.85 68.93 69.54 76.29 63.39 M 35.09 52.4 C 39.38 48.45 38.83 42.4 39.27 35.7 C 39.27 46.14 38.94 41.96 38.72 46.58 C 39.93 47.9 52.26 54.11 53.33 54.93 C 55.2 56.35 60.8 57.01 61.57 56.25 C 58.93 53.11 57.45 50.59 55.86 46.45 C 54.95 44.1 46.85 40.43 39.38 39.44 C 48.39 40.76 56.29 44.6 59.26 44.82 M 32.79 28.89 C 30.59 25.27 31.6 23.84 36.85 26.81 C 43.41 30.51 50.8 34.51 55.64 36.14 C 57.61 36.81 62.26 37.35 64.53 36.47 C 47.76 24.31 51.28 21.92 45.53 21.75 C 60.69 27.41 57.94 -4.5 51.46 -12.3 C 49.92 -15.27 40.92 -7.58 36.19 -3.4" horiz-adv-x="76.29"/><glyph unicode="京" glyph-name="京" d="M 41.88 67.1 C 50.64 65.51 56.87 66.7 55.15 65.37 C 53.42 64.05 49.31 61.26 46.92 61.53 M 19.46 44.28 C 22.24 41.76 25.83 42.69 36.84 46.4 C 47.85 50.12 70.8 62.06 79.96 56.88 M 35.97 34.53 C 36.37 29.35 39.8 23.45 38.39 12.55 C 39.19 19.34 37.8 25.2 37.38 26.67 C 36.07 31.23 44.34 34.24 54.93 39.36 C 59.97 41.79 71.53 47.82 65.42 37.93 C 61.71 31.94 53.72 23.27 38.59 15.76 C 51.1 22.38 60.38 25.42 64.81 23.99 M 49.57 18.67 C 53.29 12.97 51.96 -11.44 49.71 -10.64 C 47.62 -9.91 42.01 -4.67 40.42 1.16 M 33.79 6.34 C 30.87 3.95 29.84 -4.56 31.4 -5.6 C 32.59 -6.4 34.85 0.63 35.77 1.69 M 60.05 12.7 C 68.41 12.97 75.91 10.55 79.29 6.87 C 80.33 5.74 70.93 3.15 70.14 3.95" horiz-adv-x="79.96"/><glyph unicode="亭" glyph-name="亭" d="M 43.64 69.62 C 50.22 70.21 56.35 68.22 56.51 67.39 M 29.1 55.34 C 35.82 54.11 40.3 57.89 45.87 59.69 C 54.06 62.35 61.79 63.35 68.28 62.02 M 34.51 51.06 C 40.63 51.7 40.09 38.07 40.2 34.96 C 39.98 44.83 39.57 44.98 38.7 48.05 C 38.31 49.42 46.92 52.79 52.86 54.92 C 55.02 55.69 61.87 57.17 61.12 54.81 C 59.64 50.16 55.61 45.98 54.47 45.05 C 52.64 43.56 47.17 43.01 40.31 40.11 C 48.14 43.76 57.26 44.19 59.51 42.79 M 27.35 34.24 C 33.15 27.86 24.23 18.62 24.63 11.28 C 24.77 14.64 27.44 22.88 29.2 25.87 C 29.89 27.03 36.9 32.91 48.05 37.32 C 59.55 41.87 81.16 45.46 77.71 40.37 C 75.99 37.83 73.92 40.6 66.3 31.7 M 32.23 17.29 C 40.59 14.71 55.93 31.42 66.25 28.23 M 48.03 22.61 C 53.61 19.42 56.77 -35.93 36 -5.36" horiz-adv-x="78.08"/><glyph unicode="享" glyph-name="享" d="M 39.31 67.68 C 44.19 68.2 51.66 65.63 52.95 64.59 M 28.25 57.91 C 31.29 52.84 48.46 63.39 53.72 64.34 C 59.51 65.38 63.75 65.63 67.48 65.37 M 35.32 50.45 C 39.57 52.76 38.28 40.28 39.31 38.23 C 38.93 44.79 38.54 46.2 38.41 47.49 C 40.72 49.54 52.47 56.68 55.91 57 C 62.2 57.13 51.4 46.34 50.63 45.56 C 49.86 44.79 47.93 42.47 39.57 38.61 C 43.95 40.67 55.26 47.49 57.57 46.58 M 37.38 34.37 C 30.43 30.76 29.42 23.53 35.84 27.81 C 46.98 35.24 54.23 38.86 54.23 38.86 C 65.56 41.44 52.04 28.96 50.63 27.93 C 48.86 26.63 47.55 26.01 43.81 26.39 C 49.98 25.36 54.87 21.76 54.61 10.57 C 54.53 6.78 53.85 -4.27 44.51 -9.46 C 41.05 -9.05 39.25 -6.48 36.35 -3.97 M 22.2 14.55 C 35.15 16.59 43.81 21.44 54.1 24.43 C 56.95 25.26 72.09 29.36 77.26 24.17" horiz-adv-x="77.26"/><glyph unicode="亮" glyph-name="亮" d="M 44.39 71.01 C 51.25 78.18 57.95 70.38 57.79 68.2 C 57.74 67.42 53.58 71.01 51.09 68.51 M 20.54 52.61 C 22.87 48.87 27.55 47.68 34.1 51.21 C 42.2 55.57 53.58 62.12 60.75 63.68 C 63.23 64.22 71.04 65.86 76.81 63.84 M 45.48 53.24 C 42.67 47.94 49.67 48.6 50.93 46.85 C 52.96 44.04 50.47 40.77 53.27 39.67 C 56.08 38.58 73.03 41.25 63.25 29.54 C 58.56 23.94 57.01 21.12 52.96 19.25 C 48.79 17.33 36.44 18.32 34.72 17.38 C 32.23 20.5 41.82 35.72 46.72 32.97 C 50.76 32.33 43.92 15.05 43.76 13.95 C 43.61 12.86 34.57 -7.25 34.1 -13.33 C 34.41 -9.43 37.04 2.26 42.36 8.19 C 47.82 14.27 52.1 17.43 58.1 15.36 C 62.55 13.82 57.05 -2.26 59.35 -7.56 C 62.97 -15.89 76.97 -14.57 77.43 -12.39 C 77.9 -10.21 77.9 -3.19 75.25 -0.39" horiz-adv-x="77.67"/><glyph unicode="亲" glyph-name="亲" d="M 45.26 67.91 C 50.17 66.21 60.36 64.89 61.11 62.06 C 61.39 61 54.32 61.87 54.32 61.87 M 40.36 58.48 C 43.94 53.95 59.6 60.55 64.51 62.44 C 53.58 56.95 42.81 44.7 40.36 43.01 C 44.32 39.61 55.64 55.08 63.19 52.25 C 63.56 49.42 50.36 39.8 46.58 37.35 C 43.67 35.45 33.56 23.76 21.68 26.21 C 28.85 24.89 34.88 28.48 39.79 31.68 C 45.07 35.14 54.98 39.78 56.58 40.36 C 64.88 43.38 72.02 45.17 76.39 43.57 C 73.72 42.89 63.38 37.35 61.87 36.4 C 60.36 35.46 45.55 25.7 41.11 22.44 C 39.2 21.03 37.34 18.48 37.71 17.16 C 39.98 15.27 63.75 29.42 69.79 29.61 C 64.4 32.12 56.77 32.44 52.62 38.1 C 56.18 32.46 54.77 19.37 54.51 17.53 C 53.41 9.8 53.81 -6.24 51.3 -5.49 C 47.53 -4.35 41.68 3.95 40.73 4.7 M 35.26 12.25 C 35.07 9.99 34.39 4 37.15 -0.77 C 37.84 -1.96 38.09 2.82 38.09 2.82 M 62.24 17.53 C 69.41 15.46 75.64 11.12 76.21 4.33" horiz-adv-x="76.39"/><glyph unicode="亳" glyph-name="亳" d="M 40.93 73.57 C 50.55 72.06 53.19 69.23 53.19 69.23 M 33.19 63.38 C 36.4 61.69 56.02 69.8 61.87 71.87 C 58.29 69.99 44.02 65.36 42.82 63.95 C 35.27 55.08 35.27 43.95 35.65 37.91 C 34.89 46.21 36.78 50.74 36.59 51.5 C 40.93 53.57 53.67 62.05 58.67 61.12 C 62.99 60.31 51.12 50.55 49.8 48.29 C 48.48 46.02 38.29 43.95 35.27 41.68 C 37.34 42.44 51.68 48.67 55.46 48.48 M 26.4 36.02 C 27.53 32.63 26.4 28.48 26.02 26.78 C 25.65 25.08 19.99 15.84 18.85 13 C 20.93 16.78 25.08 24.33 26.78 26.97 C 33.19 32.82 66 50.1 71.68 42.63 C 73.65 40.04 63.01 38.1 60.74 37.35 M 48.67 34.14 C 50.74 34.51 54.7 33.19 53.57 31.87 C 52.44 30.55 33.38 16.21 32.06 15.27 M 25.46 7.34 C 23.76 2.82 26.9 3.2 30.36 4.7 C 36.63 7.42 48.85 15.65 53.19 17.53 C 55.38 18.48 62.44 17.16 59.23 19.99 C 54.7 23.57 50.17 21.68 45.46 24.7 C 46.59 13.57 41.67 7.97 41.31 3.76 C 40.68 -3.41 46.74 -4.92 57.72 -4.92 C 69.8 -4.92 77.35 -3.57 78.67 0.36 C 80.18 4.89 77.16 18.67 76.4 19.99" horiz-adv-x="79.08"/><glyph unicode="亵" glyph-name="亵" d="M 40.71 75.03 C 44.76 74.37 49.93 73.35 51.39 70.65 M 26.94 61.39 C 30.02 56.64 61.19 73.35 67.17 71.02 C 62.11 67.37 57.15 66.27 53.32 64.82 M 21.45 41.84 C 24.18 41.06 34.74 48.95 39.72 50.87 C 36.56 51.39 36.13 51.92 32.31 59.2 C 35.08 52.92 33.45 22.78 31.06 22.43 C 28.72 22.08 27.52 29.36 23.46 29.63 C 21.02 29.8 37.85 41.19 38.9 45.33 M 48.9 61.25 C 50.33 60.6 52.05 60.35 52.24 58.52 C 52.43 56.12 49.32 40.85 45.93 35.83 C 45.22 34.1 40.81 31.98 39.36 37.07 M 41.38 44.17 C 49.04 49.66 58.17 57.73 59.6 57.73 C 60.75 57.73 62.9 57.38 62.04 55.94 C 61.23 54.5 60.03 52.58 59.8 51.45 C 59.32 49.23 58.46 44.65 58.07 42.86 C 57.6 40.28 56.83 37.62 57.12 35.92 C 57.55 33.91 57.12 28.37 63.76 28.64 C 71.22 28.9 74.48 29.73 74.86 29.73 C 77.2 29.82 77.92 33.3 74.43 40.76 M 44.3 43.25 C 46.31 42.33 50.8 40.06 52.24 37.84 M 41.6 28.74 C 36.48 17.74 7.69 -11.79 10.88 2.69 M 33.83 17.71 C 33.59 14.14 34.38 11.22 33.54 5.75 C 32.29 -2.35 32.26 -8.19 32.73 -11.54 C 55.35 -8.99 65.73 28.29 62.44 25.23 C 53.67 17.06 37.79 9.61 34.89 9.54 C 43.61 8.96 66.75 12.1 74.4 8.3 C 82.86 4.14 75.52 1.59 64.33 -0.45" horiz-adv-x="78.07"/><glyph unicode="人" glyph-name="人" d="M 40.04 57.16 C 46.26 55.27 43.43 53.38 40.04 49.04 C 36.52 44.55 19.47 18.29 16.83 15.46 C 14.69 13.16 12.3 9.04 11.73 14.33 M 30.22 34.89 C 35.32 33.57 42.87 29.66 44.56 27.72 C 48.61 23.08 57.61 17.47 59.85 16.21 C 65.89 12.82 77.4 9.8 88.15 11.12" horiz-adv-x="88.15"/><glyph unicode="亻" glyph-name="亻" d="M 58.72 62.06 C 61.36 59.99 65.59 56.8 62.31 51.87 C 58.53 46.21 54.19 33.01 50.8 28.29 C 47.91 24.28 42.87 13.38 34.19 10.74 M 54.57 36.4 C 57.4 34.7 59.48 28.1 58.72 23.76 C 57.97 19.42 53.87 -9.47 54.19 -11.34 C 58.34 -2.67 62.31 8.1 62.31 9.99" horiz-adv-x="63.51"/><glyph unicode="亿" glyph-name="亿" d="M 40.83 38.48 C 46.86 38.85 66.45 50.69 66.68 49.61 C 67.43 46.02 59.65 45.19 47.43 17.53 C 43.15 7.85 54.17 7.05 65.36 7.16 C 72.9 7.23 80.13 7.91 82.71 10.36 C 85.66 13.16 82.71 24.33 80.64 27.34 M 27.05 36.97 C 27.62 33.76 30.83 27.16 29.32 23.76 C 27.81 20.36 23.85 2.63 24.6 1.12 M 32.34 57.16 C 37.24 55.27 34.55 51.92 31.77 46.02 C 25.42 32.53 18.56 24.14 14.6 19.23" horiz-adv-x="83.96"/><glyph unicode="什" glyph-name="什" d="M 36.52 55.4 C 41.71 53.99 39.59 50.22 38.88 47.15 C 38.17 44.08 26.61 26.63 20.95 21.68 M 31.1 34.65 C 35.81 31.35 35.58 17.43 31.33 8 C 33.93 13.89 34.16 17.2 34.63 20.97 C 37.94 25.92 57.98 46.91 78.03 44.79 C 74.44 45.28 67.82 50.74 65.3 52.81 C 61.05 71.21 59.87 66.96 55.63 69.56 C 58.46 67.43 64.12 70.26 64.59 42.43 C 65.06 14.6 63.41 1.16 62.46 -1.67 C 61.52 -4.5 59.16 -9.93 57.75 -11.58" horiz-adv-x="78.03"/><glyph unicode="仁" glyph-name="仁" d="M 33.98 59.46 C 36.27 57.98 36.21 51.8 34.18 46.17 C 33.14 43.27 23.65 22.42 16 17.46 M 28.61 33.94 C 29.61 29.4 32.82 17.63 28.25 2.49 M 49.3 41.24 C 66.85 44.22 73.61 51.44 76.11 47.96 C 71.37 47.48 65.49 41.62 65.49 41.62 M 41.04 18.02 C 46.81 11.44 76.8 29.73 88.24 23.55" horiz-adv-x="88.24"/><glyph unicode="仂" glyph-name="仂" d="M 35.39 55.51 C 38.62 50.68 35.9 44.74 34.79 42.32 C 33.68 39.9 19.28 12.11 16.56 9.79 M 29.25 31.14 C 32.98 26.31 35.39 11.41 27.74 -1.38 C 34.18 9.69 34.59 13.72 36.2 16.74 M 48.79 28.52 C 57.14 31.04 63.93 35.41 69.93 37.99 C 74.31 39.87 83.23 40.31 81.72 36.18 C 79 28.76 72.5 1.22 67.21 -0.78 C 64.16 -1.93 60.57 7.38 58.55 12.11 M 57.65 60.45 C 62.38 54.41 65.4 44.84 62.99 39.5 C 60.57 34.16 60.57 24.09 57.75 19.26 C 54.93 14.43 51.51 0.63 44.76 2.04" horiz-adv-x="81.89"/><glyph unicode="仃" glyph-name="仃" d="M 30.83 57.79 C 33.81 55.29 38.9 56.44 34.96 49.62 C 31.02 42.79 17.66 14.44 14.4 13.96 M 25.54 30.59 C 33.43 30.68 32.66 18.48 25.06 -1.8 C 34 12.62 40.92 26.17 41.5 27.9 M 44.29 35.97 C 46.69 35.68 70.84 44.35 73.7 45 C 77.06 45.77 83.31 48.46 85.61 46.06 M 60.14 40.78 C 63.8 36.74 67.14 35.16 67.35 30.78 C 67.96 17.99 67.83 -11.82 64.76 -10.84 C 63.39 -10.4 58.41 -7.95 51.88 -1.22" horiz-adv-x="85.61"/><glyph unicode="仄" glyph-name="仄" d="M 27.81 47.5 C 31.08 44.14 33.71 45.25 41.27 48.85 C 49.34 52.69 59.14 57.02 61.74 55.58 M 30.6 45.39 C 31.66 40.01 23.58 3.2 9.65 1.85 M 46.46 41.83 C 49.72 40.29 49.82 38.18 49.24 35.39 C 46.41 21.63 36.46 6.18 28.39 3.87 M 47.51 27.51 C 50.11 24.73 60.3 16.46 61.64 14.83 C 62.99 13.19 72.12 6.08 73.27 5.21 C 74.42 4.35 85.57 0.02 90.48 -0.26" horiz-adv-x="90.48"/><glyph unicode="仅" glyph-name="仅" d="M 27.77 59.61 C 31.9 55.86 33.15 54.86 28.54 46.73 C 22.83 36.68 14.32 20.98 9.51 16.08 M 22.97 36.26 C 25.66 32.99 27.87 28.67 26.52 23.67 C 24.9 17.66 22.29 3.1 23.16 -1.71 M 34.5 33.66 C 36.13 35.01 36.9 35.68 42.48 40.78 C 49.27 46.98 60.59 51.61 61.79 50.58 C 65.16 47.7 55.31 17.61 41.61 10.89 C 40.53 10.35 35.27 8 28.35 15.88 M 33.83 34.82 C 37 36.07 46.42 32.89 51.13 26.46 C 55.39 20.62 64.97 11.37 69.67 9.44 C 74.38 7.52 84 2.24 91.49 4.06" horiz-adv-x="91.49"/><glyph unicode="仆" glyph-name="仆" d="M 35.97 61.42 C 38.26 59.94 38.2 53.76 36.17 48.13 C 35.13 45.23 25.64 24.38 17.99 19.42 M 30.6 35.9 C 31.6 31.36 34.81 19.59 30.24 4.45 M 48.55 68.66 C 52.51 66.26 56.05 62.3 56.05 52.53 C 56.05 38.21 56.62 -13.99 55.2 -13.42 C 53.79 -12.85 51.95 -6.91 51.81 -2.52 M 56.62 39.65 C 59.87 40.64 75.32 38.64 77.99 36.68 C 80.04 35.17 71.34 32.43 69.64 32.43" horiz-adv-x="78.3"/><glyph unicode="仇" glyph-name="仇" d="M 27.05 52.28 C 30.48 52.15 33.37 46.75 28.11 37.53 C 23.57 29.6 16.26 13.44 12.44 9.63 M 26.79 35.16 C 27.97 29.5 24.55 8.44 21.26 -6.56 M 49.17 60.31 C 72.99 60.83 39.82 -23.81 39.69 6.73 M 34.95 15.81 C 48.9 35.16 58.84 38.32 63.38 40.3 C 64.5 40.78 70.17 42.01 69.44 38.72 C 67.23 28.71 66.04 16.85 66.68 7.78 C 66.9 4.55 68.78 0.42 75.63 0.41 C 80.15 0.4 84.45 0.02 87.74 4.23" horiz-adv-x="87.74"/><glyph unicode="仉" glyph-name="仉" d="M 29.15 55.77 C 31.26 53.37 35.2 52.02 31.17 45.68 C 27.13 39.33 24.34 31.84 17.33 22.13 C 16.21 20.58 11.46 13.96 9.64 13 M 23.19 28.19 C 25.4 29.43 28.43 29.53 27.23 21.65 C 26.17 14.73 26.84 10.4 21.94 -1.13 C 27.71 9.64 32.9 21.27 33.86 25.4 M 43.08 42.31 C 47.89 39.53 49.04 38.76 48.85 34.05 C 48.78 32.2 42.99 8.39 42.6 5.12 C 41.26 5.41 47.99 34.34 50.58 37.22 C 53.17 40.1 65.69 47.68 66.63 46.35 C 68.49 43.72 62.51 23.71 63.84 7.91 C 64.9 -4.64 87.32 -2.8 87.87 2.91 C 88.65 11.03 89.22 15.5 88.93 19.73 C 88.74 22.47 86.14 30.88 86.14 30.88" horiz-adv-x="89.0"/><glyph unicode="今" glyph-name="今" d="M 37.18 64.61 C 41.41 64.03 43.09 61.25 36.99 51.06 C 32.07 42.85 24.6 27.06 21.61 23.67 C 18.39 20.02 7.48 12.62 11.33 23.57 M 40.26 56.15 C 42.18 54.13 57.88 45.13 59.77 42.99 C 63.9 38.28 78.6 32.99 90.14 33.57 M 34.59 32.61 C 42.08 34.24 48.56 33.3 49.29 32.8 C 50.54 31.93 45.45 29.43 44.87 29.53 M 24.59 11.65 C 28.91 12.13 33.13 13.72 34.59 14.15 C 36.51 14.73 50.54 22.51 51.98 22.23 C 55.45 21.53 55.92 20.21 54.48 15.11 C 53.04 10.02 44.58 -6.99 41.12 -6.22 C 39.06 -5.76 39.49 -5.07 37.85 -3.63" horiz-adv-x="90.14"/><glyph unicode="介" glyph-name="介" d="M 40.02 69.76 C 44.87 66.77 41.74 61.78 40.45 59.36 C 38.36 55.4 14.95 15.47 11.24 20.03 M 37.75 54.08 C 43.59 50.66 46.58 49.38 50.71 46.96 C 54.85 44.54 72.09 33.85 88.47 35.13 M 32.04 32.85 C 34.47 29.29 33.95 25.43 33.61 22.31 C 33.04 17.03 25.63 -4.91 28.48 11.62 M 45.16 38.27 C 50.82 36.81 52.4 28.86 52.71 18.03 C 53.14 2.79 51.71 -10.18 47.58 -15.31" horiz-adv-x="88.47"/><glyph unicode="仍" glyph-name="仍" d="M 35.08 60.82 C 37.37 59.34 37.31 53.16 35.28 47.53 C 34.24 44.63 24.75 23.78 17.1 18.82 M 29.71 35.3 C 30.71 30.76 33.92 18.99 29.35 3.84 M 53.03 51.75 C 56.62 48.03 51.24 34.43 49.7 29.17 C 48.73 25.86 41.36 -0.32 42.39 24.43 M 42 40.72 C 45.98 47.51 56.11 54.82 59.32 57.52 C 62.52 60.21 67.3 63.12 67.4 57.13 C 67.56 46.38 60.38 37.99 63.93 38.92 C 70 40.5 80.27 45.63 80.22 38.41 C 80.13 27 77.78 -3.78 70.6 -0.07 C 64.87 2.9 63.55 4.3 56.49 10.07" horiz-adv-x="80.22"/><glyph unicode="从" glyph-name="从" d="M 24.02 48.69 C 26.78 46.8 26.49 42 25.91 39.67 C 25.33 37.35 13.4 1.28 8.6 12.48 M 22.56 27.9 C 27.22 26.01 32.01 23.68 32.01 20.48 M 48.88 60.62 C 52.23 58.14 55.43 55.24 52.81 44.76 C 50.19 34.29 41.18 2.01 26.92 7.1 M 50.05 33.42 C 67.5 17.72 77.1 3.03 90.48 5.21" horiz-adv-x="90.48"/><glyph unicode="仑" glyph-name="伦" d="M 39.9 66.32 C 42.15 64.4 41.18 62.37 40.19 59.73 C 35.97 48.13 27.29 30.13 14.34 13.09 C 12.77 11.02 10.46 16.12 13.48 19.13 M 37.43 53.44 C 39.38 52.58 40.68 54.09 47.15 49.79 C 52.63 46.13 57.18 40.7 62.48 38.56 C 69.39 35.75 77.59 33.81 84.92 33.37 M 46.94 37.26 C 52.12 30.13 47.86 24.18 40.46 21.29 C 35.76 19.46 32.87 20.81 32.04 23.02 C 30.51 27.11 31.82 35.96 33.55 34.25 C 37.43 30.35 36.36 16.54 34.84 11.15 C 33.33 5.75 35.25 -2.12 41.1 -2.45 C 48.88 -2.89 58.07 2.03 63.12 3.6 C 59.93 -1.19 56.87 -2.67 47.15 -7.85" horiz-adv-x="84.92"/><glyph unicode="仓" glyph-name="仓" d="M 40.23 61.56 C 43.56 61.22 41.52 57.43 40.17 53.26 C 36.1 40.7 23.43 19.13 11.28 12.54 M 38.91 50.29 C 47.39 47.47 72.8 21.68 90.08 23.48 M 27.34 24.21 C 44.23 32.91 57.46 37.62 52.24 26.3 C 47.01 14.98 45.55 10.04 42.14 13.06 C 38.35 16.41 37.78 21.25 35 27.86 C 36.91 24.21 32.74 13.59 32.56 5.57 C 32.42 -0.87 36.74 -4.18 51.37 -4.18 C 67.83 -4.18 71.28 0.73 64.57 10.91" horiz-adv-x="90.08"/><glyph unicode="仔" glyph-name="仔" d="M 29.9 57.33 C 32.64 56.57 36.1 53.4 30.96 42.13 C 25.92 31.06 22.01 26.03 19.26 21.3 C 16.33 16.27 9.23 6.87 13.18 18.26 M 26.56 33.77 C 28.23 31.79 30.61 26.04 30.51 23.89 C 30.36 20.7 24.73 -5.75 26.1 -8.49 M 41.75 43.65 C 43.12 41.22 44.53 41.24 51.63 46.84 C 58.15 51.97 70.94 55.05 72 53.83 C 74.13 51.4 62.12 34.38 58.47 32.86 C 77.93 32.7 67.85 -12.17 64.1 -11.37 C 56.35 -9.72 48.14 0.63 49.51 -0.43 M 39.93 16.29 C 42.51 14.62 52.09 17.81 53.61 18.72 C 55.13 19.63 80.97 31.18 89.48 22.52" horiz-adv-x="89.48"/><glyph unicode="仕" glyph-name="仕" d="M 33.12 52.31 C 34.95 50.64 39.35 51.09 32.36 36.5 C 25.37 21.91 22.64 13.4 15.64 9.9 M 29.78 30.12 C 32.06 24.34 32.36 19.63 31.6 12.94 C 30.84 6.26 29.17 -1.34 30.23 -2.71 M 40.11 22.06 C 45.13 14.77 72.94 40.61 83.43 36.05 C 76.29 35.74 63.88 40.51 59.27 45.62 C 53.64 51.85 52.09 57.05 61.85 49.27 C 64.8 46.92 62.61 20.09 61.09 15.83 C 59.71 11.98 48.63 6.87 46.19 8.39 C 50.91 7.02 66.71 18.72 80.24 12.79" horiz-adv-x="83.43"/><glyph unicode="他" glyph-name="他" d="M 28.81 57.37 C 32.54 57.82 32.21 47.44 28.02 40.22 C 20.04 26.43 17.98 16.41 9.07 8.85 M 23.4 31.19 C 25.2 26.91 25.77 21.15 24.98 16.19 C 24.06 10.42 22.95 -0.28 22.95 -0.28 M 28.48 17.32 C 31.75 18.44 35.02 20.81 41.11 26.91 C 50.74 36.53 65.5 45.47 67.96 46.09 C 68.87 46.31 76.09 49.24 73.83 45.07 C 69.6 37.25 63.11 22.42 61.31 23.63 C 60.18 24.4 58.26 26.23 56.34 28.82 M 52.17 52.86 C 51.04 57.14 51.6 62.56 53.52 60.53 C 57.8 56 58.04 50.26 57.25 45.07 C 56.46 39.88 54.54 12.69 47.43 23.63 M 42.01 39.77 C 45.51 31.42 42.73 20.2 42.58 15.85 C 42.44 11.89 45.52 5.92 54.99 5.36 C 67.76 4.6 85.41 5.33 87.71 7.16 C 90.36 9.28 90.87 12.92 88.95 20.93" horiz-adv-x="90.1"/><glyph unicode="仗" glyph-name="仗" d="M 28.02 56.26 C 31.06 53.98 31.52 51.06 26.04 38.02 C 20.42 24.65 12.21 15.38 10.24 10.21 M 22.7 30.12 C 23.15 27.99 25.13 24.19 24.37 19.94 C 24.01 17.9 22.55 8.08 21.48 0.18 C 22.85 10.06 24.8 12.66 26.65 17.5 C 30.78 28.3 38.56 35.24 47.63 39.85 C 56.74 44.49 64.65 52.31 72.4 50.64 M 52.94 69.79 C 56.14 65.99 61.76 66.54 59.48 39.85 C 57.81 20.24 50.74 14.08 49.3 11.12 C 46.56 5.5 37.44 3.07 32.27 8.39 M 40.18 31.49 C 42.61 32.1 50.31 26.93 52.03 24.8 C 55.83 20.09 64.04 12.49 69.36 9.15 C 72.11 7.41 80.46 1.09 90.64 3.07" horiz-adv-x="90.64"/><glyph unicode="付" glyph-name="付" d="M 29.27 60.21 C 33.98 57.78 37.41 57.78 33.22 47.45 C 26.38 30.58 17.87 17.5 13.46 12.94 M 25.77 30.58 C 29.11 26.78 30.13 23.19 28.96 18.87 C 27.02 11.68 24.86 1.85 25.01 -1.65 M 33.98 27.69 C 40.36 25.26 49.48 35.29 59.97 38.48 C 61.72 39.01 77.45 48.21 86.41 44.26 M 57.38 70.4 C 64.68 64.32 67.11 67.51 66.66 49.88 C 66.09 28.15 65.9 22.98 66.66 16.29 C 67.06 12.73 67.19 -17.2 65.14 -15.02 C 62.7 -12.44 54.5 -9.4 51.46 -4.69 M 44.31 21 C 48.87 19.18 54.34 16.44 54.8 15.07" horiz-adv-x="86.41"/><glyph unicode="仙" glyph-name="仙" d="M 31.27 55.65 C 33.1 53.68 35.29 52.83 32.95 47.6 C 29.6 40.15 20.17 23.25 15.77 18.11 C 15.07 17.3 16.23 22.22 16.68 23.58 M 23.98 30.42 C 24.89 29.36 27.32 26.32 26.41 19.48 C 25.5 12.64 24.28 4.89 23.52 3.22 M 53.92 62.34 C 56.96 60.97 63.65 57.78 62.43 50.03 C 60.61 38.43 58.78 21.3 59.39 18.72 C 58.48 19.94 48.45 27.23 46.78 31.03 C 45.91 33 38.72 36.2 39.63 26.78 C 40.54 17.35 41.91 13.1 39.63 9.3 C 52.1 15.07 68.82 25.86 81.28 22.22 M 78.39 38.94 C 81.89 36.96 83.89 30.57 82.8 27.08 C 80.37 19.33 79.61 12.94 78.39 9.91 C 76.72 9.91 76.72 13.1 76.72 13.1" horiz-adv-x="83.1"/><glyph unicode="仝" glyph-name="仝" d="M 39.76 62.8 C 42.34 61.13 45.99 61.13 42.49 55.5 C 39 49.88 36.26 46.23 33.68 40.61 C 32.53 38.11 16.96 10.51 11.64 18.72 M 38.7 48.81 C 39.76 47.9 47.36 43.5 52.68 38.78 C 57.07 34.89 70.46 26.47 88.24 27.54 M 27.9 16.74 C 32.62 13.86 45.38 25.56 56.02 26.78 M 41.74 21 C 43.56 19.33 45.84 16.29 44.93 13.25 C 44.01 10.21 41.73 3.52 41.13 2.76 M 20.61 -1.8 C 26.99 -2.86 46.6 4.59 52.83 5.19 C 59.06 5.8 67.42 3.83 68.79 2.46" horiz-adv-x="88.24"/><glyph unicode="仞" glyph-name="仞" d="M 32.49 56.57 C 37.06 54.44 39.98 53.59 37.66 47.75 C 34.78 40.46 28.24 25.41 19.27 16.14 M 30.98 32.4 C 32.49 31.18 35.11 28.79 33.56 22.98 C 30.71 12.28 30.22 2.15 29.46 -3.32 M 60.61 45.62 C 61.53 42.58 53.01 4.43 43.74 5.95 M 47.85 40.3 C 55.29 42.58 70.19 52.61 76.27 49.57 C 80.13 47.64 78.3 41.44 77.64 34.83 C 76.88 27.23 69.88 -4.08 66.54 -3.17 C 63.33 -2.29 56.66 6.71 56.66 10.21 M 47.69 26.17 C 55.29 25.71 60.92 20.24 61.83 19.18" horiz-adv-x="78.65"/><glyph unicode="仟" glyph-name="仟" d="M 35.11 57.93 C 36.78 55.5 37.37 52.49 36.17 49.73 C 33.97 44.61 27.7 29.31 21.89 21.76 C 19.57 18.75 10.94 8.08 18.09 23.28 M 28.42 31.64 C 29.79 30.58 32.68 29.82 32.37 25.1 C 32.07 20.39 30.55 9.75 30.09 7.63 C 29.64 5.5 29.03 -3.47 29.03 -4.08 M 62.62 67.05 C 72.2 61.73 63.38 37.42 51.22 36.81 C 69.34 36.42 73.06 3.4 61.71 -4.99 C 58.85 -5.74 53.92 -1.36 51.68 1.7 C 48.78 5.64 47.57 8.08 47.12 12.94 C 55.93 21.46 79.64 26.78 82.99 22.52 C 84.13 21.07 72.5 13.4 70.68 13.55" horiz-adv-x="83.07"/><glyph unicode="仡" glyph-name="仡" d="M 28.43 56.94 C 30.89 54.04 31.06 51.27 30.14 47.29 C 29.32 43.71 15.91 16.44 11.06 9.76 C 12.43 13.43 13.53 16.84 13.63 17.7 M 22.42 29.92 C 24.03 30.24 26.44 28.3 26.82 26.27 C 27.16 24.47 20.17 1.62 20.39 -2.35 M 45.48 59.51 C 51.21 59.3 53.24 55.93 52.97 54.26 C 52.11 49.06 51.05 43.75 45.9 40.32 C 53.52 42.25 61.99 49.97 66.6 52.43 C 62.52 47.61 45.48 33.24 44.4 31.85 M 34.97 21.13 C 32.5 16.2 37.22 16.41 42.47 19.73 C 47.53 22.94 57.8 30.56 66.7 35.5 C 60.16 28.53 56.87 17.04 56.2 14.7 C 49.95 -7.03 85.72 -3.76 86.64 0.65 C 87.61 5.26 84.18 11.37 83.54 14.37" horiz-adv-x="86.81"/><glyph unicode="代" glyph-name="代" d="M 29.88 56.4 C 33.42 55.44 34.82 52.22 33.85 49.75 C 31.58 43.94 30.69 42.91 30.42 41.71 C 28.92 35.07 25.38 31.74 15.84 20.27 M 27.85 34.74 C 29.78 32.49 30.83 31.54 31.06 28.53 C 31.71 20.27 27.52 7.08 27.74 5.58 M 34.82 29.49 C 40.6 35.28 57.01 45.38 67.62 50.4 C 61.73 50.35 56.69 53.4 56.15 54.69 M 44.25 62.62 C 42.75 64.44 42.48 70.04 50.68 63.58 C 54.97 60.21 55.19 46.43 56.36 39.03 C 57.54 31.64 63.65 19.25 65.58 15.66 C 67.73 11.69 79.2 -7.39 81.45 -6.96 C 83.25 -6.62 82.42 23.38 81.45 24.45 M 61.3 65.19 C 64.51 64.23 74.16 63.05 75.45 60.8" horiz-adv-x="82.51"/><glyph unicode="令" glyph-name="令" d="M 38.65 66.05 C 39.83 61.87 39.43 60.95 38.87 59.51 C 36.83 54.26 31.58 46.43 29.86 43.54 C 28.88 41.87 14.64 10.94 10.99 21.56 M 36.4 54.04 C 37.47 53.83 44.89 51.76 47.66 50.18 C 64.17 40.77 74.46 35.17 88.72 34.74 M 32.97 32.92 C 35.11 31.21 42.71 34.34 44.76 32.39 C 45.99 31.22 28.34 15.49 25.89 10.41 C 28.1 10.52 34.39 11.29 38.01 14.91 C 42.3 19.2 54.09 24.45 54.73 20.7 C 55.22 17.84 50.79 7.89 41.54 1.42 M 33.93 6.23 C 36.4 4.19 42.4 1.4 43.9 -1.49 C 45.41 -4.39 46.8 -9.43 47.44 -11.03" horiz-adv-x="88.72"/><glyph unicode="以" glyph-name="以" d="M 22.44 31.64 C 26.08 29.6 27.26 22.84 27.16 16.73 C 26.62 20.81 26.19 24.67 28.23 28.85 C 29.09 31.21 33.39 36.58 36.27 37.96 C 38.91 39.23 43.67 31.64 44.31 26.27 C 45.28 28.31 48.71 39.68 52.57 44.61 C 55.61 48.49 62.46 56.92 64.14 55.33 C 70.36 49.43 63.18 29.6 59.21 23.59 C 63.61 25.31 73.24 34.04 74.87 29.71 C 78.75 19.34 62.75 4.3 56.1 3.76" horiz-adv-x="75.47"/><glyph unicode="仨" glyph-name="仨" d="M 31.59 55.44 C 32.66 53.94 33.05 50.87 32.66 49.33 C 29.77 37.85 16.9 17.91 15.29 15.23 C 15.72 18.02 17.22 20.59 17.33 21.34 M 26.34 32.81 C 28.37 29.92 29.23 26.92 28.16 19.2 C 27.26 12.74 25.05 -1.39 23.55 -5.67 M 46.39 40.86 C 51.32 37 66.22 49.11 69.33 47.61 C 67.08 44.72 59.68 39.46 58.61 38.6 M 44.67 22.95 C 49.39 23.7 66.97 29.92 68.47 29.92 C 66.9 28.81 56.46 21.13 55.28 21.13 M 36.31 5.8 C 39.2 3.65 46.62 5.24 49.92 7.19 C 54.11 9.66 78.98 17.27 86.05 11.27" horiz-adv-x="86.05"/><glyph unicode="仪" glyph-name="仪" d="M 24.83 51.29 C 28.06 44.12 19.56 28.45 12.24 15.42 C 20.15 31.53 23.08 31.24 23.96 27.14 C 25.31 20.82 21.17 3.42 20.74 1.96 M 44.39 45.92 C 47.22 42.03 43.47 31.35 45.7 33.58 C 46.56 34.44 46.67 35.63 47.11 36.71 M 51.76 49.5 C 59.03 52.53 65.52 59.14 60.86 43 C 56.13 26.58 42.01 2.27 27.28 7.25 M 29.23 28.81 C 35.63 29.24 42.1 26.16 45.7 23.28 C 50.57 19.38 72.13 -5.43 90.33 0.75" horiz-adv-x="90.33"/><glyph unicode="仫" glyph-name="仫" d="M 36.88 58.22 C 38.17 57.69 39.88 52.22 38.81 50.29 C 36.93 46.89 25.95 21.77 16.51 16.63 M 31.2 35.07 C 33.02 33.57 34.09 30.67 34.09 27.35 C 34.09 21.56 31.95 10.27 31.52 8.8 C 30.77 6.23 27.55 -4.39 28.41 -6.64 M 63.47 56.62 C 64.33 54.15 65.94 50.08 61.76 43.96 C 57.57 37.85 47.28 24.45 46 24.24 M 73.01 41.61 C 74.83 39.89 73.56 34.01 71.94 33.03 C 68.94 31.21 54.04 7.73 47.28 5.15 C 54.68 8.05 75.37 15.77 75.05 17.48 M 69.15 22.09 C 72.8 20.06 81.59 13.2 82.88 6.01" horiz-adv-x="82.88"/><glyph unicode="们" glyph-name="们" d="M 31.5 61.65 C 35.25 58.22 35.89 57.11 33.64 48.57 C 30.43 36.35 17.88 18.88 15.74 14.27 C 16.38 18.98 18.53 23.38 19.17 24.45 M 28.5 35.49 C 30.32 31.64 30.42 27.42 29.57 24.56 C 27.85 18.77 25.92 5.26 25.82 2.37 M 43.83 51.79 C 50.26 55.44 53.91 54.15 54.66 52.65 C 54.76 51.9 51.12 51.15 50.15 50.61 M 40.4 38.6 C 43.4 36.14 44.96 33.86 44.69 31.74 C 43.83 25.2 40.72 13.95 40.93 12.34 C 40.18 15.45 39.22 17.59 40.29 19.09 M 60.98 55.22 C 63.23 54.26 66.13 55.87 68.92 57.37 C 70.86 58.41 76.96 60.15 79.96 57.79 C 81.81 56.34 83.28 49 82.21 42.79 C 81.99 41.51 82.85 9.44 82.85 7.19 C 82.85 4.94 83.28 -11.57 81.03 -9.96 C 79.1 -4.39 70.74 -1.39 67.84 1.51" horiz-adv-x="82.89"/><glyph unicode="仰" glyph-name="仰" d="M 32.31 60.45 C 35.53 53.28 27.04 37.62 19.72 24.59 C 27.63 40.69 30.56 40.4 31.43 36.3 C 32.79 29.98 28.65 12.58 28.21 11.12 M 64.32 62.47 C 62.07 62.47 51.32 56.76 48 59.02 M 46.81 49.86 C 49.86 43.5 47.47 28.5 43.23 18.95 C 46.15 24.66 45.58 27.94 49.33 32.22 C 57.41 41.43 72.18 51.57 73.21 52.78 C 74.67 54.51 82.29 57.16 81.3 46.55 C 80.39 36.72 75.73 24.39 73.08 24.52 C 70.42 24.66 66.84 24.79 62.73 31.02 M 60.47 42.57 C 63.26 38.98 66.94 34.89 67.11 15.1 C 67.27 -3.54 64.99 -5.86 59.15 -12.23" horiz-adv-x="81.39"/><glyph unicode="仲" glyph-name="仲" d="M 33.17 56.05 C 35.47 54.57 35.4 48.39 33.38 42.76 C 32.33 39.86 22.84 19.01 15.2 14.05 M 27.81 30.53 C 28.81 25.99 32.02 14.22 27.45 -0.92 M 41.83 39.23 C 49.48 33.98 45.42 19.9 46.77 11.11 C 47.25 16.36 46.85 22.38 46.93 27.37 C 47.09 36 76.66 53.89 84.54 49.05 C 89.57 45.98 62.15 23.64 62.15 23.64 C 62.15 23.64 58.41 19.57 48.76 15.85 C 57.29 19.23 70.28 31.26 83.03 25.67 C 78.09 29.23 76.1 33.12 76.1 33.12 M 59.28 69.38 C 67.41 70.07 69.48 28.38 68.61 14.99 C 68.29 9.74 68.75 -5.03 64.66 -14.73" horiz-adv-x="85.16"/><glyph unicode="仳" glyph-name="仳" d="M 25.98 52.43 C 29.58 50.41 29.9 46.97 29.73 45.65 C 29 40.32 14.93 16.05 9.97 9.61 C 9.31 8.75 10.84 14.66 11.27 16.39 M 23.09 30.23 C 24.82 26.34 24.39 19.27 24.1 17.83 C 23.81 16.39 21.8 3.85 20.21 -5.81 C 22.23 -3.79 25.26 2.55 28.28 9.18 M 39.1 27.06 C 41.11 28.35 49.76 32.1 50.05 33.83 C 41.84 34.55 38.54 34.61 36.36 33.98 C 40.83 28.5 38.22 13.6 37.8 11.92 C 37.08 9.04 36.13 6.08 33.33 2.12 C 36.79 5.14 53.51 27.78 53.66 29.22 M 61.73 32.82 C 65.48 34.7 72.54 38.01 75.43 40.9 C 69.08 42.34 66.57 43.95 64.18 45.37 C 62.32 46.47 61.87 50.41 56.11 55.89 C 61.73 52.72 62.16 46.66 61.73 38.88 C 61.44 33.69 59.03 25.05 59.14 17.54 C 59.28 7.43 62.6 3.41 73.12 3.56 C 83.64 3.7 94.02 -0.33 88.98 22.73" horiz-adv-x="90.29"/><glyph unicode="仵" glyph-name="仵" d="M 32.05 59.93 C 35.08 58.48 35.8 52.14 35.08 50.41 C 34.35 48.68 27.29 34.12 26.28 32.82 C 25.27 31.53 18.21 23.6 16.19 17.54 M 29.74 38.73 C 30.61 35.71 30.61 31.53 30.17 27.78 C 29.74 24.03 25.56 0.82 25.99 -0.91 M 50.07 62.38 C 50.65 62.09 57.37 62.85 56.84 59.64 C 55.83 53.44 54.97 47.38 42.28 34.99 C 52.66 47.1 66.21 49.83 74.29 53.44 C 70.54 50.99 56.27 39.02 52.52 36.14 M 36.37 19.42 C 40.84 16.53 56.19 27.77 58.72 29.51 C 66.18 34.63 79.48 39.74 84.52 36.72 C 72.56 39.02 63.19 41.18 61.02 45.94 C 64.05 44.5 65.93 41.33 65.93 31.67 C 65.93 24.64 66.02 11.2 65.93 6.15 C 65.64 -8.7 61.75 -13.45 60.59 -17.63" horiz-adv-x="84.52"/><glyph unicode="件" glyph-name="件" d="M 34.36 56.47 C 36.81 54.02 36.91 48.49 33.5 42.34 C 29.98 36 19.37 24.89 17.21 21.87 C 22.25 27.34 24.99 31.38 26.87 32.68 C 34.36 28.64 27.44 2.98 26.43 1.4 C 29.17 8.17 31.19 25.18 34.51 27.63 M 45.75 47.1 C 47.34 51.13 50.27 49.18 50.8 47.67 C 51.81 44.79 52.38 39.6 50.65 36.86 C 55.27 39.89 65.79 50.56 75.02 50.27 C 71.7 42.19 42.58 18.84 43.44 13.51 C 59.74 26.48 79.77 32.97 82.8 32.53 C 81.07 38.66 73.14 44.15 69.88 52.3 C 64.78 65.07 65.29 73.19 61.03 76.22 C 70.4 69.01 67.35 23.03 67.81 15.09 C 68.29 6.72 66.94 -21.96 61.75 -21.53" horiz-adv-x="82.8"/><glyph unicode="价" glyph-name="价" d="M 22.26 58.34 C 23.99 56.61 27.31 56.47 25.72 51.85 C 24.13 47.24 9 17.83 5.97 14.23 M 18.66 36.72 C 20.96 32.82 21.11 28.21 20.39 25.76 C 19.67 23.31 14.76 4.86 15.63 2.12 M 45.9 69.44 C 49.07 69.59 52.68 66.13 51.09 62.52 C 48.23 56.02 42.7 44.52 42.01 42.77 C 39.56 36.57 30.1 20.7 28.32 17.97 C 26.92 15.84 24.42 15.96 23.85 17.97 M 45.9 51.13 C 47.92 49.69 55.3 46.35 59.45 42.19 C 64.36 37.29 81.94 28.5 93.48 31.38 M 40.42 31.09 C 44.61 30.66 46.33 17.67 40.86 9.18 C 37.62 4.16 37.97 8.75 38.41 10.33 M 53.98 40.03 C 56.57 36.43 58.3 34.12 58.16 25.47 C 58.01 16.82 58.16 -10.57 56.14 -15.18" horiz-adv-x="93.48"/><glyph unicode="任" glyph-name="任" d="M 34.26 55.17 C 35.99 53.15 38.87 50.12 36.71 47.38 C 34.55 44.64 20.99 16.53 15.37 15.67 M 30.08 34.84 C 31.37 32.1 31.95 27.2 31.81 24.75 C 31.56 20.56 29.64 0.24 27.48 -4.08 C 26.33 -2.06 26.9 1.11 26.33 3.85 M 63.52 66.27 C 66.26 65.26 68.14 61.08 66.41 57.76 C 64.33 53.78 54.01 43.64 48.1 41.04 C 51.12 42.63 59.92 43.49 61.94 35.85 C 63.81 28.74 64.2 14.96 62.08 12.21 C 60.83 10.58 48.1 9.61 48.38 15.52 C 48.62 20.31 73.47 40.63 76.79 34.55 C 81.16 26.55 59.77 8.89 51.99 -0.05 C 54.58 -5.38 77.36 7.02 84.28 8.89 C 81.54 2.84 73.47 -5.24 68.57 -7.4" horiz-adv-x="84.28"/><glyph unicode="份" glyph-name="份" d="M 30.67 60.94 C 33.12 58.34 34.42 55.31 33.26 52.57 C 30.93 47.04 18.41 22.44 14.09 17.11 C 14.23 19.27 13.66 21.58 14.09 23.16 M 25.77 36.57 C 30.81 36.28 30.52 32.39 29.95 29.36 C 29.37 26.34 27.06 5.14 26.34 2.12 C 25.74 -0.12 24.47 6.01 24.47 6.01 M 47.1 63.96 C 52.29 61.94 54.06 59.58 53.59 57.76 C 51.44 49.46 44.36 36.43 36.87 28.35 C 47.68 43.2 55.13 46.3 59.36 44.93 C 62.56 43.9 52.15 22.88 46.96 18.55 C 54.89 27.49 65.59 30.9 68.3 27.49 C 72.76 21.86 64.06 -4.71 61.52 -5.38 C 60.24 -5.72 54.74 2.55 52 10.19 M 67.14 53.58 C 71.03 53.87 86.75 49.26 86.6 47.67 C 86.46 46.09 78.24 44.07 76.66 45.08" horiz-adv-x="86.61"/><glyph unicode="仿" glyph-name="仿" d="M 36.69 54.95 C 33.74 41.1 17.45 16.09 16.94 19.3 C 16.42 22.51 18.22 26.1 18.22 26.1 M 29.12 35.84 C 33.67 26.32 29.01 12.43 27.97 1.86 M 55.92 61.75 C 65.54 60.21 71.06 59.31 69.65 57.13 C 66.75 52.65 54.64 45.46 50.92 42.77 C 47.2 40.08 33.12 22.26 47.97 28.79 C 62.03 34.97 51.82 37.38 82.08 42.9 M 61.95 37.51 C 63.87 30.59 49.51 2.24 40.28 5.96 M 61.05 29.94 C 69.9 28.66 79.26 35.46 76.44 20.84 C 72.81 2.04 65.7 -2.73 61.05 -3.78 C 57.36 -4.62 51.18 10.71 51.18 10.71" horiz-adv-x="82.08"/><glyph unicode="企" glyph-name="企" d="M 48.75 59.86 C 41.66 48.92 17.5 15.75 17.01 16.59 C 16.53 17.43 15.09 18.15 15.69 20.19 M 40.57 44.95 C 46.7 44.23 46.1 46.88 53.55 43.39 C 61.01 39.91 78.44 32.09 83.72 36.54 M 42.26 33.06 C 44.18 31.13 47.54 31.49 47.06 26.68 C 46.58 21.88 42.74 -1.08 44.06 1.8 M 45.86 17.91 C 48.39 19.23 60.77 25 61.25 25.48 M 26.87 16.71 C 29.52 16.35 33.84 14.79 33.72 10.82 C 33.6 6.85 33.98 4.5 31.2 -0.36 C 30.48 -1.62 30.6 -3.73 22.54 -6.13 C 34.56 -1.92 63.77 9.14 74.59 4.93 C 76.05 4.36 67.5 -1.32 65.45 -1.68" horiz-adv-x="83.72"/><glyph unicode="伉" glyph-name="伉" d="M 31.95 57.51 C 33.75 57 34.83 53.27 33.88 50.81 C 26.21 30.81 18.59 21.11 18.02 20.11 C 16.47 17.4 13.51 12.5 11.83 9.41 M 24.73 30.69 C 26.02 28.37 27.61 24 27.05 21.27 C 25.45 13.48 23.44 -4.39 22.15 -6.2 M 50.39 59.19 C 54.65 60.09 60.55 59.28 64.06 55.32 C 65.52 53.68 51.68 45.65 48.33 43.2 M 35.04 31.59 C 33.63 28.24 35.13 26.76 39.04 28.88 C 50.4 35.04 73.09 41.01 77.6 43.07 M 48.07 28.37 C 50 23.85 45.23 6.83 42.4 -1.17 C 43.81 6.44 47.72 15.26 49.23 17.66 C 53.62 24.63 63.47 28.8 64.45 27.98 C 66.9 25.92 62.47 9.56 62.39 2.44 C 62.28 -6.57 84.59 -5.44 85.99 -2.97 C 89.59 3.39 83.41 11.99 82.5 13.66" horiz-adv-x="87.1"/><glyph unicode="伊" glyph-name="伊" d="M 33.24 58.73 C 36.4 56.49 38.53 53.88 37.05 49.25 C 34.16 40.17 17.7 20.55 16.12 17.39 M 32.71 40.56 C 34.68 31.87 31.13 16.21 28.63 1.86 M 52.32 59.12 C 61.93 60.44 75.51 65.65 74.83 61.62 C 74.18 57.67 68.12 35.3 67.59 35.69 M 42.06 37.4 C 52.46 38.72 72.33 53.73 84.44 51.49 M 43.37 23.45 C 47.59 28.32 71.41 38.72 76.94 35.69 M 55.35 59.39 C 63.12 47.67 56.41 -5.25 39.56 -8.93" horiz-adv-x="84.44"/><glyph unicode="伍" glyph-name="伍" d="M 33.55 59.19 C 34.33 57.39 37.34 54.28 34.46 47.33 C 30.07 36.75 18.54 20.95 16.02 17.15 C 14.08 17.02 15.24 20.76 16.4 22.82 M 49.93 54.16 C 58.06 51.45 65.8 59.96 66.83 57.64 C 68.12 54.73 58.57 30.95 56.77 26.17 C 55.24 22.12 53.97 15.12 49.16 14.18 C 44.83 13.34 39.52 16.8 41.16 20.5 C 43.38 25.49 75.24 46.51 76.24 38.3 C 77.13 31.04 63.6 14.83 60.51 12.5 C 57.41 10.18 57.67 6.96 42.97 2.19 C 57.16 7.6 68.85 13.24 71.86 13.15 C 75.99 13.02 82.82 13.02 84.11 11.09 C 84.43 10.61 75.21 5.8 68.63 3.99 M 28.4 36.23 C 29.81 31.98 30.38 28.76 30.07 25.01 C 29.55 18.57 28.53 13.41 27.75 8.12 C 27.38 5.56 26.46 -0.01 26.07 -3.75" horiz-adv-x="84.12"/><glyph unicode="伎" glyph-name="伎" d="M 27.48 59.32 C 30.83 56.35 32.94 55.59 31.99 50.16 C 29.67 36.88 13.42 18.44 9.29 14.7 C 9.55 15.47 21.24 31.25 22.7 29.14 C 26.19 24.11 20 -0.01 19.61 -6.58 C 21.54 3.35 22.83 19.47 25.93 22.95 C 30.78 28.4 33.41 34.69 44.24 40.36 C 46.46 41.52 59.46 48.62 64.36 50.42 C 60.88 52.36 51.85 61.25 47.98 65.38 C 53.66 59.45 55.13 56.88 53.66 48.23 C 52.53 41.62 50.02 36.55 49.14 31.2 C 48.42 26.82 47.21 26.17 42.82 24.11 C 49.79 27.21 58.11 33.25 62.04 30.56 C 65.02 28.52 58.09 12.3 49.92 3.86 C 43.11 -3.16 33.28 -4.39 28.38 2.7 M 32.12 22.43 C 42.31 20.24 53.62 9.99 57.91 5.93 C 62.68 1.41 82.67 -10.71 91.19 -7.36" horiz-adv-x="91.19"/><glyph unicode="伏" glyph-name="伏" d="M 28.68 55.23 C 30.97 53.75 30.91 47.57 28.88 41.93 C 27.83 39.04 18.35 18.19 10.7 13.23 M 23.31 29.7 C 24.31 25.17 27.52 13.4 22.95 -1.75 M 29.14 19.95 C 32.42 23.22 55.79 38.76 67.62 41.32 C 68.04 48.16 52.65 53.29 47.95 65.97 C 58.64 58.28 49.38 -5.13 30.43 0.57 M 49.95 26.07 C 53.65 17.52 71.04 -6.27 91.84 -4.99 M 63.06 56.43 C 68.33 55.86 73.74 54.72 76.17 49.02" horiz-adv-x="91.84"/><glyph unicode="伐" glyph-name="伐" d="M 33.1 56.77 C 35.39 55.29 35.33 49.11 33.3 43.48 C 32.25 40.58 22.77 19.73 15.12 14.77 M 27.73 31.25 C 31.92 27.78 31.94 14.94 27.37 -0.21 C 27.37 -0.21 29.01 21.84 41.39 27.88 C 47.86 31.04 62.35 44.74 70.7 44.59 C 61.29 49.14 54.91 44.28 47.62 60.08 C 60.37 15.43 81.24 -17.69 83.31 -9.63 C 84.53 -4.85 81.79 4.19 80.27 9.2 M 69.18 36.84 C 66.91 20.59 61.44 3.58 51.26 10.42 M 62.65 62.96 C 71.92 60.99 71.92 60.38 74.95 56.58" horiz-adv-x="83.61"/><glyph unicode="休" glyph-name="休" d="M 30.2 60.26 C 32.12 56.56 29.94 50.16 27.64 45.82 C 25.34 41.47 12.94 15.77 9.1 15.26 C 7.02 14.98 9.87 21.14 9.87 21.14 M 21.12 33.41 C 22.53 30.73 22.31 23.71 22.4 21.39 C 22.66 14.75 19.07 0.81 18.95 -2.13 M 30.2 28.43 C 33.52 29.07 35.82 29.32 38.51 31.75 C 41.19 34.18 61.27 45.56 70.6 47.35 C 67.79 48.12 61.52 50.16 58.58 53.1 C 57.2 54.49 56.15 69.98 50.15 70.11 C 55.39 67.81 55.58 64.99 56.03 62.18 C 58.58 46.28 55.13 16.66 54.75 12.06 C 54.36 7.46 54.9 -10.51 52.83 -10.83 C 50.82 -11.13 42.86 0.17 40.56 7.84 M 52.19 37.76 C 51.04 33.92 39.4 17.17 37.87 15 C 36.34 12.83 30.58 3.88 26.75 7.84 M 49.25 31.88 C 56.03 27.02 63.73 23.07 66.26 21.14 C 76.1 13.59 84.16 10.27 91.19 10.14" horiz-adv-x="91.19"/><glyph unicode="众" glyph-name="众" d="M 42.25 61.29 C 45.7 60.14 46.73 56.68 44.3 51.31 C 41.87 45.94 34.32 36.99 32.79 32.77 C 35.47 38.53 39.94 43.94 42.89 44.92 C 47.11 46.33 55.93 49.91 58.49 47.35 C 59.34 46.5 55.42 43.13 52.35 43 M 23.2 24.72 C 25.25 21.14 27.04 19.48 24.86 14.87 C 22.69 10.27 19.13 4.77 17.83 1.58 C 16.85 -0.82 14.45 -4.92 13.48 -4.05 C 12.2 -2.9 11.95 1.32 13.35 2.34 M 22.82 10.4 C 26.4 9.25 32.53 7.58 33.43 2.47 M 52.22 35.71 C 56.83 32.9 59.77 30.73 58.49 26.25 C 57.15 21.57 51.58 9.76 49.41 6.69 C 47.24 3.62 35.73 -8.27 37.26 1.45 M 52.48 11.68 C 58.87 12.06 67.08 8.97 69.49 8.35 C 80.48 5.54 85.96 2.08 84.96 -0.6 C 84.19 -2.64 73.7 -2.52 71.02 -2.39" horiz-adv-x="85.07"/><glyph unicode="优" glyph-name="优" d="M 31.14 54.1 C 36.72 48.66 28.62 28.36 10.58 7.8 M 28.76 34.2 C 33.4 21.86 23.32 -9.32 25.44 -1.49 C 27.56 6.34 28.89 15.89 42.95 28.49 C 47.15 32.25 57.28 42.29 66.83 44.94 C 55.29 39.37 48.11 60.81 50.91 61.26 C 65.94 63.7 39.64 -4.41 40.3 -0.96 M 57.55 32.61 C 60.46 29.29 62.72 22.39 62.72 17.22 C 62.72 12.04 62.42 6.83 62.45 5.28 C 62.59 -0.16 63.38 -3.49 75.72 -2.42 C 83.13 -1.77 97.08 -6.66 81.29 24.51 M 66.57 58.74 C 74.4 57.81 79.7 56.35 79.17 54.5 C 78.64 52.64 73.33 50.25 72.8 49.45" horiz-adv-x="88.51"/><glyph unicode="伙" glyph-name="伙" d="M 24.02 56.3 C 27.34 55.41 27.98 52.34 26.96 48.76 C 24.08 38.6 16.86 27.4 7.01 13.59 C 11.23 19.6 17.46 29.99 18.91 29.07 C 22 27.09 21.87 21.36 21.59 18.45 C 21.08 13.08 17.24 -1.62 18.39 -3.67 M 38.98 38.27 C 33.61 30.98 34.51 23.18 36.55 24.33 C 38.14 27.81 40.68 32 42.56 33.92 C 47.8 39.29 59.18 42.62 68.39 47.61 C 61.48 51.95 59.44 58.09 48.95 64.74 C 58.16 58.73 51.13 31.5 46.65 18.33 C 43.84 10.06 38.85 1.96 30.41 4.52 M 49.85 27.53 C 54.71 23.06 61.19 14.87 63.4 12.57 C 73.25 2.34 84.75 -1.88 93.19 -0.73" horiz-adv-x="93.19"/><glyph unicode="会" glyph-name="会" d="M 43.93 60.01 C 48.02 60.9 50.04 60.26 48.92 56.68 C 47.32 51.59 40.61 38.27 36.26 37.38 C 47.77 46.45 59.4 51.83 63.62 51.06 C 56.46 45.18 39.58 30.86 38.3 27.15 C 41.76 26 55.82 35.08 57.48 33.8 C 52.88 28.81 30.76 18.45 25.26 5.41 C 30.12 2.34 63.06 26.25 65.41 24.08 C 66.86 22.73 32.57 -4.67 35.11 -7.5 C 37.4 -10.07 63.88 2.98 64.13 4 M 55.44 13.59 C 62.73 9.89 73.47 5.03 73.85 -7.5" horiz-adv-x="73.85"/><glyph unicode="伛" glyph-name="伛" d="M 29.06 55.53 C 31.49 53.62 32.51 50.29 31.23 48.24 C 29.96 46.2 19.34 20.37 15.25 16.02 C 13.45 14.11 10.26 11.42 13.08 20.88 M 25.22 34.95 C 25.99 33.54 28.94 30.39 28.04 25.74 C 25.99 15.26 23.82 -2 22.03 -6.1 M 43.76 41.98 C 52.97 42.49 67.93 53.23 75.47 49.78 M 61.41 47.48 C 63.33 40.45 61.28 37.12 60.9 35.08 C 59.96 30.09 57.57 21.52 46.83 12.32 M 47.98 31.11 C 53.61 31.5 67.42 21.91 68.95 20.75 M 38.78 40.06 C 42.1 34.95 43.51 25.49 42.1 18.2 C 40.86 11.76 38.39 1.58 37.12 0.3 C 35.84 -0.98 55.21 5.58 58.85 6.43 C 63.2 7.46 68.74 8.05 73.43 8.22 C 78.57 8.41 86.6 5.16 87.49 4.52" horiz-adv-x="87.49"/><glyph unicode="伞" glyph-name="伞" d="M 39.69 65.12 C 46.21 66.78 45.57 63.2 44.68 61.29 C 44.03 59.9 41.13 54.61 37.13 47.99 C 32.66 40.57 16.42 15.51 11.3 19.73 M 41.86 54.51 C 45.44 52.85 61.22 45.07 68.07 40.19 C 70.18 38.69 83.29 36.48 88.4 37.12 M 26.9 28.17 C 28.31 26 31.37 22.66 34.45 21.27 C 36.26 20.45 36.75 24.21 36.75 24.21 M 54.01 42.62 C 56.57 41.34 59.32 40.71 56.31 36.87 C 50.3 29.19 35.73 18.45 29.33 12.83 C 28.08 11.73 24.22 9.63 26.14 7.84 C 27.5 6.57 39.18 12.19 42.76 14.11 C 46.34 16.02 59.12 21.27 69.74 21.65 C 65.77 22.67 65.11 22.17 61.43 23.82 C 55.16 26.64 44.29 41.21 41.22 44.54 C 43.91 42.24 46.95 38.12 47.36 34.95 C 48.07 29.45 46.21 11.04 46.08 7.46 C 45.95 3.88 45.68 -9.87 45.06 -13.13 C 44.04 -18.5 41.99 -21.57 40.71 -24.38" horiz-adv-x="88.4"/><glyph unicode="伟" glyph-name="伟" d="M 30.57 62.44 C 35.18 61.54 36.58 56.94 36.33 55.41 C 35.8 52.25 27.13 36.46 22.77 32.77 C 20.73 31.04 18.81 25.87 18.04 25.23 C 17.28 24.59 24.05 35.46 28.02 38.66 C 36.12 38.71 26.52 15.82 26.61 4.77 C 28.4 23.44 36.21 50.15 37.73 52.21 C 40.11 55.42 40.55 55.41 44.89 56.04 C 49.24 56.68 64.26 63.5 68.8 65.51 C 71.23 62.95 40.29 35.46 43.87 38.02 C 47.45 40.57 66.89 52.34 67.4 50.67 C 67.91 49.01 41.95 24.85 41.83 20.88 C 49.88 26.89 73.79 44.28 80.18 36.35 C 83.42 32.34 76.35 12.19 69.19 11.8 C 66.9 11.68 61.52 19.09 59.34 22.93 M 48.73 73.43 C 51.67 72.03 56.4 67.68 56.79 64.48 C 57.5 58.56 56.16 25.13 56.27 20.88 C 56.4 16.15 55.99 8.13 56.02 2.6 C 56.05 -2.92 52.05 -14.02 51.93 -15.05" horiz-adv-x="80.99"/><glyph unicode="传" glyph-name="传" d="M 34.17 62.64 C 36.69 60.71 37.85 58 35.33 52.39 C 33.24 47.73 23.72 28.4 17.34 20.66 C 26.35 33.52 28.37 37.3 30.11 35.95 C 33.59 33.24 29.45 6.91 27.79 -1.58 C 31.48 21.24 33.07 21.51 33.78 23.37 C 36.3 29.95 43.31 44.67 48.1 48.33 C 51.74 51.1 66.59 62.74 76.34 58.19 C 70.32 50.36 56.8 38.85 45.2 22.41 C 53.52 28.6 78.08 41.75 82.15 43.1 C 78.08 45.62 64.64 59.29 62.99 61.48 C 60.67 64.58 59.71 69.41 59.51 76.19 C 62.8 72.7 65.33 68.81 65.7 65.74 C 67.36 52.19 65.7 45.62 65.12 40.78 C 64.77 37.85 62.04 26.88 60.09 18.54 C 63.67 19.83 74.25 23.28 76.15 21.05 C 81.76 14.47 73.95 0.22 62.99 -0.81 C 56.92 -1.38 55.11 4.35 55.64 5.77 C 56.8 8.86 61.42 13.62 62.8 12.73 C 65.51 10.99 64.54 9.64 63.19 4.41" horiz-adv-x="82.15"/><glyph unicode="伢" glyph-name="伢" d="M 36.01 56.65 C 39.87 55.49 40.26 51.81 38.52 48.72 C 36.53 45.17 35.04 40.01 32.91 35.95 C 31.91 34.03 26.72 24.73 18.01 14.86 C 22.08 19.31 31.17 33.24 31.94 32.27 C 32.72 31.3 34.46 30.34 34.46 27.82 C 34.46 14.09 29.81 3.83 29.23 -1.2 C 33.3 5.77 38.13 16.99 38.71 19.5 M 52.06 52.39 C 56.9 52 65.22 53.94 74.89 60.71 C 71.99 58 68.28 55.23 67.34 53.94 C 63.28 48.33 58.83 36.53 50.71 22.02 C 54.96 25.5 77.21 40.4 80.5 42.72 C 77.72 43.73 73.73 45.04 69.28 56.45 C 75.08 44.07 73.22 30.74 73.15 26.85 C 72.95 16.41 73.54 -9.9 70.44 -9.71 C 65.8 -9.42 61.35 -2.36 56.7 4.41 M 71.99 34.59 C 65.8 21.24 57.67 10.02 47.81 6.93" horiz-adv-x="80.5"/><glyph unicode="伤" glyph-name="伤" d="M 31.46 59.55 C 35.52 58.39 37.09 56.06 36.1 51.81 C 33.55 40.86 22.56 25.11 15.98 20.28 M 30.1 37.88 C 31.46 35.37 32.28 33.92 32.23 30.92 C 32.04 19.89 28.17 12.54 27.97 8.28 M 54.28 73.09 C 56.8 70.77 58.93 67.48 58.73 65.16 C 58.54 62.84 55.49 53.38 50.22 49.1 C 61.27 55.61 69.97 60.34 73.44 61.29 C 67.87 54.16 64.63 50.58 62.22 48.33 C 47.85 34.94 43.67 28.34 45.19 25.69 C 47.77 21.22 68.93 43.94 76.72 40.98 C 88.51 36.49 68.46 -5.07 64.15 -4.68 C 60.68 -4.37 53.51 8.67 53.12 10.22 M 59.7 44.07 C 62.6 42.14 63.32 37.7 58.73 27.82 C 52.35 14.09 49.25 8.09 38.42 4.99" horiz-adv-x="80.39"/><glyph unicode="伥" glyph-name="伥" d="M 22.41 53.36 C 25.7 53.74 28.29 53.93 28.02 50.07 C 27.63 44.46 12.93 20.28 7.71 13.89 M 19.51 31.88 C 21.25 29.18 22.41 27.44 22.02 23.57 C 21.64 19.7 18.74 0.55 18.93 -2.36 M 55.49 58.19 C 58.59 55.29 57.69 53.15 56.46 51.23 C 51.05 42.83 40.79 31.69 39.43 30.14 C 38.08 28.6 29.76 18.92 27.83 13.7 C 36.34 19.7 55.68 32.08 63.62 36.33 C 58.01 35.37 45.43 49.1 42.72 54.33 C 40.29 59.01 38.77 64.86 40.02 64 C 42.53 62.26 45.04 59.36 45.04 56.07 C 45.04 54.91 44.27 26.18 42.53 17.38 C 41.56 12.46 38.2 -8.24 39.63 -6.03 C 41.76 -2.74 46.98 -5.07 56.46 17.18 M 49.11 27.05 C 52.59 25.11 64.39 13.7 66.52 12.15 C 68.65 10.6 86.83 6.93 92.25 6.74" horiz-adv-x="92.25"/><glyph unicode="伦" glyph-name="伦" d="M 25.17 58.77 C 26.52 57.03 28.45 54.13 27.1 50.46 C 24.01 37.69 13.79 23.08 7.76 12.73 C 15.98 25.03 21.28 36.58 21.88 34.4 C 26.52 17.38 17.81 4.99 19.94 0.55 M 48.38 72.7 C 52.06 70.38 53.92 65.94 52.44 60.13 C 49.73 49.49 40.64 31.11 29.03 15.83 C 27.63 13.98 25.55 18.54 28.26 21.24 M 49.73 52 C 51.48 51.23 52.64 52.58 58.44 48.72 C 63.35 45.44 67.43 40.58 72.18 38.66 C 78.37 36.14 85.72 34.4 92.29 34.01 C 94.62 31.5 88.81 31.5 88.81 31.5 M 58.25 37.49 C 62.89 31.11 59.08 25.77 52.44 23.18 C 48.23 21.54 45.64 22.75 44.9 24.73 C 43.53 28.39 44.7 36.33 46.25 34.79 C 49.73 31.3 48.77 18.92 47.41 14.09 C 46.06 9.25 47.77 2.19 53.02 1.9 C 59.99 1.51 68.23 5.92 72.76 7.32 C 69.89 3.03 67.15 1.71 58.44 -2.94" horiz-adv-x="92.84"/><glyph unicode="伧" glyph-name="伧" d="M 28.31 55.1 C 30.44 52.78 32.37 51.04 31.02 48.13 C 29.66 45.23 12.7 13.71 11.48 13.51 C 9.16 13.12 12.44 18.54 12.44 19.89 M 22.7 32.46 C 24.44 29.76 25.02 27.44 25.02 26.27 C 25.02 25.11 19.41 -8.74 18.44 -10.48 M 47.85 63.03 C 50.94 61.1 55.43 58.66 54.04 54.71 C 49.59 42.14 37.21 13.89 31.21 16.02 M 49.59 43.3 C 54.81 42.52 63.72 35.73 65.26 34.59 C 69.71 31.3 79.19 25.89 88.67 26.66 M 39.72 15.83 C 42.62 15.83 61.11 30.58 61.78 25.89 C 62.73 19.16 54.76 5.82 53.84 6.74 C 50.74 9.86 49.55 15.38 48.23 20.08 C 47.46 14.67 46.49 11.27 45.72 9.25 C 44.17 5.19 41.99 -2.14 43.4 -5.26 C 46.22 -11.52 74.74 -8.74 78.03 -4.68 C 80.42 -1.72 78.41 4.61 75.51 11.77" horiz-adv-x="88.67"/><glyph unicode="伪" glyph-name="伪" d="M 34.16 58.91 C 36.45 57.43 36.39 51.25 34.36 45.62 C 33.31 42.72 23.83 21.87 16.18 16.91 M 28.79 33.39 C 29.79 28.85 33 17.08 28.43 1.93 M 45.02 52.27 C 45.02 52.27 48.73 46 50.72 48.14 C 58.29 56.24 64.63 62.24 67.4 60.53 C 70.53 58.61 50.3 11.09 47.59 12.51 C 44.88 13.94 37.21 19.84 40.18 22.35 C 50.22 30.82 70.34 40.49 73.67 40.59 C 78.07 40.71 79.93 39.57 80.51 34.03 C 82.07 19.07 72.2 -0.8 68.68 -0.6 C 61.27 -0.17 57.47 22.64 60.84 24.77 C 63.55 26.48 67.25 25.62 69.25 21.35" horiz-adv-x="80.67"/><glyph unicode="伫" glyph-name="伫" d="M 31.59 57.42 C 32.95 56.26 35.36 53.1 34.3 50.26 C 29.46 37.3 20.37 22.02 14.95 14.67 C 23.27 28.02 25.01 30.34 26.95 33.43 C 29.08 31.69 30.58 30.81 30.43 28.21 C 29.97 20.3 25.21 8.09 25.98 -4.68 M 54.23 58.97 C 58.67 59.55 66.37 53.56 66.22 52.58 C 65.64 48.91 55.58 46.59 54.81 46.59 M 43.39 37.88 C 47.07 36.53 46.68 27.63 41.65 15.63 C 45.71 24.53 45.12 31.07 47.84 32.66 C 64.09 42.14 83.11 51.23 84.6 43.3 C 84.83 42.06 75.12 40.2 64.48 27.63 M 47.65 9.64 C 52.68 8.86 66.8 15.25 70.86 16.8 C 73.55 17.82 82.66 18.34 85.18 15.44" horiz-adv-x="85.18"/><glyph unicode="伯" glyph-name="伯" d="M 34.12 56.79 C 38.3 51.04 26.62 21.73 14.05 8.82 M 28.36 30.45 C 32.9 21.38 28.71 5.85 28.88 -1.47 M 55.4 65.17 C 59.06 64.29 64.65 56.97 60.11 46.85 C 53.99 33.2 47.55 29.05 45.98 29.05 C 48.77 26.96 50.86 27.14 51.56 5.85 M 48.25 26.79 C 51.39 28.18 57.49 33.24 66.74 37.25 C 74.54 40.64 85.41 46.15 83.84 36.56 C 81.87 24.53 77.72 -3.89 76.16 -1.65 C 63.77 16.15 59.24 18.06 53.66 18.41 C 58.37 20.86 75.11 30.1 69.71 22.77 C 64.3 15.45 56.62 4.28 52.09 4.98 C 60.81 6.72 69.71 11.09 72.15 9.69" horiz-adv-x="83.99"/><glyph unicode="估" glyph-name="估" d="M 33.41 55.37 C 35.71 53.89 35.64 47.71 33.61 42.08 C 32.57 39.18 23.08 18.33 15.44 13.37 M 28.05 29.85 C 29.04 25.31 32.25 13.54 27.68 -1.61 M 36.01 28.5 C 47.41 31.63 67.79 43.6 84.89 40.61 C 83.03 41.32 74.43 42.74 71.92 43.03 C 66.6 43.64 65.51 54.43 53.54 63.41 C 67.22 56.57 54.46 13.04 46.13 18.81 C 48.89 16.31 48.69 -7.12 48.69 -2.28 C 48.69 2.85 48.13 7.75 47.69 12.96 C 47.47 15.61 55.1 18.95 62.51 23.65 C 67.45 26.78 71.05 26.19 73.91 25.65 C 70.96 20.67 67.22 8.55 48.69 3.84 C 60.95 8.55 65.51 11.68 71.49 8.4" horiz-adv-x="84.89"/><glyph unicode="伲" glyph-name="伲" d="M 51.6 26.78 C 57.46 21.07 53.21 17.9 52.05 10.25 C 51 3.34 50.6 -2.37 53.85 -5.68 C 58.4 -10.3 66.91 -8.43 72.19 -8.08 C 79.1 -7.63 85.68 -8.74 87.06 -5.38 C 89.17 -0.27 85.71 7.39 85.86 12.35 M 66.03 28.88 C 68.88 26.33 68.62 23.17 66.48 20.62 C 63.32 16.86 52.95 13.71 52.95 13.71 M 43.33 44.96 C 45.59 43.91 54.75 49.92 56.86 51.12 C 59.08 52.39 63.95 55.83 69.33 52.48 C 70.64 51.66 62.05 40.9 58.81 36.55 C 57.45 34.71 58.36 33.39 47.24 30.24 C 53.1 31.29 62.27 39.1 66.78 35.5 C 57.76 42.86 48.25 40.52 46.19 45.41 C 49.06 41.98 49.19 37.45 48.44 34.89 C 46.89 29.61 42.61 10.36 32.96 -2.07 C 32.04 -3.27 31.46 1.83 32.81 3.94 M 24.1 29.79 C 26.95 26.48 26.39 22.22 25.45 19.27 C 23.35 12.65 21.09 3.94 21.09 -7.18 M 30.11 53.08 C 32.51 50.22 32.94 48.56 31.46 44.66 C 27.4 33.99 15.38 14.16 11.78 11.6 C 10.04 10.37 11.02 16.41 12.23 17.76" horiz-adv-x="87.74"/><glyph unicode="伴" glyph-name="伴" d="M 33.26 59.83 C 35.56 58.35 35.5 52.17 33.47 46.54 C 32.42 43.64 22.94 22.79 15.29 17.83 M 27.9 34.3 C 28.9 29.77 32.11 18 27.54 2.85 M 45.38 55.41 C 42.3 47.74 48.72 39.25 52.71 44.23 C 54.78 46.81 72.64 62.91 75.16 53.44 C 76.6 48.01 70.87 42.66 67.03 47.11 C 63.82 50.83 60.45 62.45 56.02 69.5 C 63.58 62.6 63.58 31.42 62.65 22.27 C 60.93 14.17 63.96 -5.95 59.6 -3.34 C 48.43 3.35 40.15 27.05 43.74 29.37 C 48.16 32.22 68.56 42.29 84.47 40.21 C 70.17 38.6 53.48 21.16 47 18.93 C 51.46 15.01 78.07 23.87 77.91 20.54 C 77.88 19.84 77.52 18.07 72.71 16.76" horiz-adv-x="84.47"/><glyph unicode="伶" glyph-name="伶" d="M 29.62 63 C 30.82 61.49 32.83 62.2 30.82 54.73 C 28.26 45.26 12.03 16.86 9.33 12.5 C 15.19 22.27 21.28 33.52 22.7 36.55 C 26.91 35.2 25.41 28.88 25.41 28.88 C 25.41 28.88 23 1.38 20 -5.08 M 48.85 74.27 C 52.31 70.36 54.42 69.24 53.06 63 C 51.26 54.73 36.68 25.58 33.07 19.72 C 31.85 17.73 29.92 17.31 27.96 17.16 M 45.09 53.53 C 48.1 53.08 54.41 50.97 57.42 49.47 C 60.42 47.97 70.4 40.67 73.05 39.55 C 76.95 37.9 85.82 35.2 91.53 35.95 M 44.49 30.09 C 49.75 29.18 56.67 30.84 58.92 29.03 C 57.87 24.83 40.89 13.1 38.93 9.65 C 43.29 8.45 49.15 12.5 53.06 13.86 C 56.07 14.9 64 20.05 66.43 17.16 C 68.18 15.09 58.47 4.69 52.46 2.89 M 46 6.19 C 52.46 4.69 58.62 -2.07 58.92 -7.03" horiz-adv-x="91.53"/><glyph unicode="伸" glyph-name="伸" d="M 32.38 66.45 C 34.93 64.95 35.37 57.84 33.88 52.93 C 31.32 44.51 21.1 27.53 16.3 22.12 M 27.57 38.8 C 28.62 36.25 29.36 30.27 29.52 29.18 C 30.42 23.02 28.32 10.1 28.02 8 M 38.09 45.56 C 44.85 42.11 46.2 24.68 46.65 22.27 C 45.15 33.69 44.4 33.69 43.8 37 C 44.5 45.32 55.02 49.59 59.58 52.33 C 64.1 55.04 74.3 59.69 81.82 55.33 C 78.77 50.29 74.72 38.19 71.6 33.54 C 70.74 32.95 69.19 33.99 66.64 34.14 M 51.16 37.3 C 56.12 41.06 64.23 45.71 69.49 46.32 C 65.74 40.15 54.01 30.69 47.25 24.07 C 55.37 25.58 62.43 34.29 72.65 32.94 C 71 37.9 68.59 38.65 68.59 38.65 M 53.41 79.23 C 63.03 74.42 63.33 64.35 63.63 59.39 C 63.93 54.43 63.8 9.25 64.38 1.68 C 65.05 -6.83 60.78 -12.14 60.78 -15.9" horiz-adv-x="81.82"/><glyph unicode="伺" glyph-name="伺" d="M 43.1 35.5 C 51.06 37.3 66.19 43.13 67.89 47.52 C 65.64 43.91 57.21 39.24 56.02 38.05 C 54.37 36.4 49.26 27.83 45.95 9.65 C 48.06 16.71 47.46 18.97 48.81 21.52 C 53.47 25.28 67.44 34.74 67.89 32.79 C 69.7 29.48 64.39 23.86 63.24 21.82 C 61.28 18.36 57.22 16.41 53.02 15.81 C 54.97 16.11 63.39 19.27 65.04 18.06 M 47.01 55.33 C 52.12 54.73 64.59 61.19 68.19 61.79 C 69.83 62.07 77.96 62.23 78.26 56.99 C 78.56 51.73 80.37 -5.98 80.37 -11.99 C 77.16 -15.89 71.35 -2.98 62.48 2.74 M 33.78 56.53 C 37.24 54.73 37.44 52.41 36.64 48.87 C 34.68 40.3 23.71 24.38 18.3 19.42 C 26.72 27.53 25.97 29.63 28.52 32.49 C 31.98 32.19 32.73 26.93 32.13 21.97 C 31.49 16.7 26.42 2.13 26.27 1.38 C 26.12 0.63 28.37 3.34 29.27 5.14" horiz-adv-x="80.37"/><glyph unicode="似" glyph-name="似" d="M 29.33 54.73 C 33.23 53.23 32.78 49.02 32.18 47.67 C 31.58 46.32 21.06 21.22 17.31 15.96 C 15.46 13.38 11.29 7.84 14 22.72 M 23.02 31.74 C 24.97 29.33 24.37 25.77 24.37 21.52 C 24.37 14.91 22.87 3.19 24.82 -0.57 M 32.78 29.79 C 33.84 32.04 36.37 31.2 37.29 29.48 C 38.34 27.53 40.15 20.77 39.1 16.11 C 40.3 18.51 42.25 19.87 42.1 23.62 M 45.86 33.99 C 54.12 30.99 52.24 21.73 53.52 22.87 C 56.74 25.75 61.64 57.39 71.1 57.74 C 74.86 57.87 75.76 47.72 75.46 45.26 C 74.26 35.35 69.05 23.66 71.1 21.67 C 73.75 19.1 82.44 26.79 85.08 24.68 C 86.58 23.47 82.53 9.35 69.15 0.18" horiz-adv-x="85.38"/><glyph unicode="伽" glyph-name="伽" d="M 29.9 53.62 C 32.2 52.14 32.14 45.95 30.11 40.32 C 29.06 37.43 19.58 16.58 11.93 11.62 M 24.54 28.09 C 25.54 23.56 28.75 11.79 24.18 -3.36 M 44.35 54.45 C 47.22 55.9 50.16 48.59 49.41 43.27 C 47.22 27.28 31.94 -12.9 27.13 -2.8 M 32.11 28.83 C 38.17 27.74 41.79 32.71 49.41 36.32 C 53.22 38.12 58.84 38.61 58.4 32.44 C 57.59 21.27 50 -10.76 45.62 -8.66 C 43.31 -7.56 40.5 1 40.06 3.16 M 62.23 31.24 C 65.48 27.45 65.67 17.71 64.35 12.02 C 65.92 20.6 64.92 19.14 64.98 24.02 C 64.29 25.37 72.23 29.41 74.97 30.88 C 78.35 32.68 89.03 33.67 86.72 30.6 C 83.22 26.1 80.47 21.38 76.72 18.15 C 74.6 16.35 73.6 14.64 64.6 13.01 C 75.91 15.54 80.22 18.07 82.6 15.71" horiz-adv-x="87.04"/><glyph unicode="佃" glyph-name="佃" d="M 30.05 53.86 C 31.53 53.47 36.46 53.57 35.08 48.74 C 33.7 43.91 14.89 9.84 13.69 10.78 C 12.04 12.07 20.18 29.5 24.73 25.37 C 27.98 22.41 27.49 16.8 27.69 14.13 C 27.85 11.95 27.69 -3.12 26.5 -4.99 M 37.84 33.26 C 44.05 34.24 45.73 14.33 45.23 4.67 C 45.33 19.46 43.95 23.3 42.87 27.24 C 42.18 30.01 60.19 39.49 67.41 41.54 C 72.15 42.88 76.48 46.27 84.86 37.79 C 86.24 37.6 75.3 -2.23 73.72 -1.54 C 71.17 -0.42 66.72 5.85 66.53 7.53 M 44.64 18.57 C 52.72 19.06 67.61 27.93 68.3 27.54 C 67.51 24.78 53.12 15.02 45.53 5.06 C 52.23 10.88 64.75 11.47 68.4 10.68 C 66.92 12.33 64.55 14.04 62.88 14.53 M 59.33 37.79 C 62.48 32.17 58.24 11.57 58.24 10.58" horiz-adv-x="84.98"/><glyph unicode="但" glyph-name="但" d="M 34.16 56.97 C 37.47 54.18 34.42 49.14 32.83 44.63 C 31.24 40.12 14.92 12.66 14.92 12.66 C 16.39 13.64 23.94 30.83 25.27 29.24 C 26.6 27.65 28.59 21.94 27.52 14.51 C 26.38 6.54 25 -4.46 25.4 -6.45 M 43.84 40.12 C 52.86 37.73 50.34 14.78 50.34 14.78 C 49.28 14.35 51.27 23.27 50.74 29.64 C 50.25 35.51 58.17 43.04 62.95 44.76 C 67.72 46.49 76.65 51.65 77.28 44.5 C 77.82 38.26 65.07 19.42 64.01 19.95 C 60.97 21.48 47 25.07 51.54 27.12 C 56.36 29.29 65.86 37.56 68.12 30.04 C 69.15 23.84 62.55 20.75 58.97 16.9 C 55.38 13.06 44.04 5.05 44.77 4.96 C 48.94 4.48 59.37 8.34 63.61 9.87 C 71.7 12.79 81.41 15.86 84.44 11.73 C 86.42 9.03 78.2 8.54 76.48 10" horiz-adv-x="84.74"/><glyph unicode="位" glyph-name="位" d="M 30.27 57.83 C 33.48 56.07 34.41 53.64 33.97 51.49 C 32.95 46.54 19.93 23.7 15.45 19.51 M 26.07 35.4 C 27.54 34.33 30.56 33.74 30.36 28.58 C 30.21 24.39 29.68 19.8 28.9 15.81 C 28.27 12.55 26.66 -0.57 26.85 -2.52 M 54.05 64.84 C 56.2 61.53 62.15 55.78 50.84 43.1 C 60.39 46.42 72.09 57.53 72.68 54.22 C 73.07 52.37 46.74 26.04 46.65 19.51 C 50.35 16.1 69.07 42.03 75.8 33.74 C 78.75 30.11 55.32 6.54 56 12.49 M 41.19 6.64 C 44.21 3.91 54.44 8.01 59.32 9.18 C 63.52 10.18 80.47 12.78 84.67 8.3" horiz-adv-x="84.67"/><glyph unicode="低" glyph-name="低" d="M 28.01 61.33 C 33.37 60.55 33.6 55.74 32.39 52.46 C 29.61 44.9 15.72 23.7 11.43 21.75 M 23.62 36.38 C 24.79 34.13 25.92 29.26 25.57 26.43 C 24.98 21.75 22.55 3.81 22.45 1.67 M 54.13 65.72 C 57.25 63.87 58.81 61.82 55.99 57.63 C 53.82 54.42 48.67 47.78 38.24 45.93 C 45.04 42.25 37.95 13.37 35.41 5.86 C 40 7.71 51.99 17.17 53.94 25.65 M 40.39 28.77 C 52.18 34.43 58.91 42.23 71 47.39 C 61.93 42.62 48.92 54.95 52.09 52.17 C 56.86 47.98 59.82 40.74 62.91 31.31 C 68.76 13.47 84.86 -3.66 86.4 -0.67 C 88.06 2.55 84.45 20.29 84.36 22.05 M 49.65 14.54 C 51.4 13.27 56.77 8.79 55.69 2.84" horiz-adv-x="86.84"/><glyph unicode="住" glyph-name="住" d="M 35.2 64.26 C 38.52 60.46 40.85 58.92 39.49 55.19 C 37.64 50.12 28.38 25.46 19.41 15.03 C 18.24 13.67 17.95 20.19 18.24 20.78 M 33.84 41.15 C 36.86 39.11 37.64 34.91 36.96 31.6 C 36.27 28.29 30.81 -1.64 31.89 -3.98 M 53.92 66.7 C 57.43 66.79 68.15 63.79 67.67 61.43 C 67.08 58.61 45.07 48.67 46.71 42.23 C 48.9 33.54 75.27 52.85 77.32 53.15 M 66.01 46.32 C 67.37 43.2 65.97 16.4 63.38 16.88 C 60.74 17.37 54.99 18.63 55.77 20.49 C 57.79 25.27 72.11 34.02 74.39 29.75 C 76.77 25.29 53.62 8.67 59.18 5.18 C 63.22 2.65 78.98 12.5 81.7 10.74 C 84.17 9.14 67.08 -4.08 62.89 -5.15" horiz-adv-x="81.95"/><glyph unicode="佐" glyph-name="佐" d="M 33.13 56.85 C 35.43 55.37 35.36 49.19 33.33 43.56 C 32.29 40.66 22.8 19.81 15.16 14.85 M 27.76 31.33 C 28.76 26.8 31.97 15.02 27.4 -0.12 M 40.54 35.81 C 43.15 33.89 50 37.08 54.26 39.23 C 59.61 41.94 67.82 45.61 76.14 49.67 C 69.61 52.94 68.25 53.98 58.12 65.06 C 64.85 55.26 45.89 8.04 37.55 8.04 M 50.54 20.11 C 59.52 21.15 68.82 24.89 75.53 29.43 M 65.23 23.86 C 65.88 20.75 68.18 15.64 65.98 8.45 M 48.13 4.12 C 57.13 4.09 79.64 14.44 87.58 8.35" horiz-adv-x="87.58"/><glyph unicode="佑" glyph-name="佑" d="M 35.39 50.96 C 37.69 49.49 37.63 43.3 35.6 37.67 C 34.55 34.77 25.07 13.92 17.42 8.97 M 30.03 25.44 C 31.03 20.91 34.24 9.14 29.67 -6.01 M 59.41 58.79 C 63.87 56.62 61.16 49.87 58.66 41.85 C 52.39 21.63 42.46 0.64 38.92 1.47 M 38.96 25.56 C 53.01 27.31 72.93 42.93 84.8 37.4 M 51.18 17.1 C 55.85 13.08 54.76 -4.61 54.54 -6.89 C 54.87 -3.09 54.65 2.55 54.54 6.57 C 54.32 14.86 79.61 19.82 76.57 15.79 C 73.54 11.78 71.69 2.67 54.98 -1.24 C 64.31 1.69 69.73 4.51 73.32 3.09" horiz-adv-x="84.8"/><glyph unicode="体" glyph-name="体" d="M 29.18 62.07 C 32.41 59.99 34.69 58.67 33.79 54.34 C 31.02 41.02 20.76 30.47 17.88 26.2 C 24.41 33.35 22.37 32.08 26.18 37.51 C 31.48 37.74 27.91 11.67 26.87 8.67 C 25.61 5.04 31.25 29.55 31.37 28.97 M 43.71 57.34 C 52.24 57.57 66.78 64.61 70.12 66.8 C 62.97 66.8 57.92 72.73 58.36 72.57 C 60.23 71.87 61.88 70.43 61.24 64.95 C 59.86 53.07 45.4 22.27 42.1 22.86 C 39.72 23.28 36.97 23.37 37.48 24.7 C 38.48 27.33 53.74 37.51 57.9 40.5 C 62.05 43.5 75.74 50.54 78.42 48 C 82.69 43.96 49.94 14.78 47.52 11.56 C 60.2 24.7 76.35 29.66 80.96 29.09 C 68.97 33.47 64.65 44.68 62.51 55.15 C 64.12 51.46 65.45 43.89 65.28 34.97 C 65.11 26.47 64.79 7.98 64.47 4.29 C 64.01 -1.02 62.05 -12.09 61.36 -14.05" horiz-adv-x="80.96"/><glyph unicode="何" glyph-name="何" d="M 27.52 64.84 C 29.71 62.42 31.54 60.72 30.4 56.53 C 28.21 48.46 14.6 19.97 10.22 17.67 M 23.02 39.12 C 25.56 36.81 25.56 31.16 25.21 27.82 C 24.99 25.61 21.64 7.63 21.64 6.48 M 31.79 46.96 C 35.71 45.69 39.95 47.51 48.63 51.46 C 57.74 55.61 66.04 58.61 72.39 58.84 C 77.03 59.01 87.84 58.03 88.19 56.77 C 70.89 63.45 58.2 53.08 58.2 53.08 C 50.24 48.58 44.01 23.9 42.63 19.05 C 45.17 28.28 45.05 28.62 47.13 32.89 C 50.01 35.89 59.87 44.28 60.74 44.08 C 62.93 41.77 55.89 33.12 49.43 24.13 C 57.28 30.7 59.81 30.93 62.35 30.93 M 68.69 57.57 C 70.08 55.38 71.75 51.33 71.23 44.43 C 70.39 33.12 73.54 -7.92 69.96 -7.47 C 67.2 -7.13 64.77 -4.71 59.81 1.52" horiz-adv-x="88.19"/><glyph unicode="佗" glyph-name="佗" d="M 30.48 57.11 C 31.98 55.84 34.28 53.77 31.28 46.73 C 28.86 41.05 24.51 33.73 22.87 31.16 C 20.79 27.93 13.87 16.86 11.33 15.71 M 26.44 37.27 C 27.13 33.58 28.78 28.69 29.09 24.7 C 29.56 18.84 24.25 3.6 24.6 -0.32 M 50.43 59.53 C 52.51 60.57 59.7 61.02 60.58 58.96 C 61.77 56.16 53.77 52.73 49.62 50.08 M 42.13 44.54 C 44.89 40.73 39.36 25.74 37.86 23.09 C 39.82 28.51 40.28 29.32 42.24 35.31 C 42.01 37.85 70.48 53.85 77.65 50.19 C 80.5 48.73 66.92 39.58 65.19 40.16 M 62.89 32.32 C 67.73 29.55 55.97 15.48 50.78 15.94 C 51.81 22.17 51.47 27.01 50.78 28.97 C 54.7 29.78 49.39 14.67 49.51 8.79 C 49.61 3.53 52.74 0.14 57.93 -1.13 C 63.12 -2.4 81.78 -2.86 84.22 0.02 C 88.72 5.32 84.34 15.59 84.11 19.86" horiz-adv-x="86.24"/><glyph unicode="佘" glyph-name="佘" d="M 43.6 56.19 C 41.3 53.08 35.53 40.5 32.19 36.47 C 28.84 32.43 16.16 11.32 12.81 23.9 M 30.57 56.19 C 31.72 59.42 37.55 59.17 38.99 58.61 C 42.99 57.07 53.95 51.09 57.33 47.89 C 63.18 42.33 77.4 37.04 85.35 39.12 M 35.99 33.35 C 34.38 31.62 31.37 28.33 33.45 28.39 C 37.49 28.51 48.56 31.74 52.25 32.32 C 51.46 32.19 26.59 16.4 25.73 8.44 C 25.56 6.86 60.1 26.78 63.79 25.16 M 45.45 17.67 C 46.83 12.94 47.23 -4.61 43.95 -7.13 C 42.14 -8.52 31.68 4.38 29.76 4.52 C 28.15 4.64 26.1 -6.18 30.23 -5.51 C 34.49 -4.82 37.15 1.64 39.34 4.29 M 52.72 7.98 C 58.94 6.13 64.48 6.94 65.75 -3.55" horiz-adv-x="85.35"/><glyph unicode="余" glyph-name="余" d="M 42.67 64.01 C 45.5 62.09 45.73 59.26 43.46 56.09 C 41.2 52.92 18.16 19.98 12.69 13.66 C 10.71 11.38 7.48 13.89 6.92 15.81 M 40.52 51.68 C 43.46 51.68 49.57 50.43 51.27 47.94 C 52.97 45.45 66.66 38.89 68.24 37.87 C 69.83 36.85 90.31 29.84 92.8 29.95 M 31.58 30.63 C 36.68 30.63 52.49 38.59 54.21 39.12 C 52.35 36.35 27.4 18.19 26.94 14 C 34.64 14.11 49.01 28.03 61.68 25.54 C 45.84 25.88 48.67 32.1 46.75 35.84 C 50.14 31.88 47.76 -6.71 45.5 -7.05 C 42.08 -7.56 39.73 0.2 38.37 2.46 M 30.23 10.61 C 27.4 6.65 28.25 -3.68 30.57 -3.09 C 32.21 -2.66 33.05 2.57 33.96 4.5 M 55.12 15.36 C 59.64 11.85 66.21 7.32 66.66 -1.39" horiz-adv-x="92.8"/><glyph unicode="佚" glyph-name="佚" d="M 27.23 54.05 C 30.17 53.6 33.19 52.61 31.98 49.87 C 25.31 34.7 15.58 23.28 10.82 17.73 M 23.61 34.7 C 25.31 30.41 25.89 24.23 25.42 22.26 C 23.58 14.51 21.69 -2.07 20.22 -2.97 M 55.52 70.91 C 64.91 59.03 60.49 31.88 56.53 19.77 C 52.35 8.57 41.49 -7.95 36.51 1.78 M 43.75 51 C 52.69 46.25 42.96 35.72 40.69 31.31 C 46.69 35.04 70.68 49.53 71.58 48.85 C 63.1 44.77 33.74 21.14 34.92 18.19 C 36.47 14.32 70.79 38.89 81.2 37.65 C 81.2 37.65 75.09 38.55 72.26 42.17 M 58.68 13.43 C 71.13 15.58 86.4 4.95 87.08 2.46 C 87.76 -0.03 81.43 0.87 74.3 1.55" horiz-adv-x="87.13"/><glyph unicode="佛" glyph-name="佛" d="M 32.24 64.35 C 36.13 61.75 36.95 61.09 36.56 57.43 C 35.99 51.95 18.99 24.54 16.81 19.37 C 20.49 28.29 25.21 37.71 26.62 35.66 C 30.48 30.03 24.6 3.37 24.6 3.37 C 23.3 3.94 23.44 8.41 23.88 13.31 M 41.03 50.8 C 47.09 49.36 73.18 64.06 72.89 60.46 C 70.16 55.95 65.97 51.09 62.8 48.35 C 59.63 45.61 47.23 38.54 37.43 34.36 C 52.13 41.28 65.83 47.91 69.72 50.08 C 57.76 44.02 54.58 42.29 50.55 38.25 C 46.14 33.84 43.48 25.57 36.42 17.5 C 45.07 22.4 61.48 33.1 68.86 36.81 C 70.58 37.68 80.97 39.98 82.26 34.51 C 83.16 30.72 76.35 8.85 70.87 10.72 C 65.81 12.45 61.79 16.05 57.03 22.54 M 42.76 65.5 C 48.96 64.35 49.24 54.13 48.53 44.31 C 47.89 35.56 44.71 7.14 42.62 8.27 C 41.09 9.1 40.46 10.86 41.18 14.61 M 56.17 76.6 C 63.23 70.4 64.53 66.51 64.24 63.34 C 63.76 58.07 65.02 11.03 64.96 7.26 C 64.82 -3.12 62.37 -13.36 59.49 -17.83" horiz-adv-x="82.34"/><glyph unicode="作" glyph-name="作" d="M 29.94 54.83 C 35.56 51.95 34.67 45.7 31.53 38.25 C 26.36 26.03 19.06 18 18.33 15.69 C 20.21 23.77 26.34 26.15 28.5 31.33 C 31.24 29.46 26.19 7.26 28.64 4.52 C 31.47 31.7 37 45.75 37.29 47.05 C 37.29 47.05 49.41 72.43 53.73 65.5 C 57.97 58.7 53.15 44.89 45.94 36.67 C 52.43 44.02 66.27 53.82 73.19 54.26 C 68.87 54.51 63.61 53.84 63.67 51.23 C 63.88 42.16 63.53 -14.65 62.09 -20.28 M 75.5 41.14 C 75.35 31.05 70.69 31.46 72.47 27.3 C 73.54 24.79 80.95 27.21 80.69 24.99 C 80.11 20.23 73.62 15.19 68.86 14.18" horiz-adv-x="80.69"/><glyph unicode="佝" glyph-name="佝" d="M 32.78 54.84 C 36.62 55.77 36.72 53.44 33.83 46.59 C 28.64 34.31 16.86 19.27 13.72 15.32 C 19.18 22.64 25.11 30.55 26.74 32.52 C 30.34 32.64 31.62 28.57 31.04 23.45 C 30.81 21.44 25.92 3.81 26.62 -0.14 M 54.06 62.51 C 55.57 63.56 59.17 63.68 57.19 57.52 C 54.68 49.67 47.87 38.03 43.48 32.75 C 49.17 42.17 63.12 45.77 72.66 49.96 C 75.42 51.17 82.89 50.42 83.93 45.89 C 84.98 41.36 79.75 -5.96 73.12 -5.72 C 69.11 -5.58 67.31 -3.52 61.26 1.83 M 45.69 27.99 C 48.13 24.62 48.36 12.06 46.73 10.67 C 48.59 15.9 47.31 22.52 47.31 22.52 C 47.55 24.38 58.94 32.87 61.96 33.34 C 63.52 33.58 66.51 34.04 68.01 32.41 C 68.84 31.49 62.31 23.8 60.91 22.76 C 59.52 21.71 60.8 21.01 48.24 14.85 C 54.75 18.11 63.01 22.06 65.68 21.01" horiz-adv-x="84.07"/><glyph unicode="佞" glyph-name="佞" d="M 28.29 59.03 C 32.01 56.59 31.21 53.73 28.52 47.87 C 22.97 35.75 13.53 19.39 8.76 13.92 M 25.03 40.31 C 27.24 34.73 26.78 27.76 26.08 23.69 C 25.38 19.62 21.08 -3.63 21.55 -7.82 M 48.28 56.24 C 53.17 55.19 64.21 59.49 65.84 59.72 C 66.77 57.86 62 55.19 54.56 51.01 M 35.38 33.8 C 43.63 32.87 65.95 44.84 73.39 47.17 M 54.56 39.03 C 57.82 34.85 57 30.78 53.98 25.9 C 51.92 22.57 48.17 15.67 47.12 12.64 C 51.89 13.69 62.93 10.95 67.12 9.16 C 72.43 6.89 80.49 1.25 83.39 -3.4 M 63.05 34.61 C 67.12 28.92 66.64 23.25 63.63 18.69 C 58.5 10.9 54.31 -0.09 47.12 0.44 C 45 0.59 31.33 8.57 32.13 10.55 C 33.26 13.35 72.05 26.83 79.79 26.01 C 84.3 25.54 88.39 25.55 91.53 23.92" horiz-adv-x="91.53"/><glyph unicode="佟" glyph-name="佟" d="M 32.52 57.86 C 34.26 52.28 31.7 45.66 28.91 41.36 C 27 38.41 19.23 23.25 12.17 18.34 C 19.27 24.74 22.29 30.31 25.54 34.61 C 28.56 31.82 27.63 26.13 27.17 22.76 C 26.7 19.39 23.8 6.71 23.8 0.44 M 55.3 69.61 C 59.37 67.16 57.8 64.07 57.04 60.19 C 56.23 56 46.49 43.94 47.98 45.89 C 49.84 48.33 63.42 59.64 65.07 56.93 C 69.95 48.91 44.95 15.2 42.4 13.46 C 39.84 11.71 35.65 6.83 36.82 20.9 M 38.68 26.83 C 41 28.1 56.11 33.45 66.58 36.82 C 74.02 39.22 86.58 35.83 86.92 35.08 C 87.62 33.57 76.11 30.55 72.27 28.45 M 54.95 16.6 C 60.07 14.27 63.25 10.78 61 9.5 C 58.35 8.01 57.51 4.74 59.02 1.25 C 60.99 -3.29 72.39 -4.79 70.76 -5.38 C 69.27 -5.91 61.23 -4.79 60.18 -4.21" horiz-adv-x="86.95"/><glyph unicode="你" glyph-name="你" d="M 32.62 55.9 C 33.69 51.31 33.33 48.16 29.89 39.01 C 27.51 32.67 18.56 20.06 15.14 16.45 C 22.66 25.73 22.95 27.29 27.05 33.24 C 28.13 29.05 27.74 23.97 26.96 20.55 C 26.28 17.6 24.13 9.71 24.03 4.93 M 49.03 65.96 C 52.25 67.32 55.81 64.09 55.08 60.78 C 50.73 41.09 43.95 35.98 39.46 31 C 48.44 39.69 67.82 56.86 75.98 48.58 C 77.79 46.74 62.83 35.35 60.65 34.51 C 59.73 34.17 55.76 36.17 52.93 37.64 C 63.28 36.66 59.19 3.16 57.23 -1.13 C 56.12 -3.55 50.98 6.39 49.03 10.78 M 42.29 21.04 C 39.46 17.72 38.31 4.74 42.19 9.03 C 46.88 14.2 59.71 22.73 64.85 23.28 C 72.95 24.16 78.22 22.7 83.3 16.25" horiz-adv-x="83.3"/><glyph unicode="佣" glyph-name="佣" d="M 32.59 53.09 C 34.88 51.61 34.82 45.43 32.79 39.8 C 31.75 36.9 22.26 16.05 14.61 11.09 M 27.22 27.57 C 28.22 23.03 31.43 11.26 26.86 -3.88 M 43.4 44.22 C 53.73 39.58 42.73 -0.77 40.36 -0.15 C 38.73 0.28 37.78 2.75 37.78 4.35 M 44.77 42.33 C 45.83 44.07 52.56 49.53 56.46 52.05 C 60.26 54.5 81.98 66.4 81.83 50.6 C 81.56 21.95 88.86 -15.71 83.65 -13.78 C 80.29 -12.53 68.83 -0.42 68.68 0.74 M 51.97 33.41 C 57.94 32.62 72.27 43.5 70.01 39.12 C 67.76 34.74 53.43 16.03 49.45 16.96 C 62.45 18.95 67.76 24.66 71.74 25.85 C 68.42 25.59 61.39 43.1 59 51.19 C 66.17 33.81 60.33 1.04 60.2 -1.48" horiz-adv-x="85.53"/><glyph unicode="佤" glyph-name="佤" d="M 27.66 56.09 C 31.67 55.22 32.26 51.1 30.89 47.6 C 27.39 38.7 24.15 30.12 20.63 25.04 C 18.24 21.58 13.02 13.81 12.04 12.05 C 11.06 10.3 20.36 25.51 22.59 27.97 C 27.31 27.44 26.98 18.6 26.1 14.98 C 25.22 11.37 21.9 -3.57 22.1 -6.6 M 37.72 42.62 C 44.46 42.72 57.61 51.08 59.69 52.19 C 61.48 53.14 65.36 54.63 67.12 54.92 C 62.92 54.63 48.43 46.21 48.66 45.06 C 49.44 41.15 48.66 28.36 45.93 22.7 C 43.15 16.94 40.55 6.98 38.11 5.61 C 37.33 4.24 52.27 14.89 54.62 18.5 M 47.98 29.73 C 52.17 33.15 59.47 38.99 61.84 39.69 C 64.48 40.47 68.58 41.84 68.19 38.22 C 67.8 34.61 63.61 12.75 63.89 8.73 C 65.08 -7.94 85.8 -6.09 86.16 -2.98 C 86.94 3.85 81.57 10.3 79.71 14.4 M 48.56 26.12 C 51.59 26.51 60.38 26.31 62.62 22.21" horiz-adv-x="86.23"/><glyph unicode="佥" glyph-name="佥" d="M 48.15 62.64 C 44.05 57.75 39.85 51.8 35.56 44.18 C 32.64 39.01 21.1 8.64 12.51 14.2 M 38.97 50.33 C 43.37 48.77 51.9 43.45 54.31 40.76 C 62.7 31.39 77.84 28.85 87.12 26.9 M 29.79 26.6 C 35.07 27.87 39.38 31.51 41.12 31.98 C 44.44 32.85 48.64 35.69 51.86 35.2 C 45.61 34.51 45.45 31.94 43.37 30.32 C 36.63 25.04 21.86 11.77 27.65 3.95 C 29.6 1.31 33.8 16.16 36.53 16.35 C 40.32 16.62 41.68 11.63 45.03 14.2 C 47.57 16.16 50.79 21.72 52.64 22.31 C 54.71 22.96 57.98 23.96 58.21 20.06 C 58.67 12.32 39.17 -0.44 37.31 -1.81 C 35.46 -3.18 33.51 -5.72 28.13 -7.87 C 33.99 -8.94 40.51 -3.33 48.45 -2.5 C 53.91 -1.92 63.55 0.25 64.56 -1.52 C 66.69 -5.28 57.92 -6.01 52.84 -8.84" horiz-adv-x="87.12"/><glyph unicode="佧" glyph-name="佧" d="M 32.07 60.4 C 36.01 57.7 35.73 54.45 34.99 52.29 C 32.78 45.84 18.79 21.24 15.64 19.89 M 27 36.54 C 28.02 34.29 28.69 32.83 28.02 25.63 C 27.34 18.43 24.19 2.11 24.87 0.87 M 51.87 66.47 C 54.12 64.67 56.17 59.58 55.36 55.45 C 53.82 47.67 53.22 37.33 53.56 36.09 M 55.02 51.51 C 57.5 53.76 65.99 57 68.19 57.47 C 68.78 57.6 67.4 55.22 65.93 54.09 M 32.18 26.75 C 35.55 25.18 43.54 30.06 45.68 31.48 C 53.39 36.6 62.98 40.39 67.96 41.16 C 71.99 41.77 79.66 42.73 83.94 41.27 M 53.22 35.64 C 54.35 32.38 57.06 25.78 57.16 15.39 C 57.29 1.03 54.23 -11.39 53.56 -14.88 M 56.37 23.38 C 59.52 23.94 75.08 22.48 76.74 21.24 C 77.19 20.9 75.95 19.33 74.82 19.21" horiz-adv-x="83.94"/><glyph unicode="佩" glyph-name="佩" d="M 27.08 53.62 C 29.38 52.14 29.31 45.96 27.29 40.33 C 26.24 37.43 16.76 16.58 9.11 11.62 M 21.72 28.1 C 22.72 23.56 25.93 11.79 21.36 -3.35 M 34.78 42.17 C 45.8 41.9 37.57 2.77 35.05 4.89 C 32.53 7.01 34.39 20.28 34.52 21.07 M 39.56 37.13 C 40.75 36.73 43.94 42.04 53.23 47.61 C 63.85 53.98 74.83 61.03 73.39 51.99 C 65.71 3.56 89.84 -4.4 89.44 -2.14 C 88.78 1.6 87.45 10.86 85.07 14.97 M 43.94 30.49 C 48.98 30.36 57.34 35.27 61.72 42.04 C 56.28 34.08 49.11 25.05 44.07 9.13 C 45.93 18.02 57.97 27.08 62.11 26.25 C 72.06 24.26 62.24 9.52 58.93 10.2 C 56.64 10.66 51.9 18.69 54.02 32.48 C 59.06 19.08 55.61 -0.82 53.62 -4.53" horiz-adv-x="89.45"/><glyph unicode="佬" glyph-name="佬" d="M 33.13 58.87 C 35.43 57.39 35.37 51.21 33.34 45.58 C 32.29 42.68 22.81 21.83 15.16 16.87 M 27.77 33.34 C 28.77 28.81 31.98 17.04 27.41 1.89 M 45.49 44.31 C 56.25 47.12 65.29 52.11 70.28 53.51 C 67.16 54.61 58.74 63.65 56.72 68.18 C 60.46 58.82 57.5 33.39 56.56 34.33 M 35.35 22.32 C 45.64 26.38 78.55 50.71 84.32 48.68 C 81.05 50.86 71.38 59.75 73.09 66.46 C 78.71 49.93 40.65 -1.86 37.53 -3.57 M 70.28 23.88 C 71.53 24.35 75.3 26.49 81.98 24.35 C 84.18 23.64 76.99 19.98 75.43 18.89 M 62.8 23.57 C 64.36 17.17 57.98 -0.74 59.68 -4.82 C 60.88 -7.7 73.99 -7.12 76.52 -4.82 C 79.96 -1.7 82.92 6.1 79.96 8.91" horiz-adv-x="84.32"/><glyph unicode="佯" glyph-name="佯" d="M 37 58.83 C 38.34 56.04 38.47 52 35.43 46.45 C 31.38 39.06 21.34 18.28 17.94 16.22 C 26.56 27.02 27.41 33.22 29.72 34.92 C 31.91 37.34 33.97 29.21 32.51 21.56 C 31.47 16.09 29.36 6.27 29.11 2.26 M 49.14 59.68 C 49.63 53.49 53.27 51.55 53.64 52.76 C 54 53.98 54.12 55.07 54.12 55.07 M 62.26 68.18 C 66.38 69.88 69.68 70.41 71.24 69.52 C 75.49 67.09 72.7 62.96 71.24 61.02 C 69.78 59.08 63.35 51.18 61.89 50.09 C 60.43 49 55.58 40.26 42.83 37.47 C 54.36 40.14 64.4 51.72 76.95 52.03 C 81.09 52.14 69.05 41.84 66.02 39.41 C 63.72 37.57 54.24 29.94 46.47 23.63 C 51.69 26.54 74.11 41.96 75.61 40.02 C 77.26 37.87 50.24 12.82 49.02 10.76 C 48.3 9.53 72.21 27.51 82.17 25.57 C 69.05 27.87 66.88 40.02 62.02 47.06 C 66.76 41.6 66.46 30.45 66.52 27.03 C 66.64 19.63 66.03 8.21 64.45 -1.5 C 63.85 -5.22 60.45 -18.37 59.96 -20.44" horiz-adv-x="82.17"/><glyph unicode="佰" glyph-name="佰" d="M 33.71 64.1 C 37.42 62.93 38.79 59.61 36.74 55.02 C 33.96 48.8 24.34 27.2 15.26 15.97 C 23.85 27.4 24.83 31.69 29.13 38.52 C 31.47 35.4 32.74 31.59 32.44 27.4 C 32.3 25.35 32.44 18.41 31.66 13.14 C 31.15 9.66 29.03 0.35 28.54 -1.5 M 39.67 43.8 C 46.11 42.04 60.95 52 68.08 53.95 C 72.99 55.3 78.33 56.1 84.48 54.73 M 60.56 50.73 C 61.25 46.92 61.34 43.6 59.78 41.45 C 58.22 39.31 50.41 32.08 49.43 31.01 C 56.27 29.25 51.97 8.55 51.78 6.5 C 53.34 18.41 53.83 25.25 52.75 26.42 C 51.78 30.32 68.71 37.42 71.69 37.65 C 74.23 37.84 75.69 38.62 77.06 35.01 C 77.98 32.58 73.93 2.27 73.45 3.18 C 65.83 17.58 59.59 16.85 54.12 20.85 C 53.43 21.73 69.38 29.16 68.27 27.3 C 68.18 20.56 58.71 15.48 52.65 10.7 C 61.15 13.14 66.71 15.58 72.86 14.12" horiz-adv-x="84.48"/><glyph unicode="佳" glyph-name="佳" d="M 38.21 51.98 C 41.43 44.81 32.94 29.15 25.62 16.12 C 33.52 32.22 36.45 31.93 37.33 27.83 C 38.68 21.51 34.55 4.11 34.11 2.65 M 49.07 39.32 C 57.12 37.89 70.36 47.4 74.94 50.25 C 64 55.72 66.14 70.75 66.14 70.75 C 68.83 67.47 65.41 3.54 60.6 6.12 C 55.54 8.83 50.02 24.07 47.96 23.36 C 58.75 29.08 72.11 42.17 75.76 39.03 C 78.9 36.32 63.38 18.3 60.22 17.31 C 69.44 21.39 72.6 23.47 75.1 20.76 C 78.79 16.77 55.62 1.96 51.57 -1.92 C 63.41 7.91 102.03 8.16 60.28 -10.34" horiz-adv-x="79.21"/><glyph unicode="佴" glyph-name="佴" d="M 31.46 62.49 C 34.38 60.91 37.65 59.45 34.01 52.17 C 30.37 44.89 25.93 38.06 21.51 33.23 C 18.62 30.08 16.41 24.61 15.44 21.94 M 28.91 43.43 C 29.64 39.79 29.58 30.32 29.52 28.25 C 29.4 24.01 26.36 6.89 26.61 4.94 M 42.88 53.99 C 46.4 52.78 53.13 54.11 60.48 58 C 68.98 62.49 78.32 63.58 78.32 63.58 C 78.32 63.58 59.64 59.76 56.59 54.6 C 54.28 50.67 49.79 18.66 49.55 15.02 C 50.39 19.6 48.4 21.64 53.68 41 C 53.8 43.07 66.67 48.29 69.46 48.53 C 65.82 47.07 57.69 30.8 51.98 30.68 C 53.56 30.68 68.36 38.96 69.7 37.36 C 70.28 36.67 46.27 15.14 42.75 10.65 C 57.08 17.21 69.83 27.4 83.54 29.71 C 75.17 25.58 69.22 54.84 67.28 60.18 C 72.01 50.23 69.61 23.91 69.46 17.33 C 69.22 6.64 69.73 -1.35 68.86 -5.62 C 67.76 -10.96 64.12 -21.04 63.27 -21.64" horiz-adv-x="83.54"/><glyph unicode="佶" glyph-name="佶" d="M 35.08 58 C 38.23 51.2 36.12 45.56 33.62 39.91 C 29.21 29.95 18.32 16.72 17.11 10.04 M 31.31 35.66 C 34.71 32.02 34.85 22.56 34.59 20.12 C 33.95 14.09 32.4 6.89 32.04 2.76 C 31.88 1 31.31 -6.22 31.68 -8.65 M 46.61 36.51 C 54.99 35.9 71.98 45.01 83.03 46.59 C 76.23 45.13 74.77 49.01 73.32 49.86 M 58.75 68.92 C 61.91 65.89 66.51 62.24 66.28 57.63 C 65.88 49.99 62.15 31.05 61.3 27.77 M 44.18 22.43 C 50.25 17.93 77.69 35.54 80.6 32.75 C 75.14 32.75 60.99 25.63 59.48 22.91 C 57.66 19.63 54.86 14.9 51.22 -3.19 C 52.19 2.4 52.56 4.46 53.29 5.19 C 58.87 7.86 64.09 13.83 67.37 16.48 C 71.13 19.51 74.53 20.96 76.6 21.58 C 79.02 22.31 82.83 22.01 82.18 19.39 C 81.45 16.48 76.56 11.48 73.2 7.13 C 72.35 6.04 70.4 3.25 60.08 -0.4 C 67.85 3.49 77.81 5.92 80.24 2.76" horiz-adv-x="83.03"/><glyph unicode="佻" glyph-name="佻" d="M 29.17 53.26 C 31.6 51.44 31.84 49.5 30.51 46.95 C 29.17 44.4 26.15 37.36 25.41 35.3 C 24.2 31.9 16.79 18.91 12.3 13.32 C 11.81 14.41 22.5 27.77 23.35 30.68 C 25.05 26.8 25.41 18.78 24.8 14.41 C 24.2 10.04 21.92 -1.07 21.4 -2.95 C 21.04 -4.28 20.19 -2.46 21.04 2.52 M 46.9 59.09 C 52.6 49.62 50.95 34.14 49.2 22.31 C 46.9 6.64 43.01 -0.4 37.55 2.4 M 31.48 24.37 C 34.51 31.05 41.05 38.86 43.13 38.21 C 45.31 37.53 30.13 8.95 31.48 10.29 C 33.57 12.36 48.23 27.4 48.72 31.17 M 59.28 66.13 C 61.59 65.04 63.85 57.49 63.17 47.07 C 62.32 34.2 60.35 21.35 60.25 18.06 C 60.13 13.93 59.4 6.77 65.35 2.76 C 71.3 -1.25 83.56 -1.49 86.35 1.18 C 89.34 4.03 84.17 18.3 82.95 23.28 M 72.63 53.26 C 74.33 51.56 74.7 48.29 73.36 46.83 C 71.13 44.39 66.44 37.6 68.87 37.48 C 72.08 37.32 75.88 41.28 76.52 39.3 C 78.1 34.45 68.87 26.19 65.35 23.88" horiz-adv-x="87.27"/><glyph unicode="佼" glyph-name="佼" d="M 31.46 55.45 C 34.01 52.78 35.06 49.47 32.92 44.76 C 27.46 32.75 21.51 20.85 14.47 11.26 C 23.69 22.79 25.88 31.41 25.64 29.83 C 29.76 24.98 28.1 18.31 28.07 16.24 C 27.94 8.22 24.62 -1.08 25.76 -0.52 C 26.56 -0.12 28.07 4.82 29.16 6.52 M 52.22 64.07 C 56.11 63.82 60.72 62.46 61.94 60.3 C 63.39 57.73 57.08 54.48 55.14 52.9 C 53.49 51.56 39.23 42.94 42.03 38.82 C 44.33 35.41 65.16 52.86 66.67 50.59 C 69.83 45.86 46.8 25.06 48.95 23.16 C 50.04 22.18 61.86 30.6 64.36 26.55 C 66.2 23.59 63.15 16.96 62.42 14.05 C 61.99 12.34 57.25 -0.87 49.8 -2.22 C 39.95 -4 40.57 13.2 43.6 12.96 C 49.54 12.48 60.72 9.92 66.55 6.16 C 72.38 2.4 79.54 -2.46 81.36 -6.22 M 73.71 33.84 C 81.6 31.9 87.55 29.23 84.76 27.16 C 81.97 25.1 80.75 25.34 75.9 24.01" horiz-adv-x="85.46"/><glyph unicode="佾" glyph-name="佾" d="M 30.58 56.78 C 30.1 43.43 10.55 18.66 9.7 18.91 C 8.85 19.15 10.92 24.01 11.89 25.46 M 23.42 37.48 C 26.09 37.97 26.09 25.7 25.36 23.28 C 24.64 20.85 21.97 7.62 21.72 5.31 M 45.64 54.23 C 45.27 49.62 42 42.82 32.53 37.84 M 47.46 63.82 C 53.65 59.7 67.4 51.29 72.83 49.01 C 78.1 46.81 85.22 43.07 89.71 43.67 M 42.73 34.69 C 48.67 29.59 41.27 -1.37 40.3 -2.58 C 39.33 -3.8 38.72 5.79 40.66 8.71 M 44.18 32.14 C 48.19 35.66 57.36 41.61 61.54 41.73 C 64.57 41.81 65.96 35.75 65.31 34.81 C 62.86 31.26 65.52 -11.18 61.91 -9.74 C 58.68 -8.47 44.3 4.22 44.55 11.74 C 44.82 20.38 47.04 24.64 55.96 25.7 C 61.06 26.31 46.71 9.85 50.86 9.68 C 54.77 9.52 57.17 10.29 59.6 10.41" horiz-adv-x="89.71"/><glyph unicode="使" glyph-name="使" d="M 27.78 60.18 C 30.81 60.67 31.88 57.44 29.11 50.83 C 26.57 38.2 18.11 30.94 9.93 22.43 C 19.04 30.8 21.95 36.15 23.77 37.36 C 27.29 35.54 27.74 29.91 27.29 27.77 C 26.69 24.85 23.73 13.25 23.53 11.26 C 23.04 6.4 21.59 -7.44 21.59 -7.44 M 43.56 56.91 C 51.69 60.67 55.89 61.1 62.13 61.4 C 55.21 61.4 49.27 51.68 36.88 41.73 C 42.65 34.62 40.17 33.82 38.83 21.58 C 38.7 20.43 38.38 30.21 43.56 37.72 C 48.28 44.56 67.84 51.4 68.2 49.99 C 71.36 37.84 48.29 30.68 39.43 25.22 C 49.75 28.74 63.59 32.99 66.14 33.6 C 63.96 36.15 60.19 42.46 59.59 45.25 M 48.78 69.9 C 52.91 64.43 54.97 54.48 54.36 48.77 C 53.76 43.07 51.72 25.66 51.45 21.33 C 51.09 15.51 48.9 9.92 44.9 6.77 C 40.89 3.61 32.88 3.37 30.45 6.04 M 29.11 21.21 C 32.88 21.7 36.76 21.09 38.7 19.76 C 42.19 17.36 48.9 13.75 51.45 11.99 C 56.55 8.47 61.65 5.31 68.08 1.55 C 74.02 -1.93 80.95 -3.55 90.18 -2.95" horiz-adv-x="90.18"/><glyph unicode="侃" glyph-name="侃" d="M 28.78 55.66 C 31.08 54.18 31.02 47.99 28.99 42.36 C 27.94 39.47 18.46 18.62 10.81 13.66 M 23.42 30.13 C 24.42 25.6 27.63 13.83 23.06 -1.32 M 40.68 51.42 C 45.02 49.81 44.53 38.88 44.9 32.55 C 44.78 35.53 44.53 42.98 44.16 45.71 C 43.8 48.33 56.82 56.76 59.79 57.5 C 62.77 58.25 67.24 57.87 65.25 53.4 C 63.27 48.94 57.19 37.64 45.02 33.42 C 52.1 35.91 57.56 39.88 63.64 42.86 C 61.16 42.11 40.81 27.09 39.32 24.24 C 39.56 16.3 40.56 9.6 33.61 -0.96 M 45.15 20.14 C 46.64 22.01 49.86 25.73 50.98 22.13 C 52.1 18.53 50.49 7.61 48.38 4.38 M 57.44 32.8 C 58.8 32.06 61.84 30.5 62.52 27.59 C 63.92 21.64 62.64 17.32 61.9 10.96 C 60.52 -0.95 65.75 -2.82 74.19 -3.31 C 82.63 -3.81 97.15 -5.92 86.85 16.17" horiz-adv-x="90.41"/><glyph unicode="侄" glyph-name="侄" d="M 32.59 54.07 C 34.89 52.59 34.83 46.41 32.8 40.78 C 31.75 37.88 22.27 17.03 14.62 12.08 M 27.23 28.55 C 28.23 24.02 31.44 12.24 26.87 -2.9 M 44.66 57.09 C 52.29 60.91 61.44 65.61 62.79 62.82 C 64.35 59.64 60.88 55.33 56.43 48.72 C 52.06 42.18 47.36 36.45 42.75 31.35 C 56.58 44.89 68.02 40.83 64.85 31.19 C 59.14 13.97 46.09 6.4 43.08 11.5 C 40.05 16.6 46.24 23.46 47.99 24.17 C 51.01 25.45 56.26 25.69 53.88 19.15 C 52.01 14.05 51.34 12.62 46.41 7.04 C 41.48 1.46 40.36 -1.57 39.73 -6.11 C 43.39 -8.18 54.72 -5.23 58.98 -3.96 C 65.21 -2.05 74.39 -0.13 74.24 2.42 C 73.77 9.67 70.89 10.39 69.14 18.04 M 73.86 37.29 C 83.4 35.7 89.69 35.86 88.8 28.85 C 88.54 26.85 84.04 26.62 76.87 25.74" horiz-adv-x="88.89"/><glyph unicode="侈" glyph-name="侈" d="M 34.23 63.05 C 35.97 60.64 35.94 58.23 33.02 51.15 C 29.19 41.85 21.53 25.62 15.64 15.99 C 21.79 26.15 26.07 34.97 27.41 38.85 C 29.95 39.39 32.73 35.04 31.82 29.09 C 30.89 22.94 28.61 12.11 28.75 6.1 M 59.36 80.96 C 63.24 76.82 64.98 70.53 58.83 60.24 C 56.51 56.36 52.68 49.41 45.19 39.79 C 53.08 51.82 66.89 63.14 68.99 60.64 C 70.57 58.75 56.78 29.85 53.21 29.49 C 47.07 28.88 53.21 40.19 56.95 41.26 C 58.83 41.79 69.85 46.12 71.13 42.99 C 75.27 32.83 61.63 23.08 56.29 18.66 C 75.8 35.24 76.2 32.38 77.68 30.29 C 87.97 15.72 51.61 -4.2 44.12 -6.34 C 36.63 -8.48 50.57 7.89 57.62 11.71 C 63 14.63 64.17 8.9 63.64 4.23" horiz-adv-x="79.5"/><glyph unicode="侉" glyph-name="侉" d="M 30.08 58.37 C 33.95 56.23 34.42 54.03 32.22 50.08 C 29.68 45.53 13.9 17.19 13.1 17.46 C 11.77 16.81 21.12 30.56 24.2 35.78 C 28.21 34.3 28.34 28.82 27.67 25.21 C 27 21.6 22.96 2.49 22.06 3.02 C 22.06 3.02 20.99 5.7 22.46 8.5 M 45.32 54.76 C 49.73 54.76 63.63 61.84 68.18 63.72 C 58.69 66.92 59.36 69.2 53.21 72 C 64.97 68.66 48.61 44.35 47.59 39.92 C 45.83 32.25 33.42 14.79 35.56 26.95 M 49.46 44.47 C 57.08 47.14 65.64 49.41 70.85 49.95 C 75.21 50.39 85.56 49.55 85.96 47.94 C 86.17 47.11 71.25 46.6 66.57 44.87 M 48.93 35.78 C 51.87 35.11 58.02 35.78 66.57 38.18 C 59.76 33.24 40.38 16.27 42.78 16.52 C 48.46 17.13 61.23 24.81 69.78 30.16 C 63.23 27.09 57.48 14.25 51.73 5.56 C 54.94 11.18 71.75 20.3 72.06 13.45 C 72.52 2.92 64.66 -15.45 61.9 -14.22 C 55.67 -11.46 52 -7.54 48.79 -4.2" horiz-adv-x="85.96"/><glyph unicode="例" glyph-name="例" d="M 32.61 61.71 C 38.62 57.83 34.27 52.67 31 46.34 C 27.44 39.42 18.3 24.14 14.43 19.87 C 14.43 21.23 24.18 33.37 25.79 36.85 C 31.27 33.9 29.67 26.95 28.73 22.54 C 27.92 18.73 27.13 4.06 26.06 3.82 C 24.85 3.56 24.05 7.3 24.72 8.77 M 39.96 54.22 C 45.17 57.7 53.95 65.45 54.26 61.84 C 55.47 48.21 35.15 16.93 32.61 15.05 C 32.47 15.9 38.76 22.14 48.52 40.99 C 54.4 43.66 54.93 42.73 53.73 32.57 C 52.32 20.68 41.56 0.62 32.07 8.9 M 35.82 31.63 C 38.49 29.76 48.92 24.95 50.12 21.47 M 61.08 43.53 C 62.95 41.52 66.16 40.05 66.03 35.51 C 65.87 30.16 64.56 20.8 63.35 21.07 C 61.4 21.5 62.15 27.35 62.29 29.76 M 74.18 76.55 C 80.33 73.21 83.67 71.46 83.01 58.37 C 82.09 40.33 81.54 33.1 81.54 28.16 C 81.54 23.14 85.76 -8.92 83.27 -8.34 C 80.38 -7.67 77.38 -3.56 72.31 -0.99" horiz-adv-x="84.06"/><glyph unicode="侍" glyph-name="侍" d="M 29.79 62.51 C 31.53 60.51 35.67 56.9 31.13 47.67 C 26.58 38.45 25.91 40.26 26.18 36.98 C 26.58 32.03 14.28 18.4 14.28 18.4 C 14.28 18.4 24.46 30.12 24.71 33.64 C 28.2 33.56 29.52 31.45 28.18 18.8 C 26.71 4.89 25.68 0.98 24.71 0.48 C 22.84 -0.48 22.3 7.57 23.51 9.04 M 43.16 50.48 C 47.57 53.42 62.54 61.04 67.89 63.05 C 61.47 61.58 55.46 72.14 52.11 74.68 C 55.99 70.13 59.2 67.59 58.4 62.25 C 57.31 54.98 56.39 50.21 54.92 46.74 C 53.45 43.26 49.98 38.05 31.79 30.29 C 40.08 33.37 60.67 46.07 67.49 48.34 C 71.77 49.77 79.52 51.28 83.53 49.28 C 77.82 48.59 57.06 33.64 52.52 30.16 C 49.96 28.2 44.36 22.67 42.76 17.46 C 55.99 24.95 72.3 33.77 77.92 33.77 M 60.67 41.66 C 64.81 39.65 66.11 38.09 66.69 34.17 C 67.89 26.02 67.03 2.75 67.22 0.21 C 67.62 -5.13 67.89 -12.35 65.75 -12.35 C 64.49 -12.35 55.78 -5.78 54.39 -0.05 C 53.83 2.22 50.02 8.54 53.18 9.44 C 58.8 11.04 66.69 9.31 66.69 9.31" horiz-adv-x="83.53"/><glyph unicode="侏" glyph-name="侏" d="M 22.56 58.37 C 23.76 55.83 27.77 56.1 21.36 43.8 C 14.94 31.5 8.89 21.56 8.12 22.14 C 4.78 24.68 16.54 34.17 18.82 39.25 C 20.55 37.51 22.69 29.89 20.82 23.08 C 19.14 16.96 16.54 3.56 16.68 1.95 M 41.41 58.77 C 46.76 52.22 38.37 42.15 36.6 38.85 C 48.44 52.43 57.05 56.23 62.66 56.9 C 60.93 53.82 36.46 31.5 30.71 23.34 C 40.74 29.36 66.81 42.86 69.48 43.26 C 62.53 44.6 54.51 51.15 52.77 57.7 M 49.3 73.07 C 52.5 69.46 56.11 64.92 55.58 59.04 C 55.04 53.16 52.37 27.49 52.37 18.93 C 52.37 13.92 51.3 0.62 51.3 -2.73 C 51.3 -6.07 52.15 -12.13 50.1 -11.82 C 46.62 -11.28 43.55 -4.87 41.01 -0.32 M 47.69 31.77 C 46.22 28.96 36.6 8.5 27.91 8.64 M 52.24 31.36 C 55.45 26.95 61.64 18.83 68.55 16.39 C 77.24 13.32 87.4 10.91 92.74 11.98" horiz-adv-x="92.74"/><glyph unicode="的" glyph-name="的" d="M 31.78 54.46 C 36.59 52.55 37.05 50.52 37.13 47.65 C 37.31 41.65 23.88 31.21 19.88 28.49 C 27.6 23.49 25.06 12.78 26.15 6.15 C 25.69 13.51 25.42 21.22 24.97 21.68 C 24.33 22.59 37.25 33.53 41.22 34.93 C 48.77 37.61 42.36 15.37 41.13 15.14 C 38.2 14.6 35.86 18.41 36.41 20.13 C 38.82 27.77 44.76 35.21 45.58 36.48 C 46.39 37.75 53.9 61.17 61.56 58.36 C 65.96 47.64 54.48 37.2 56.38 36.66 C 66.1 41.84 70.54 44.07 71.91 44.29 C 74.72 44.74 81.11 43.09 79.81 38.11 C 78.26 32.21 72.73 0.16 68.82 0.34 C 60.16 0.74 50.13 20 54.93 26.94 C 56.63 29.41 65.58 25.19 65.64 24.49 C 66.02 20.32 59.38 18.05 56.2 17.14" horiz-adv-x="79.98"/><glyph unicode="是" glyph-name="是" d="M 33.75 62.73 C 41.51 59.2 37.43 47.5 36.88 40.83 C 39.6 53.76 36.83 56.75 44.09 63.69 C 45.2 64.74 50.1 69.26 52.25 66.68 C 54.97 63.41 49.26 41.92 47.22 42.06 C 45.18 42.19 37.84 51.44 38.92 51.72 C 40.01 51.99 52.22 53.21 50.35 50.9 C 48.04 48.04 37.7 39.61 33.48 36.75 C 30.24 34.56 12.96 23.07 16.07 20.43 C 21.54 15.81 55.38 43.01 60.01 42.19 C 54.02 39.61 51.98 38.66 47.09 34.58 C 46.27 29.68 44.77 8.05 44.77 8.05 C 44.77 8.05 43.68 26.28 60.01 27.37 M 33.89 26.96 C 32.8 21.25 28.59 0.16 12.81 1.39 M 27.23 14.45 C 32.26 12.54 37.29 11.04 41.51 8.73 C 44.75 6.96 57.36 -0.25 59.19 -1.2 C 62.59 -2.97 77.96 -10.18 87.89 -3.78" horiz-adv-x="87.89"/><glyph unicode="我" glyph-name="我" d="M 25.87 54.57 C 31.72 55.66 36.48 57.97 43.01 60.29 C 42.06 55.53 18.8 31.99 18.94 30.63 C 19.06 29.38 45.33 46.68 54.17 50.22 C 42.47 45.87 40.57 49.54 37.98 50.36 C 39.48 45.05 36.82 2.77 33.63 1.11 C 30.37 -0.58 25.47 5.74 19.21 7.64 C 23.6 13.51 43.83 34.03 46.01 38.52 M 44.51 68.45 C 46.96 70.49 49.7 64.03 50.22 57.16 C 51.28 43.47 61.24 17.17 66.55 11.04 C 71.85 4.92 79.53 -7.26 81.37 -5.82 C 83.04 -4.52 76.61 12.27 76.48 18.66 M 64.37 44.78 C 66.82 36.48 54.98 5.2 45.73 17.3 M 59.88 57.57 C 61.11 57.97 77.29 61.24 77.7 53.48" horiz-adv-x="81.65"/><glyph unicode="这" glyph-name="这" d="M 47.17 60.42 C 51.66 61.1 61.99 59.88 60.36 56.48 C 58.36 52.31 47.98 44.92 46.35 44.37 M 36.69 36.07 C 35.47 34.71 33.79 32.77 35.06 31.31 C 37.41 28.63 49.49 37.43 51.93 38.79 C 55.33 40.7 64.44 43.96 68.12 43.96 M 56.55 40.56 C 57.23 31.18 50.47 16.74 48.94 15.26 C 45.26 11.72 38.05 8.73 33.97 12.13 M 37.24 23.7 C 42.68 23.02 66.65 19.2 66.89 14.31 C 66.98 12.54 62.13 9.82 57.1 9.96 M 16.02 45.32 C 22.55 45.73 27.04 46.55 28.94 43.55 M 7.99 25.6 C 11.26 19.07 22 29.68 22.82 30.9 C 23.64 32.13 16.04 21.08 15.75 19.89 C 14.79 16.08 17.45 14.22 18.74 13.36 C 21.59 11.45 23.36 8.19 22.41 5.06 C 20.51 2.07 5.28 2.38 9.76 2.07 C 15.61 1.66 24.96 2.05 36.97 0.3 C 51.67 -1.85 59.47 -7.69 64.17 -9.22 C 70.02 -11.13 85.12 -9.77 91.38 -7.59" horiz-adv-x="91.38"/><glyph unicode="在" glyph-name="在" d="M 37.04 46 C 42.89 46 53.5 48.86 58.26 53.62 C 52 45.05 35.96 18.9 32.41 13.63 C 28.73 8.15 16.36 -13.98 18.68 2.2 M 32.55 30.09 C 37.99 28.59 38.09 23.9 37.86 17.85 C 37.61 11.53 36.63 1.25 35 -5.55 C 36.77 4.52 35.68 -4.05 37.86 9.55 C 45.61 19.89 66.15 29.41 71.45 30.77 M 58.12 37.3 C 67.78 29.54 59.35 11.59 57.17 9.28 C 54.04 3.84 36.44 3.07 46.42 4.65 C 57.58 6.42 72.95 11.86 80.7 5.47" horiz-adv-x="80.7"/><glyph unicode="有" glyph-name="有" d="M 40.31 61.78 C 43.71 60.56 47.75 59.22 46.16 50.63 C 44.53 41.79 32.56 5.88 23.99 5.06 C 17.98 4.49 18.82 27.1 18.14 30.9 C 33.51 38.66 53.26 48.68 57.18 49.95 C 61.81 51.44 77.58 52.12 81.67 48.86 M 41.67 29.95 C 49.16 25.6 37.87 -0.79 38.14 -5.69 M 42.76 28.73 C 50.24 33.35 56.5 36.48 58.27 35.8 C 60.04 35.12 61.88 37.14 62.62 30.9 C 64.39 16.08 65.34 -17.38 61.26 -16.16 C 57.82 -15.13 48.34 -7.05 44.94 4.65 M 44.67 21.93 C 48.07 23.02 53.67 25.64 54.32 23.56 C 57.04 14.85 41.95 10.5 47.39 11.72 C 52.83 12.95 56.36 12 58.13 11.04" horiz-adv-x="81.67"/><glyph unicode="来" glyph-name="来" d="M 28.42 45.27 C 34.77 39.94 53.43 56.44 64.98 55.68 C 55.21 53.27 51.27 64.57 44.55 69.14 C 56.73 65.46 50.13 38.67 49.5 24.46 C 49.04 14.32 48.38 -12.17 46.32 -11.47 C 40.7 -9.55 33.38 12.53 32.87 18.24 M 39.34 42.1 C 45.43 45.91 46.14 47.47 45.56 45.78 C 44.42 42.48 34.39 24.84 25 20.01 C 23.68 19.34 41.4 30.37 42.01 27.63 C 44.29 17.35 23.37 -0.41 28.17 1.61 C 34.52 4.27 43.18 7.38 45.31 8.72 C 50.13 11.76 55.15 14.65 59.9 15.7 C 67.39 17.35 75.14 15.44 73.74 11.76 C 72.25 7.83 60.54 1.74 58.64 3.64" horiz-adv-x="73.9"/><glyph unicode="道" glyph-name="道" d="M 36.91 70.86 C 36.91 67.41 37.6 61.81 38.37 61.97 C 40.54 62.43 44.07 67.02 47.26 70.47 C 49.53 72.93 58.69 79.23 59.59 76.3 C 61.39 70.47 38.37 47.38 28.81 44.86 C 40.15 51.55 59.59 61.58 63.31 60.38 C 57.07 59.85 48.98 55.74 46.06 54.01 C 46.86 45.92 41.02 36.63 38.76 36.9 C 39.83 33.45 39.1 26.01 38.76 22.31 C 38.5 19.35 36.91 15.01 36.11 9.04 M 39.03 36.9 C 44.34 41.94 50.01 45.85 53.09 46.05 C 56.99 46.31 60.12 46.19 59.46 40.75 C 58.63 33.9 59.17 1.54 56.41 2.94 C 53.09 4.62 50.31 11.83 48.85 16.2 M 39.56 29.6 C 42.19 32.54 50.57 36.77 54.29 37.3 M 39.03 25.09 C 41.42 24.43 51.37 27.75 52.43 29.47 M 37.97 16.73 C 44.2 17.4 52.69 22.31 55.22 21.91 M 13.96 47.91 C 18.73 50.96 29.48 55.74 29.08 51.1 C 28.8 47.85 17.67 38.09 17.27 37.56 M 11.83 30.4 C 10.24 27.08 8.41 23.74 10.51 23.1 C 12.57 22.47 27.85 36.83 25.36 33.85 C 23.37 31.46 20.41 27.49 19.93 25.76 C 19 22.44 21.45 19.32 22.58 18.19 C 25.1 15.67 26.29 9.57 20.59 7.85 M 7.19 11.29 C 3.61 7.18 8.12 4.13 11.83 5.46 C 16.86 7.25 19.4 8.27 23.37 7.05 C 28.55 5.46 34.33 5.87 37.97 4.93 C 45.13 3.07 55.61 0.81 59.2 -0.91 C 62.78 -2.64 71 -8.61 96.21 -0.51" horiz-adv-x="96.21"/><glyph unicode="大" glyph-name="大" d="M 20.38 32.52 C 24.23 30.27 33.49 34.61 36.17 35.84 C 39.36 37.3 44.9 39.96 46.65 40.61 C 49.84 41.81 54.88 41.41 57 44.06 C 49.57 45.79 38.03 64.23 38.03 64.23 C 38.4 65.32 46 60.38 42.94 44.73 C 37.34 16.12 25.69 1.21 16.67 6.78 M 39.49 30.13 C 43.87 28.28 46.65 24.69 51.3 19.25 C 55.68 14.12 58.59 11.03 62.71 8.38 C 65.71 6.44 76.24 2.41 83.14 3.33" horiz-adv-x="83.14"/><glyph unicode="到" glyph-name="到" d="M 27.25 59.72 C 30.3 55.08 40.78 59.45 44.36 60.25 C 40.38 51.1 25.19 34.85 26.45 34.11 C 28.18 33.1 41.59 44.83 44.89 42.21 C 50.13 38.05 37.73 23.9 34.68 21.24 C 31.62 18.59 27.78 15.67 25.12 18.46 C 22.99 20.7 29.93 29.06 33.22 28.54 C 39.05 27.61 32.42 17.8 30.7 14.48 C 28.97 11.16 22.87 0.68 22.87 0.68 C 24.73 -1.18 47.59 18.15 53.65 27.61 C 59.83 37.27 54.05 45.92 56.96 43.8 C 59.88 41.68 60.13 31.66 60.68 29.47 C 61.34 26.82 62.27 33.05 61.87 34.25 M 69.17 73.91 C 73.68 70.47 77.16 67.4 76.73 63.83 C 75.91 56.95 75.23 44.82 75.01 34.64 C 74.62 16.71 77.66 -12.72 74.87 -12.45 C 69.93 -11.98 65.85 -4.76 62.54 0.81" horiz-adv-x="76.77"/><glyph unicode="就" glyph-name="就" d="M 25.09 57.46 C 28.14 50.03 18.72 22.97 10.63 15.01 C 19.1 28.05 29.99 44.56 36.36 48.31 C 40.06 50.49 42.5 50.22 43 46.45 C 43.53 42.47 40.74 36.77 38.35 33.98 C 35.9 31.12 35.7 30.27 34.11 28.67 C 31.99 29.07 31.24 27.59 27.34 38.36 C 29.86 30.4 33.45 28.81 33.05 22.17 C 32.76 17.4 32.12 -8.34 29.47 -7.54 C 26.85 -6.76 17.82 2.9 18.32 -0.38 C 18.45 -1.23 40.31 24.14 48.84 32.79 C 56.47 40.53 66.88 45.79 71.79 50.03 C 60.64 49.9 53.15 62.94 50.83 64.89 C 56.4 60.38 62.97 52.48 54.67 30.66 C 51.31 21.84 50.97 13.85 42.07 -0.78 C 39.92 -0.55 41.01 4.79 42.6 7.05 M 54.94 30.66 C 57.86 31.2 65.15 31.73 64.36 24.83 C 63.38 16.37 62.5 13.02 62.5 7.58 C 62.5 2.14 63.12 -2.75 67.41 -3.7 C 75.09 -5.4 84.65 -3.47 87.04 -1.57 C 92.75 2.94 85.72 17 85.58 23.63" horiz-adv-x="89.27"/><glyph unicode="着" glyph-name="着" d="M 45.98 66.35 C 45.98 63.96 46.38 60.78 48.9 61.84 C 50.49 62.51 52.61 67.28 55.53 69.67 C 57.75 71.49 64.83 76.8 67.07 72.72 C 69.99 67.41 51.81 52.82 48.1 52.02 M 36.96 47.25 C 42.93 44.06 65.61 56.67 67.6 57.6 C 62.43 55.21 58.98 54.28 58.85 52.02 C 58.71 49.77 56.86 35.97 54.47 35.18 C 52.63 36.02 48.5 35.31 45.31 37.03 C 48.1 38.89 63.19 48.83 63.89 47.25 C 64.82 45.13 59.4 39.63 58.18 37.96 C 54.18 32.5 25.41 19.12 27.01 17.66 C 28.2 16.57 44.39 21.91 50.75 27.48 C 57.12 33.05 71.56 44.77 70.79 44.2 C 58.18 34.78 30.85 -15.37 26.87 -15.24 C 25.39 -15.19 24.62 -10.73 27.14 -9.27 M 53.01 18.72 C 52.74 7.58 51.02 -5.82 50.62 -9.67 C 51.68 -1.97 52.21 8.64 52.88 15.41 C 54.73 18.86 65.41 25.68 67.2 26.15 C 69.72 26.82 72.92 25.61 72.38 19.79 C 71.75 13.05 69.56 -10.34 67.6 -9.67 C 62.33 -4.4 52.61 7.98 52.35 9.97 C 54.87 12.75 62.98 15.21 64.95 13.95 C 62.56 11.43 58.58 5.19 52.08 1.61 C 56.59 3.73 63.4 6.99 64.82 4.79 C 59.77 2.41 58.58 -5.95 50.89 -9.27 C 57.65 -5.69 65.48 -4.36 68.53 -7.28" horiz-adv-x="72.44"/><glyph unicode="那" glyph-name="那" d="M 23.62 50.83 C 32.24 55.47 38.34 57.86 39.8 57.86 C 41.26 57.86 49.09 60.65 48.82 53.35 C 48.56 46.05 44.98 20.98 44.98 19.52 C 44.98 18.06 43.12 0.15 40.73 1.74 C 38.34 3.33 32.64 9.57 31.97 11.56 C 31.31 13.55 18.8 30.44 19.64 31.2 C 22.42 33.72 27.07 36.77 30.12 39.02 C 31.08 39.73 39.24 42.62 38.34 41.15 C 35.69 36.77 29.98 30.27 28.53 27.61 C 27.07 24.96 27.33 22.7 17.91 14.88 C 20.56 18.46 40 32.39 40.07 33.85 C 40.33 39.69 30.78 46.32 30.38 52.69 C 35.69 43.93 32.51 33.58 30.78 28.54 C 29.26 24.1 25.88 3.83 23.48 3.47 C 21.86 3.22 21.49 7.85 23.75 11.56 M 52.01 49.24 C 57.05 49.11 64.88 55.61 66.87 56.93 C 68.86 58.26 72 60.82 71.78 59.45 C 71.24 56.27 71.11 49.77 71.91 46.58 C 73.41 40.58 82.39 27.88 79.87 25.76 C 77.43 23.7 64.36 28.59 62.22 30.66 C 60.42 32.41 56.39 50.03 55.72 49.5 C 57.45 46.58 61.1 36.44 61.69 26.15 C 62.49 12.22 59.44 -13.91 57.05 -16.17" horiz-adv-x="80.31"/><glyph unicode="说" glyph-name="说" d="M 23.54 59.85 C 25.27 60.12 39.33 60.65 37.08 58.13 C 33.68 54.33 28.05 54.15 27.39 53.35 M 9.75 33.19 C 9.48 30.93 10.01 26.55 14.92 29.74 C 20.75 33.52 25.61 39.13 28.05 39.29 C 26.6 36.37 25.8 23.63 25.14 21.91 C 24.47 20.18 21.42 5.59 18.9 2.94 C 23.81 10.1 37.21 32.26 37.21 33.85 M 45.83 64.49 C 46.63 62.24 49.02 52.02 49.55 52.02 M 62.02 76.57 C 63.48 77.23 70.51 76.83 68.78 70.2 C 67.06 63.57 60.56 52.16 58.04 48.97 C 56.34 46.83 45.97 34.51 40.92 31.59 C 44.51 31.73 49.8 34.6 52.2 36.24 C 58.3 40.39 68.12 49.9 71.04 51.1 C 69.58 47.65 55.18 27.25 54.19 24.83 C 52.73 21.24 42.38 7.18 41.45 7.85 C 40.49 8.54 40.39 12.36 41.45 13.55 M 57.64 29.87 C 58.83 29.74 63.74 28.01 63.08 23.63 C 62.42 19.25 61.4 13.63 61.49 11.56 C 61.75 5.06 65 1.72 72.63 1.88 C 81 2.05 87.09 1.88 88.29 3.47 C 89.53 5.13 83.25 17.26 82.05 18.99" horiz-adv-x="88.45"/><glyph unicode="出" glyph-name="出" d="M 45.59 63.83 C 49.97 60.65 51.35 49.85 49.04 34.91 C 47.58 25.49 47.34 17.42 46.25 17.26 C 43.51 16.88 35.24 47.65 33.39 45.39 C 32.06 41.01 30.73 30.93 28.88 22.04 C 26.09 22.04 56.66 48.68 57.93 49.5 C 62.04 52.16 67.86 56.08 68.94 53.75 C 70.9 49.54 33.78 8.43 32.19 4.4 C 32.87 2.3 68.94 15.94 68.28 15.81 M 61.78 24.03 C 64.7 21.91 71.2 12.89 71.06 6.65" horiz-adv-x="71.07"/><glyph unicode="地" glyph-name="地" d="M 5.75 20.18 C 7.88 14.08 32.29 31.06 36.93 35.18 C 31.36 37.56 23.89 50.95 26.72 50.7 C 31.09 50.3 30.3 41.15 29.24 36.37 C 28.18 31.59 25.26 21.64 24.46 17.66 C 23.99 15.31 23 1.61 20.61 0.28 C 22.34 2.67 37.6 20.71 39.19 22.31 C 40.78 23.9 72.44 55.46 75.27 50.7 C 77.79 46.45 63.46 21.58 60.94 21.91 C 54.84 22.7 52.59 35.71 52.06 40.08 C 50.6 52.09 50.65 58.18 54.05 58.13 C 62.14 57.99 54.95 24.32 53.52 22.7 C 52.55 21.62 49.4 20.71 49 21.51 M 41.84 39.29 C 44.63 35.71 46.09 28.54 46.09 24.69 C 46.09 20.85 44.1 13.28 46.35 10.37 C 48.61 7.45 52.72 4.53 65.85 5.19 C 78.84 5.85 91.72 5.86 91.72 10.23 C 91.72 14.61 88.41 27.61 87.74 28.94" horiz-adv-x="91.72"/><glyph unicode="然" glyph-name="然" d="M 28.67 54.28 C 37.69 53.22 29.07 39.02 20.71 27.61 C 23.36 33.05 30.79 41.41 31.72 46.19 C 32.15 48.4 42.17 53.83 44.86 52.42 C 47.64 50.96 44.72 44.99 43.79 43.27 C 42.87 41.54 40.61 34.25 38.75 29.6 C 37.12 25.51 32.65 11.43 23.76 15.67 M 29.2 41.15 C 31.99 40.61 36.23 36.1 36.63 34.78 M 26.28 35.57 C 30.93 29.47 31.59 26.68 31.59 26.68 M 44.19 38.09 C 47.11 36.9 58.17 43.31 59.18 44.33 C 61.44 46.58 65.02 47.38 66.88 48.97 C 63.43 52.82 53.41 63.08 54.01 63.57 C 55.06 64.42 58.26 56.27 57.59 51.76 C 56.27 42.75 50.83 26.42 51.62 27.61 C 52.42 28.81 62.11 36.39 63.16 34.38 C 64.76 31.33 50.83 18.99 48.17 19.39 M 69.27 57.33 C 72.58 55.47 75.24 52.82 75.77 52.16 M 14.61 7.18 C 13.28 4.93 12.48 -1.84 13.55 -1.71 C 14.61 -1.57 18.72 2.67 19.91 4.13 M 28.27 8.38 C 29.2 8.91 34.91 9.37 35.97 8.51 C 37.43 7.31 37.86 3.33 40.08 3.2 C 42.85 3.05 46.71 10.37 48.84 11.03 C 50.5 11.55 56.03 7.45 59.18 7.45 C 63.43 7.45 68.87 12.36 71.26 12.89 C 73.64 13.42 81.03 11.41 82.14 10.5 C 83.6 9.3 86.12 4 86.38 3.07" horiz-adv-x="86.38"/><glyph unicode="看" glyph-name="看" d="M 40.94 67.15 C 44.25 65.82 58.58 70.73 60.97 71.39 C 56.46 70.33 52.48 68.47 51.02 66.88 C 49.56 65.29 41.6 54.54 40.14 52.69 C 38.68 50.83 29.14 34.18 30.72 34.38 C 30.59 35.6 37.28 43.3 42.93 46.58 C 48.87 50.04 68 60.12 69.33 57.2 C 62.3 57.07 59.41 58.98 57.65 58.79 C 50.09 57.99 49.7 71.53 50.49 67.94 C 52.21 60.12 53.01 54.01 51.02 46.72 C 50.14 43.48 48.9 34.51 44.92 25.09 C 43.4 21.5 36.7 3.89 35.5 5.46 C 34.17 7.18 28.2 17.8 29.13 19.65 C 30.06 21.51 54.55 47.16 60.97 44.33 C 69.99 40.35 57.65 24.3 53.81 21.11 C 56.86 22.84 64.87 31.16 68.93 24.3 C 73.18 17.11 53.81 2.27 48.9 -0.11 C 46.62 -1.22 68.8 7.71 69.33 3.07 C 69.66 0.17 59.51 -7.68 53.54 -5.82" horiz-adv-x="69.53"/></font>
</defs>
</svg>
